<svg fill="none" height="24" viewBox="0 0 81 24" width="81" xmlns="http://www.w3.org/2000/svg"><path d="m.986916 20.0996c0-.9766.273434-1.9336.820314-2.8711.5664-.9375 1.27929-1.7676 2.13867-2.4902.85937-.7227 1.80664-1.2988 2.8418-1.7285 1.03515-.4493 2.02148-.6739 2.95898-.6739.37112 0 .72262.0684 1.05472.2051.332.1367.6836.2051 1.0547.2051h.1757c.0977-.2149.2832-.5957.5567-1.1426.2929-.5469.5957-1.123.9082-1.7285.332-.60547.6445-1.17188.9375-1.69922.2929-.54687.5078-.92773.6445-1.14258.2149-.37109.5078-.83008.8789-1.37695.3711-.56641.7324-1.11328 1.084-1.64063.3711-.52734.6934-.97656.9668-1.34765s.4297-.55664.4687-.55664l1.1426 1.14258c0 .03906-.0781.21484-.2343.52734-.1368.3125-.3223.72266-.5567 1.23047-.2344.48828-.5078 1.03516-.8203 1.64062-.293.60547-.5957 1.21094-.9082 1.81641s-.6152 1.19141-.9082 1.75785c-.2734.5468-.5176 1.0058-.7324 1.3769-.6055.918-1.2207 1.8555-1.8457 2.8125-.6055.9375-1.0938 1.8164-1.4649 2.6367-.3515.8008-.5273 1.5039-.5273 2.1094.0195.6055.3515 1.0254.9961 1.2598 1.1718-.2149 2.0508-.3028 2.6367-.2637s.9473.1465 1.084.3223c.1562.1562.1367.3515-.0586.5859-.1953.2148-.5078.4102-.9375.5859-.4102.1758-.8887.293-1.4356.3516-.5468.0586-1.0937 0-1.6406-.1758s-1.0449-.498-1.4941-.9668c-.4492-.4687-.79104-1.1425-1.02542-2.0215l-4.54101 3.7793s-.07813.0196-.23438.0586c-.13672.0391-.3125.0782-.52734.1172-.19532.0391-.40039.0781-.61524.1172-.21484.0391-.39062.0684-.52734.0879h-.17578c-.44922 0-.82032-.0781-1.11328-.2344-.27344-.1758-.48829-.3906-.64454-.6445-.15625-.2734-.26367-.5859-.32226-.9375-.03906-.3516-.058594-.7129-.058594-1.084zm1.904294-.3223c0 .1172-.00976.2539-.02929.4102 0 .1563.00976.3027.02929.4395.03906.1171.09766.2246.17578.3222.09766.0977.23438.1465.41016.1465.25391 0 .55664-.0879.9082-.2637.3711-.1953.73242-.4199 1.08399-.6738.35156-.2539.67383-.5078.96679-.7617.3125-.2539.53711-.4395.67383-.5567.13672-.1367.39063-.3808.76172-.7324.37109-.3711.75195-.7617 1.14258-1.1719.41016-.4101.79101-.791 1.14254-1.1425.3516-.3516.5957-.6055.7325-.7618v-.0878c0-.0391 0-.0586 0-.0586.0195-.0196.0293-.0391.0293-.0586 0-.1758-.0586-.3028-.1758-.3809-.0977-.0976-.2246-.1562-.3809-.1758-.1367-.039-.2832-.0488-.43944-.0293-.15625 0-.2832 0-.38086 0-.70312 0-1.44531.1465-2.22656.4395s-1.50391.6933-2.16797 1.2012c-.64453.4882-1.18164 1.0742-1.61133 1.7578-.42968.664-.64453 1.3769-.64453 2.1386zm13.14729 1.6993c-.3321-.7422-.4785-1.4649-.4395-2.168.0391-.7227.1953-1.3965.4688-2.0215.2929-.6445.664-1.2207 1.1133-1.7285.4687-.5274.9668-.9766 1.4941-1.3477.5273-.3906 1.0547-.6836 1.582-.8789.5469-.1953 1.0254-.2734 1.4356-.2343.4101.0195.7324.166.9668.4394.2343.2734.3125.6934.2343 1.2598 0 .7617-.2441 1.4258-.7324 1.9922-.4687.5664-.9961 1.0742-1.582 1.5234-.5664.4492-1.0938.8594-1.582 1.2305-.4688.3515-.7032.6836-.7032.9961 0 .1757.0977.3125.293.4101.2149.0977.459.1758.7324.2344.2735.0391.5469.0684.8203.0879.2735.0195.4688.039.586.0586 1.8359-.3906 3.2129-.625 4.1308-.7031.918-.0977 1.4942-.0879 1.7286.0292.2343.0977.1855.2637-.1465.4981-.3125.2148-.8008.4492-1.4649.7031-.664.2344-1.4355.4492-2.3144.6446-.8789.1953-1.7481.3125-2.6074.3515-.8594.0195-1.6602-.0683-2.4024-.2637-.7226-.1953-1.2598-.5664-1.6113-1.1132zm5.1269-6.6797c-.3906 0-.7617.1074-1.1132.3222-.3516.2149-.6739.4883-.9668.8204-.2735.3125-.5079.664-.7032 1.0546-.1953.3711-.3418.7227-.4394 1.0547.039.0196.0683.0293.0879.0293h.0879c.2734 0 .5859-.1172.9375-.3515.3515-.2344.6836-.5176.9961-.8496.3125-.3516.5761-.7129.791-1.084.2148-.3711.3222-.7032.3222-.9961zm4.5047 4.9511c0-.371.0488-.6933.1465-.9668.1172-.2734.4004-.4101.8496-.4101.0391 0 .127.0098.2637.0293.1562 0 .2637.0098.3223.0293-.0196.918.1269 1.6113.4394 2.0801.3125.4492.8984.6738 1.7578.6738.7031 0 1.3965-.1074 2.0801-.3223.6836-.2148 1.2988-.5273 1.8457-.9375.5664-.4297 1.0156-.9472 1.3477-1.5527.3515-.6055.5273-1.2891.5273-2.0508 0-.4687-.166-.8008-.498-.9961-.3125-.1953-.6641-.3515-1.0547-.4687-.3907-.1172-.752-.2442-1.084-.3809-.3125-.1562-.4688-.4199-.4688-.791 0-.4492.2735-.8789.8203-1.2891.5469-.4101 1.1914-.7715 1.9336-1.084.7422-.332 1.4746-.5859 2.1973-.7617.7422-.1953 1.3086-.2929 1.6992-.2929 0 .5664-.1269.9668-.3808 1.2011-.2344.2344-.5274.42-.8789.5567-.3516.1367-.7129.2734-1.084.4101-.3516.1172-.6446.3516-.8789.7032.3125.2539.5664.4882.7617.7031.2148.1953.3808.4101.498.6445s.1953.4981.2344.791c.0391.2735.0586.6055.0586.9961 0 1.0156-.2246 1.9434-.6738 2.7832-.4297.8203-.9961 1.5332-1.6992 2.1387-.7032.5859-1.504 1.0449-2.4024 1.3769-.8984.3125-1.8164.4688-2.7539.4688-.5078 0-1.0059-.0586-1.4941-.1758-.4688-.1367-.8887-.3418-1.2598-.6152-.3516-.2735-.6348-.6153-.8496-1.0254-.2149-.4102-.3223-.8984-.3223-1.4649zm13.8504 1.7286c-.332-.7422-.4785-1.4649-.4394-2.168.039-.7227.1953-1.3965.4687-2.0215.293-.6445.6641-1.2207 1.1133-1.7285.4687-.5274.9668-.9766 1.4941-1.3477.5274-.3906 1.0547-.6836 1.5821-.8789.5468-.1953 1.0253-.2734 1.4355-.2343.4102.0195.7324.166.9668.4394s.3125.6934.2344 1.2598c0 .7617-.2442 1.4258-.7324 1.9922-.4688.5664-.9961 1.0742-1.5821 1.5234-.5664.4492-1.0937.8594-1.582 1.2305-.4688.3515-.7031.6836-.7031.9961 0 .1757.0976.3125.2929.4101.2149.0977.459.1758.7325.2344.2734.0391.5468.0684.8203.0879.2734.0195.4687.039.5859.0586 1.8359-.3906 3.2129-.625 4.1309-.7031.9179-.0977 1.4941-.0879 1.7285.0292.2344.0977.1855.2637-.1465.4981-.3125.2148-.8008.4492-1.4648.7031-.6641.2344-1.4356.4492-2.3145.6446-.8789.1953-1.748.3125-2.6074.3515-.8594.0195-1.6602-.0683-2.4024-.2637-.7226-.1953-1.2597-.5664-1.6113-1.1132zm5.127-6.6797c-.3907 0-.7618.1074-1.1133.3222-.3516.2149-.6738.4883-.9668.8204-.2735.3125-.5078.664-.7031 1.0546-.1954.3711-.3418.7227-.4395 1.0547.0391.0196.0684.0293.0879.0293h.0879c.2734 0 .5859-.1172.9375-.3515.3515-.2344.6836-.5176.9961-.8496.3125-.3516.5762-.7129.791-1.084s.3223-.7032.3223-.9961zm10.95 5.9472c0-.5859.1171-1.123.3515-1.6113.2539-.5078.5274-.9863.8203-1.4355.293-.4493.5567-.8985.791-1.3477.254-.4492.3809-.9277.3809-1.4355 0-.1172-.0098-.2539-.0293-.4102 0-.1758-.0195-.3418-.0586-.498-.0195-.1563-.0781-.2832-.1758-.3809-.0781-.1172-.1855-.1758-.3222-.1758-.0196 0-.0586.0098-.1172.0293-.0391 0-.0586.0098-.0586.0293-.2734.3711-.6055.791-.9961 1.2598-.3711.4492-.7715.8984-1.2012 1.3476-.4297.4493-.8496.8789-1.2597 1.2891-.4102.4102-.7813.7519-1.1133 1.0254-.2344.2148-.5567.5078-.9668.8789-.3906.3711-.791.7422-1.2012 1.1133-.3906.3515-.7422.664-1.0547.9375-.2929.2734-.459.4101-.498.4101l-1.3477-1.1425c.1758 0 .3516-.0391.5274-.1172.1562-.0782.3125-.166.4687-.2637 1.1719-.7813 2.2266-1.6797 3.1641-2.6953.957-1.0156 1.8945-2.1094 2.8125-3.2813.039-.0586.1367-.2246.2929-.498.1758-.293.3614-.6153.5567-.9668.1953-.3711.3906-.7324.5859-1.084.1953-.3711.3418-.6641.4395-.8789.1172-.2539.1855-.459.2051-.6152.039-.1563.0683-.27348.0878-.3516.0391-.09766.0977-.16602.1758-.20508s.2442-.05859.4981-.05859c.039 0 .1269.00976.2636.02929.1563.01954.2539.03907.293.0586.2539.52738.4785.99608.6738 1.40628.1954.4101.3614.8007.4981 1.1718.1367.3516.2344.7129.293 1.084.0781.3711.1171.7813.1171 1.2305-.2539.6445-.5371 1.3086-.8496 1.9922-.3125.664-.5761 1.2988-.791 1.9043-.2148.6055-.3515 1.1523-.4101 1.6406-.0391.4883.0683.8789.3222 1.1719.2735.2734.7227.4199 1.3477.4394.6445.0196 1.5527-.1464 2.7246-.498.3125.1562.3418.3516.0879.5859-.2539.2149-.6445.4199-1.1719.6153-.5078.1953-1.0742.3613-1.6992.498-.6055.1172-1.1133.1465-1.5234.0879-.3711 0-.6836-.0586-.9375-.1758-.2344-.1367-.4297-.3125-.586-.5273-.1367-.2149-.2441-.459-.3223-.7324-.0585-.2735-.0878-.5567-.0878-.8497zm4.4754-.5859c0-.5664.1074-1.1328.3222-1.6992.2149-.5664.4688-1.1231.7617-1.6699.293-.5664.586-1.1231.8789-1.67.3125-.5468.5469-1.0839.7032-1.6113-.3711.2149-.6934.3418-.9668.3809-.2539.0195-.5664.0293-.9375.0293-.0391 0-.166 0-.3809 0-.1953-.0196-.3223-.0293-.3808-.0293.1171-.4297.332-.8106.6445-1.1426.3125-.3516.664-.6445 1.0547-.8789.4101-.2539.83-.459 1.2597-.6152.4493-.1758.8496-.3125 1.2012-.4102.5859-.91797 1.0645-1.83594 1.4356-2.75391.371-.9375.7421-1.8457 1.1132-2.72461.3907-.89844.8399-1.74805 1.3477-2.54883.5273-.82031 1.2305-1.57226 2.1094-2.255856l.1465 1.113286-3.6622 8.58402c.2149-.0586.4786-.1172.7911-.1758s.625-.11721.9375-.1758c.332-.0586.6445-.10742.9375-.14649.3125-.05859.5761-.11719.791-.17578h.1758c.0976-.01953.1757-.0293.2343-.0293.2735 0 .4981.04883.6739.14649.1757.09766.3222.31248.4394.64458-1.3281.3906-2.5293.8007-3.6035 1.2304s-2.0117.9961-2.8125 1.6992c-.7813.6836-1.4258 1.5625-1.9336 2.6368-.4883 1.0546-.8301 2.4121-1.0254 4.0722 0 .3516.0195.6738.0586.9668s.2832.4688.7324.5274c.4492 0 .8692-.0879 1.2598-.2637s.7715-.3613 1.1426-.5567c.3711-.2148.7422-.4101 1.1133-.5859.3906-.1758.8105-.2637 1.2597-.2637 0 .4688-.2051.8985-.6152 1.2891-.4102.3906-.9082.7324-1.4942 1.0254-.5664.293-1.1523.5176-1.7578.6738-.6054.1563-1.1035.2344-1.4941.2344s-.7422-.0781-1.0547-.2344c-.3125-.1562-.5762-.3613-.791-.6152-.1953-.2735-.3516-.5859-.4688-.9375-.0976-.3516-.1464-.7129-.1464-1.084zm7.6101-.4102c0-.371.0488-.6933.1465-.9668.1172-.2734.4004-.4101.8496-.4101.0391 0 .127.0098.2637.0293.1562 0 .2636.0098.3222.0293-.0195.918.127 1.6113.4395 2.0801.3125.4492.8984.6738 1.7578.6738.7031 0 1.3965-.1074 2.0801-.3223.6836-.2148 1.2988-.5273 1.8457-.9375.5664-.4297 1.0156-.9472 1.3476-1.5527.3516-.6055.5274-1.2891.5274-2.0508 0-.4687-.166-.8008-.4981-.9961-.3125-.1953-.664-.3515-1.0546-.4687-.3907-.1172-.752-.2442-1.084-.3809-.3125-.1562-.4688-.4199-.4688-.791 0-.4492.2735-.8789.8203-1.2891.5469-.4101 1.1914-.7715 1.9336-1.084.7422-.332 1.4746-.5859 2.1973-.7617.7422-.1953 1.3086-.2929 1.6992-.2929 0 .5664-.1269.9668-.3809 1.2011-.2343.2344-.5273.42-.8789.5567-.3515.1367-.7128.2734-1.0839.4101-.3516.1172-.6446.3516-.8789.7032.3125.2539.5664.4882.7617.7031.2148.1953.3808.4101.498.6445s.1953.4981.2344.791c.0391.2735.0586.6055.0586.9961 0 1.0156-.2246 1.9434-.6738 2.7832-.4297.8203-.9961 1.5332-1.6993 2.1387-.7031.5859-1.5039 1.0449-2.4023 1.3769-.8984.3125-1.8164.4688-2.7539.4688-.5078 0-1.0059-.0586-1.4942-.1758-.4687-.1367-.8886-.3418-1.2597-.6152-.3516-.2735-.6348-.6153-.8496-1.0254-.2149-.4102-.3223-.8984-.3223-1.4649z" fill="#e8d8b1"/></svg>