<svg fill="none" height="54" viewBox="0 0 345 54" width="345" xmlns="http://www.w3.org/2000/svg"><path d="m.820312 46.2324c0-2.2786.638018-4.5117 1.914068-6.6992 1.32161-2.1875 2.98502-4.1243 4.99023-5.8105s4.21549-3.0306 6.63089-4.0332c2.4153-1.0482 4.7168-1.5723 6.9043-1.5723.8659 0 1.6862.1595 2.4609.4785s1.5951.4785 2.4609.4785h.4102c.2279-.5013.6608-1.39 1.2988-2.666.6836-1.276 1.39-2.6204 2.1192-4.0332.7747-1.4128 1.5039-2.7344 2.1875-3.9648.6836-1.2761 1.1849-2.1648 1.5039-2.6661.5013-.8658 1.1849-1.9368 2.0508-3.2129.8658-1.3216 1.7089-2.59761 2.5292-3.82808.8659-1.23046 1.6179-2.27864 2.2559-3.14453.638-.86588 1.0026-1.29882 1.0938-1.29882l2.666 2.66601c0 .09115-.1823.5013-.5469 1.23047-.319.72917-.752 1.6862-1.2988 2.87105-.5469 1.1394-1.1849 2.4154-1.9141 3.8282-.6836 1.4127-1.39 2.8255-2.1191 4.2383-.7292 1.4127-1.4356 2.7799-2.1192 4.1015-.638 1.2761-1.2077 2.347-1.709 3.2129-1.4127 2.1419-2.8483 4.3294-4.3066 6.5625-1.4128 2.1875-2.5521 4.2383-3.418 6.1523-.8203 1.8685-1.2304 3.5092-1.2304 4.9219.0455 1.4128.8203 2.3926 2.3242 2.9395 2.7344-.5013 4.7851-.7064 6.1523-.6153 1.3672.0912 2.2103.3418 2.5293.752.3646.3646.319.8203-.1367 1.3672-.4557.5013-1.1849.957-2.1875 1.3672-.957.4101-2.0736.6836-3.3496.8203s-2.5521 0-3.8281-.4102c-1.2761-.4101-2.4382-1.1621-3.4864-2.2558-1.0481-1.0938-1.8457-2.666-2.3925-4.7168l-10.5957 8.8183s-.1823.0456-.5469.1367c-.31902.0912-.72918.1823-1.23048.2735-.45573.0911-.93425.1823-1.43555.2734-.5013.0912-.91146.1595-1.23047.2051h-.41015c-1.04818 0-1.91407-.1823-2.59766-.5469-.63802-.4101-1.13932-.9114-1.50391-1.5039-.36458-.638-.61523-1.3672-.751949-2.1875-.091146-.8203-.136719-1.6634-.136719-2.5293zm4.443358-.7519c0 .2734-.02278.5924-.06836.957 0 .3646.02279.7064.06836 1.0254.09115.2734.22787.5241.41016.7519.22786.2279.54687.3418.95703.3418.59245 0 1.29883-.205 2.11914-.6152.86589-.4557 1.709-.9798 2.5293-1.5723.8203-.5924 1.5723-1.1849 2.2559-1.7773.7291-.5925 1.2532-1.0254 1.5722-1.2988.319-.319.9115-.8887 1.7774-1.709.8659-.8659 1.7545-1.7774 2.666-2.7344l2.666-2.666c.8203-.8203 1.39-1.4128 1.709-1.7774v-.205c0-.0912 0-.1367 0-.1367.0456-.0456.0683-.0912.0683-.1368 0-.4101-.1367-.7063-.4101-.8886-.2279-.2279-.5241-.3646-.8887-.4102-.319-.0911-.6608-.1139-1.0254-.0684-.3646 0-.6608 0-.8887 0-1.6406 0-3.3723.3418-5.1953 1.0254-1.8229.6836-3.5091 1.6179-5.0586 2.8028-1.50386 1.1393-2.75712 2.5065-3.75972 4.1015-1.00261 1.5495-1.50391 3.2129-1.50391 4.9903zm29.92503 3.0761c0-.638.0683-1.1849.205-1.6406.1368-.5013.3874-1.1393.752-1.914.319-.4558.8887-1.3217 1.709-2.5977.8659-1.276 1.7545-2.6204 2.666-4.0332.957-1.4128 1.8457-2.7344 2.666-3.9649.8659-1.276 1.4584-2.1647 1.7774-2.666.4101-.5924.7291-.9114.957-.957s.6608-.0684 1.2988-.0684c.4102 0 .8431.0228 1.2988.0684.5014.0456.8204.3646.9571.957-.638 1.5495-1.5039 3.0306-2.5977 4.4434-1.0482 1.3672-2.0963 2.7344-3.1445 4.1016-1.0026 1.3671-1.8913 2.7799-2.666 4.2382-.7748 1.4128-1.1621 2.9395-1.1621 4.5801.1823 0 .4557.0228.8203.0684.4101.0455.8431.0911 1.2988.1367s.8659.0911 1.2305.1367c.4101.0456.7064.0456.8886 0 .2735-.0456.7292-.1367 1.3672-.2734.6836-.1823 1.39-.3646 2.1192-.5469.7747-.1823 1.5039-.3646 2.1875-.5469s1.1621-.319 1.4355-.4101v.4785c.0456.1823.0684.319.0684.4101 0 .9115-.433 1.6635-1.2988 2.2559-.8204.5924-1.8002 1.071-2.9395 1.4355-1.0937.3191-2.2331.5469-3.418.6836-1.1393.0912-2.028.1368-2.666.1368-.6836 0-1.39-.0684-2.1191-.2051-.6836-.1823-1.2989-.4557-1.8457-.8203-.5469-.3646-1.0026-.8203-1.3672-1.3672-.319-.5925-.4785-1.2988-.4785-2.1192zm19.8925-40.05855c.5925 0 1.1394.02278 1.6407.06836.5013.04557.9342.1595 1.2988.34179s.6608.45573.8887.82032c.2278.36458.3418.86588.3418 1.50388v.8887c0 .319-.0456.638-.1367.957-.0456.2735-.1596.5241-.3418.752-.1823.1823-.4786.2734-.8887.2734-.638 0-1.1621-.2278-1.5723-.6836-.3646-.4557-.638-.9798-.8203-1.5722-.1823-.6381-.2962-1.2761-.3418-1.91411-.0456-.63802-.0684-1.11653-.0684-1.43554zm-3.0242 41.42575c0-.4101 0-.7291 0-.957s.0228-.4329.0684-.6152c.0911-.2279.2051-.4558.3418-.6836.1367-.2279.319-.5241.5469-.8887.3645-.638 1.0481-1.7546 2.0507-3.3496 1.0026-1.5951 2.0736-3.2813 3.2129-5.0586 1.1394-1.7773 2.2103-3.4635 3.2129-5.0586 1.0482-1.5951 1.7774-2.7116 2.1875-3.3496.0456-.0456.1595-.0684.3418-.0684h.4785.4786c.2278 0 .3645.0228.4101.0684s.1367.1595.2734.3418c.1823.1823.3646.3874.5469.6152.2279.1823.4102.3646.5469.5469.1823.1823.319.2734.4102.2734.4101 0 .8431-.1367 1.2988-.4101.4557-.2735.9114-.5697 1.3672-.8887.5013-.3646 1.0026-.6836 1.5039-.957.5013-.2735 1.0254-.4102 1.5722-.4102.5925 0 1.1394.1367 1.6407.4102.5013.2734.9342.6152 1.2988 1.0254.3646.4101.638.8659.8203 1.3672.2279.5013.3418 1.0026.3418 1.5039 0 1.0481-.1595 2.0507-.4785 3.0078-.2735.957-.5925 1.914-.957 2.8711-.3646.9114-.7064 1.8457-1.0254 2.8027-.2735.9115-.4102 1.8685-.4102 2.8711s.1139 1.7318.3418 2.1875c.2279.4101.8659.6152 1.9141.6152 1.2304 0 2.3925-.1823 3.4863-.5468 1.1393-.3646 2.3014-.5469 3.4863-.5469 0 1.0937-.3418 2.0052-1.0254 2.7344-.638.7291-1.4583 1.3216-2.4609 1.7773-.957.4102-2.0052.7064-3.1445.8887-1.0938.1367-2.0964.205-3.0078.205-1.7318 0-3.0079-.4785-3.8282-1.4355-.7747-1.0026-1.1621-2.3242-1.1621-3.9648 0-1.0938.1823-2.1192.5469-3.0762.4101-.957.8431-1.8913 1.2988-2.8027.5013-.9115.9571-1.823 1.3672-2.7344.4102-.9115.6152-1.8913.6152-2.9395 0-.2734-.0455-.638-.1367-1.0937-.0911-.4558-.3873-.6836-.8886-.6836-1.504 0-2.8711.4785-4.1016 1.4355-1.1849.9571-2.2787 2.1647-3.2813 3.6231-.957 1.4583-1.8457 3.0306-2.666 4.7168-.7747 1.6862-1.5267 3.2584-2.2558 4.7168-.6836 1.4583-1.3444 2.666-1.9825 3.623-.638.957-1.2988 1.4356-1.9824 1.4356-.957 0-1.7318-.2963-2.3242-.8887-.5924-.5925-.8887-1.3444-.8887-2.2559zm29.1047-.4785c-.7747-1.7318-1.1165-3.418-1.0254-5.0586.0912-1.6862.4558-3.2584 1.0938-4.7168.6836-1.5039 1.5495-2.8483 2.5976-4.0332 1.0938-1.2305 2.2559-2.2786 3.4864-3.1445 1.2304-.9115 2.4609-1.5951 3.6914-2.0508 1.276-.4557 2.3925-.638 3.3496-.5469.957.0456 1.709.3874 2.2558 1.0254.5469.638.7292 1.6179.5469 2.9395 0 1.7773-.5696 3.3268-1.709 4.6484-1.0937 1.3216-2.3242 2.5065-3.6914 3.5547-1.3216 1.0482-2.5521 2.0052-3.6914 2.8711-1.0937.8203-1.6406 1.595-1.6406 2.3242 0 .4102.2279.7292.6836.957.5013.2279 1.0709.4102 1.709.5469.638.0912 1.276.1595 1.914.2051.6381.0456 1.0938.0911 1.3672.1367 4.2839-.9114 7.4968-1.4583 9.6388-1.6406 2.142-.2279 3.486-.2051 4.033.0683.547.2279.433.6153-.342 1.1622-.729.5013-1.868 1.0481-3.418 1.6406-1.549.5469-3.3493 1.0482-5.4001 1.5039-2.0507.4557-4.0787.7292-6.0839.8203-2.0053.0456-3.8737-.1595-5.6055-.6152-1.6862-.4558-2.9395-1.3216-3.7598-2.5977zm11.9629-15.5859c-.9114 0-1.7773.2506-2.5976.7519-.8204.5013-1.5723 1.1394-2.2559 1.9141-.638.7292-1.1849 1.5495-1.6406 2.4609-.4558.8659-.7976 1.6862-1.0254 2.461.0911.0455.1595.0683.2051.0683h.205c.6381 0 1.3672-.2734 2.1875-.8203s1.5951-1.2077 2.3243-1.9824c.7291-.8203 1.3444-1.6634 1.8457-2.5293s.7519-1.6406.7519-2.3242zm44.8794 14.6972c.182-1.8684.684-3.5774 1.504-5.1269.866-1.5951 1.868-3.099 3.008-4.5117 1.185-1.4584 2.392-2.8256 3.623-4.1016 1.276-1.3216 2.415-2.6432 3.418-3.9648.774 0 1.276.1823 1.504.5468.273.319.41.7292.41 1.2305-.365.4102-.935 1.1621-1.709 2.2559-.775 1.0481-1.573 2.1875-2.393 3.4179-.775 1.2305-1.481 2.3926-2.119 3.4864-.592 1.0937-.934 1.8685-1.025 2.3242-.365 1.3672-.365 2.2331 0 2.5976.41.319 1.048.319 1.914 0 .911-.3645 1.982-.9798 3.213-1.8457 1.23-.9114 2.483-1.914 3.759-3.0078 1.322-1.0937 2.598-2.2331 3.828-3.4179 1.231-1.1849 2.302-2.2331 3.213-3.1446h3.008c0 .7748-.114 1.5267-.342 2.2559-.228.6836-.478 1.3672-.752 2.0508-.273.6836-.524 1.3672-.752 2.0507-.227.6836-.341 1.39-.341 2.1192 0 1.0482.319 1.6862.957 1.914.683.2279 1.458.3418 2.324.3418 1.185 0 2.415-.2278 3.691-.6835 1.322-.5014 2.53-1.1622 3.623-1.9825 1.094-.8659 1.983-1.8457 2.666-2.9394.73-1.1393 1.094-2.3698 1.094-3.6914 0-1.1849-.182-2.2559-.547-3.2129-.319-1.0026-.478-2.0964-.478-3.2813 0-1.4127.774-2.1191 2.324-2.1191.684 0 1.276.2962 1.777.8887.502.5924.912 1.2988 1.231 2.1191.364.8203.615 1.6634.752 2.5293.182.8659.273 1.5723.273 2.1191 0 2.3698-.57 4.4662-1.709 6.2891s-2.597 3.3496-4.375 4.5801c-1.777 1.2304-3.76 2.1647-5.947 2.8027-2.142.638-4.238.957-6.289.957-1.732 0-3.099-.6152-4.102-1.8457-1.002-1.276-1.526-2.7571-1.572-4.4433-1.322.4101-2.529 1.1165-3.623 2.1191-1.094.9571-2.188 1.9597-3.281 3.0078-1.094 1.0026-2.233 1.8913-3.418 2.666-1.185.7748-2.484 1.1622-3.897 1.1622-.364 0-.82-.1595-1.367-.4786-.501-.319-1.003-.7063-1.504-1.1621-.456-.4557-.843-.9342-1.162-1.4355-.319-.5469-.456-1.0254-.41-1.4356zm44.007 0c0-.638.068-1.1849.205-1.6406.137-.5013.387-1.1393.752-1.914.319-.4558.889-1.3217 1.709-2.5977.866-1.276 1.755-2.6204 2.666-4.0332.957-1.4128 1.846-2.7344 2.666-3.9649.866-1.276 1.458-2.1647 1.777-2.666.41-.5924.729-.9114.957-.957s.661-.0684 1.299-.0684c.41 0 .843.0228 1.299.0684.501.0456.82.3646.957.957-.638 1.5495-1.504 3.0306-2.598 4.4434-1.048 1.3672-2.096 2.7344-3.144 4.1016-1.003 1.3671-1.891 2.7799-2.666 4.2382-.775 1.4128-1.162 2.9395-1.162 4.5801.182 0 .455.0228.82.0684.41.0455.843.0911 1.299.1367s.866.0911 1.23.1367c.411.0456.707.0456.889 0 .273-.0456.729-.1367 1.367-.2734.684-.1823 1.39-.3646 2.119-.5469.775-.1823 1.504-.3646 2.188-.5469.683-.1823 1.162-.319 1.435-.4101v.4785c.046.1823.069.319.069.4101 0 .9115-.433 1.6635-1.299 2.2559-.82.5924-1.8 1.071-2.94 1.4355-1.093.3191-2.233.5469-3.417.6836-1.14.0912-2.028.1368-2.667.1368-.683 0-1.389-.0684-2.119-.2051-.683-.1823-1.298-.4557-1.845-.8203s-1.003-.8203-1.368-1.3672c-.319-.5925-.478-1.2988-.478-2.1192zm19.893-40.05855c.592 0 1.139.02278 1.64.06836.501.04557.934.1595 1.299.34179s.661.45573.889.82032c.228.36458.341.86588.341 1.50388v.8887c0 .319-.045.638-.136.957-.046.2735-.16.5241-.342.752-.182.1823-.479.2734-.889.2734-.638 0-1.162-.2278-1.572-.6836-.365-.4557-.638-.9798-.82-1.5722-.183-.6381-.297-1.2761-.342-1.91411-.046-.63802-.068-1.11653-.068-1.43554zm-4.324 37.87105c0-1.3216.251-2.6432.752-3.9648.502-1.3216 1.094-2.6204 1.778-3.8965.683-1.3216 1.367-2.6204 2.051-3.8965.729-1.276 1.276-2.5293 1.64-3.7597-.866.5013-1.618.7975-2.256.8886-.592.0456-1.321.0684-2.187.0684-.091 0-.388 0-.889 0-.456-.0456-.752-.0684-.889-.0684.274-1.0026.775-1.8912 1.504-2.666.73-.8203 1.55-1.5039 2.461-2.0508.957-.5924 1.937-1.0709 2.94-1.4355 1.048-.4102 1.982-.7292 2.803-.957 1.367-2.142 2.483-4.2839 3.349-6.4258.866-2.1875 1.732-4.3067 2.598-6.3574.911-2.0964 1.959-4.07882 3.144-5.94731 1.231-1.91406 2.871-3.66862 4.922-5.263671l.342 2.597661-8.545 20.02932c.501-.1367 1.117-.2735 1.846-.4102s1.458-.2734 2.187-.4101c.775-.1368 1.504-.2507 2.188-.3418.729-.1368 1.344-.2735 1.845-.4102h.411c.227-.0456.41-.0684.546-.0684.639 0 1.163.114 1.573.3418.41.2279.752.7292 1.025 1.504-3.099.9114-5.902 1.8684-8.408 2.871-2.507 1.0026-4.694 2.3243-6.563 3.9649-1.822 1.595-3.326 3.6458-4.511 6.1523-1.14 2.461-1.937 5.6283-2.393 9.502 0 .8203.046 1.5722.137 2.2558s.661 1.0938 1.709 1.2305c1.048 0 2.028-.2051 2.939-.6152.912-.4102 1.8-.8431 2.666-1.2989.866-.5013 1.732-.957 2.598-1.3671.911-.4102 1.891-.6153 2.939-.6153 0 1.0938-.478 2.0964-1.435 3.0078-.957.9115-2.119 1.709-3.486 2.3926-1.322.6836-2.689 1.2077-4.102 1.5723s-2.575.5469-3.486.5469c-.912 0-1.732-.1823-2.461-.5469s-1.345-.8431-1.846-1.4356c-.456-.638-.82-1.3671-1.094-2.1875-.228-.8203-.342-1.6634-.342-2.5293zm41.136 6.6993c-1.139.1823-2.187 0-3.144-.5469-.912-.5925-1.641-1.3444-2.188-2.2559-.547-.957-.866-1.9824-.957-3.0761-.091-1.1394.137-2.1648.684-3.0762 2.005-2.5977 3.372-4.6485 4.101-6.1524.73-1.5494.98-2.6204.752-3.2129-.182-.638-.752-.8886-1.709-.7519-.911.0911-2.028.5013-3.349 1.2305-1.322.6836-2.757 1.595-4.307 2.7343-1.504 1.1394-2.916 2.3926-4.238 3.7598s-2.484 2.8027-3.486 4.3066c-.957 1.4584-1.573 2.8939-1.846 4.3067-.456.2734-.843.5013-1.162.6836-.319.1367-.684.2051-1.094.2051-.684 0-1.094-.2279-1.23-.6836-.137-.4558-.206-.9343-.206-1.4356 0-1.1393.342-2.3014 1.026-3.4863.729-1.2305 1.549-2.3698 2.461-3.418.957-1.0937 1.868-2.0735 2.734-2.9394.866-.9115 1.481-1.6407 1.846-2.1875 1.139-1.8685 2.279-3.8737 3.418-6.0157 1.139-2.1875 2.279-4.3977 3.418-6.6308 1.139-2.2787 2.301-4.5117 3.486-6.6992 1.231-2.2331 2.507-4.3523 3.828-6.3575.228-.3645.41-.6152.547-.7519.182-.1367.433-.2051.752-.2051.365 0 .638.0684.82.2051.183.1367.365.3874.547.7519 0 .1823-.045.4786-.136.8887-.046.4102-.114.8659-.205 1.3672-.046.4557-.137.8887-.274 1.2988-.091.4102-.159.6836-.205.8203-.273.5469-.729 1.5039-1.367 2.8711s-1.345 2.8256-2.119 4.375c-.73 1.5495-1.436 3.0762-2.119 4.5801-.684 1.4583-1.185 2.5521-1.504 3.2813.683-.4558 1.298-.7976 1.845-1.0254.547-.2735 1.071-.4558 1.573-.5469.546-.1367 1.093-.2051 1.64-.2051.593-.0456 1.231-.0683 1.914-.0683 1.641.4101 2.712 1.0253 3.213 1.8457.547.8203.707 1.7773.479 2.8711-.183 1.0481-.616 2.2102-1.299 3.4863-.684 1.276-1.413 2.5749-2.188 3.8965-.729 1.276-1.39 2.5293-1.982 3.7597-.593 1.1849-.866 2.2787-.82 3.2813 0 .4101.091.7064.273.8887.182.1822.41.319.684.4101.273.0912.569.1367.888.1367h.889c.957 0 1.868-.1367 2.734-.4101.912-.319 1.8-.6608 2.666-1.0254s1.732-.6836 2.598-.957c.911-.3191 1.846-.4786 2.803-.4786 0 .8659-.433 1.6862-1.299 2.461-.866.7747-1.914 1.4583-3.145 2.0508-1.184.5468-2.438 1.0026-3.759 1.3671-1.322.3191-2.416.4786-3.282.4786zm42.966-3.4864c0-.6836.205-1.6406.615-2.8711.41-1.276.934-2.6432 1.572-4.1015.684-1.4584 1.436-2.9395 2.256-4.4434.866-1.5039 1.732-2.8711 2.598-4.1015.866-1.2305 1.686-2.2331 2.461-3.0079.774-.7747 1.458-1.1621 2.05-1.1621 1.276 0 1.914.6153 1.914 1.8457 0 .5469-.113 1.0026-.341 1.3672-.183.3646-.411.7064-.684 1.0254s-.57.638-.889.957c-.319.2735-.592.6153-.82 1.0254-.41.6836-.911 1.6179-1.504 2.8028-.592 1.1849-1.185 2.347-1.777 3.4863-.547 1.0937-1.026 2.0736-1.436 2.9395-.41.8658-.615 1.3444-.615 1.4355v.8887c1.777-.319 3.486-1.071 5.127-2.2559 1.641-1.2305 3.19-2.666 4.648-4.3066 1.504-1.6407 2.917-3.3496 4.239-5.127 1.367-1.8229 2.643-3.4863 3.828-4.9902 1.185-1.5495 2.301-2.8255 3.349-3.8281 1.049-1.0026 2.028-1.504 2.94-1.504 0 1.6862-.342 3.2129-1.025 4.5801-.684 1.3672-1.436 2.7116-2.256 4.0332-.775 1.3216-1.504 2.6888-2.188 4.1016-.683 1.3672-1.025 2.9167-1.025 4.6484 0 .7292.433 1.39 1.299 1.9825.911.5468 1.936 1.0253 3.076 1.4355 1.185.3646 2.324.6608 3.418.8887 1.093.2278 1.845.3646 2.256.4101v1.7774c-1.049.0455-2.347.0683-3.897.0683-1.549-.0455-3.099-.2278-4.648-.5468-1.55-.3191-2.963-.8431-4.239-1.5723-1.23-.7747-2.05-1.8913-2.461-3.3496-1.184.7747-2.324 1.6862-3.418 2.7344-1.093 1.0481-2.233 2.028-3.417 2.9394-1.14.9115-2.348 1.6862-3.624 2.3242s-2.666.9571-4.169.9571c-.912 0-1.687-.3874-2.325-1.1622-.592-.7747-.888-1.5494-.888-2.3242zm32.112-4.1699c0-.8659.114-1.6178.342-2.2559.273-.638.934-.957 1.982-.957.091 0 .297.0228.616.0684.364 0 .615.0228.752.0683-.046 2.142.296 3.7598 1.025 4.8536.729 1.0481 2.096 1.5722 4.101 1.5722 1.641 0 3.259-.2506 4.854-.7519s3.031-1.2305 4.307-2.1875c1.321-1.0026 2.369-2.2103 3.144-3.6231.82-1.4127 1.231-3.0078 1.231-4.7851 0-1.0938-.388-1.8685-1.162-2.3243-.73-.4557-1.55-.8203-2.461-1.0937-.912-.2734-1.755-.5697-2.53-.8887-.729-.3646-1.093-.9798-1.093-1.8457 0-1.0482.638-2.0508 1.914-3.0078s2.78-1.8001 4.511-2.5293c1.732-.7747 3.441-1.3672 5.127-1.7773 1.732-.4558 3.054-.6836 3.965-.6836 0 1.3216-.296 2.2558-.889 2.8027-.546.5469-1.23.9798-2.05 1.2988-.821.319-1.664.6381-2.53.9571-.82.2734-1.504.8203-2.05 1.6406.729.5924 1.321 1.1393 1.777 1.6406.501.4557.889.957 1.162 1.5039s.456 1.1621.547 1.8457c.091.638.137 1.4128.137 2.3242 0 2.3698-.524 4.5345-1.573 6.4942-1.002 1.914-2.324 3.5775-3.964 4.9902-1.641 1.3672-3.51 2.4382-5.606 3.2129-2.096.7292-4.238 1.0938-6.426 1.0938-1.185 0-2.347-.1368-3.486-.4102-1.094-.319-2.074-.7975-2.939-1.4355-.821-.6381-1.482-1.4356-1.983-2.3926-.501-.9571-.752-2.0964-.752-3.418z" fill="#fff"/></svg>