<svg fill="none" height="99" viewBox="0 0 329 99" width="329" xmlns="http://www.w3.org/2000/svg"><path d="m.96875 89.2988c0-2.5976.45573-4.9218 1.36719-6.9726.86588-2.0508 2.02799-3.9649 3.48633-5.7422 1.45833-1.7318 3.12174-3.3496 4.99023-4.8535 1.8685-1.4584 3.7826-2.8939 5.7422-4.3067 1.9596-1.3672 3.8737-2.7571 5.7422-4.1699s3.5319-2.9167 4.9902-4.5117c1.4583-1.5951 2.6205-3.3268 3.4863-5.1953.9115-1.8685 1.3672-3.9421 1.3672-6.2207 0-.0912 0-.2963 0-.6153 0-.3645-.0228-.5924-.0683-.6836-.319.2735-.9343.6836-1.8457 1.2305-.9115.5013-1.8913 1.0482-2.9395 1.6406-1.0026.5469-1.9824 1.0482-2.9394 1.5039-.9571.4558-1.6407.752-2.0508.8887-.0456 0-.2279.0228-.5469.0684-.2734.0455-.6152.0911-1.0254.1367-.3646.0456-.7292.0911-1.0937.1367-.3646 0-.6608 0-.8887 0-2.0508-.3646-3.418-1.071-4.1016-2.1191-.6836-1.0938-.8659-2.3698-.5468-3.8282.319-1.4583 1.0253-3.0078 2.1191-4.6484 1.1393-1.6862 2.4837-3.2812 4.0332-4.7851 1.595-1.5495 3.304-2.9167 5.1269-4.1016 1.8685-1.2305 3.6687-2.0964 5.4004-2.5977 1.7774-.5468 3.3952-.6608 4.8536-.3418 1.5039.2735 2.666 1.1621 3.4863 2.6661.2734 1.914.2734 3.7141 0 5.4003-.2735 1.6407-.638 3.2585-1.0938 4.8536-.4557 1.595-.9114 3.2129-1.3672 4.8535-.4557 1.595-.7291 3.3496-.8203 5.2636h.6153c.2734-.2734.7291-.7519 1.3672-1.4355.6835-.6836 1.3899-1.39 2.1191-2.1191.7747-.7748 1.5039-1.4812 2.1875-2.1192.6836-.6836 1.1621-1.1621 1.4355-1.4355.1368-.1367.4102-.319.8204-.5469.4557-.2279.7747-.3418.957-.3418v.2051.1367c0 .0456.0228.0684.0683.0684 0 1.6406-.4785 3.1445-1.4355 4.5117-.9115 1.3672-2.028 2.6432-3.3496 3.8281s-2.6888 2.2786-4.1016 3.2812c-1.4127 1.0482-2.5976 2.0508-3.5547 3.0079-.7747 1.595-1.6178 3.5774-2.5293 5.9472-.9114 2.4154-1.914 4.9675-3.0078 7.6563-1.0937 2.7344-2.3242 5.4915-3.6914 8.2715-1.3216 2.8255-2.8255 5.4231-4.5117 7.7929-1.6406 2.3698-3.4635 4.3978-5.4687 6.084-2.0053 1.7318-4.23833 2.8483-6.69927 3.3496-1.18489 0-2.16471-.2962-2.93945-.8886-.82031-.5925-1.45833-1.3444-1.91406-2.2559-.45573-.8659-.77474-1.8457-.95703-2.9395-.18229-1.0481-.27344-2.0507-.27344-3.0078zm3.62305 3.6914c.36458.8659.79752 1.39 1.29882 1.5723.50131.1823 1.07097.2734 1.70899.2734 1.1849 0 2.48369-.6152 3.89649-1.8457 1.4128-1.2304 2.8255-2.8255 4.2383-4.7851 1.4583-1.9141 2.8483-4.056 4.1699-6.4258s2.4837-4.6712 3.4863-6.9043c1.0482-2.2331 1.8685-4.2839 2.461-6.1523.638-1.823.957-3.1901.957-4.1016 0-.0912-.0228-.2507-.0684-.4785 0-.1823 0-.319 0-.4102-.1367.0912-.4557.2279-.957.4102-.4557.2278-.7292.3873-.8203.4785-1.9141 1.4128-4.0788 2.9622-6.4941 4.6484-2.3698 1.7318-4.5801 3.6231-6.6309 5.6739-2.09636 2.0507-3.85092 4.261-5.26368 6.6308-1.41276 2.4154-2.11914 5.013-2.11914 7.793v.7519c0 .3646.02278.7292.06836 1.0938 0 .3646.02278.7064.06836 1.0254zm30.1465-60.2929c-.7292 0-1.6862.2506-2.8711.7519-1.1849.4557-2.461 1.0938-3.8281 1.9141-1.3217.8203-2.6661 1.7545-4.0332 2.8027-1.3672 1.0482-2.6205 2.1419-3.7598 3.2813-1.0938 1.1393-1.9824 2.2786-2.666 3.4179-.6836 1.1394-1.0254 2.1875-1.0254 3.1446.957 0 2.1191-.1823 3.4863-.5469 1.3672-.4102 2.78-.9343 4.2383-1.5723 1.5039-.6836 2.985-1.4583 4.4434-2.3242 1.4583-.9115 2.7571-1.8685 3.8964-2.8711 1.1849-1.0026 2.142-2.028 2.8711-3.0762.7292-1.0481 1.0938-2.0735 1.0938-3.0761 0-1.2305-.6152-1.8457-1.8457-1.8457zm9.4855 16.748c-.7747-1.7318-1.1165-3.418-1.0254-5.0586.0912-1.6862.4558-3.2584 1.0938-4.7168.6836-1.5039 1.5495-2.8483 2.5976-4.0332 1.0938-1.2305 2.2559-2.2786 3.4864-3.1445 1.2304-.9115 2.4609-1.5951 3.6914-2.0508 1.276-.4557 2.3926-.638 3.3496-.5469.957.0456 1.709.3874 2.2558 1.0254.5469.638.7292 1.6179.5469 2.9395 0 1.7773-.5696 3.3268-1.709 4.6484-1.0937 1.3216-2.3242 2.5065-3.6914 3.5547-1.3216 1.0482-2.5521 2.0052-3.6914 2.8711-1.0937.8203-1.6406 1.595-1.6406 2.3242 0 .4102.2279.7292.6836.957.5013.2279 1.071.4102 1.709.5469.638.0912 1.276.1595 1.914.2051.6381.0456 1.0938.0911 1.3672.1367 4.2839-.9114 7.4968-1.4583 9.6387-1.6406 2.1419-.2279 3.4863-.2051 4.0332.0683.5469.2279.4329.6153-.3418 1.1622-.7292.5013-1.8685 1.0481-3.418 1.6406-1.5494.5469-3.3496 1.0482-5.4004 1.5039-2.0507.4557-4.0787.7292-6.0839.8203-2.0052.0456-3.8737-.1595-5.6055-.6152-1.6862-.4558-2.9395-1.3216-3.7598-2.5977zm11.9629-15.5859c-.9114 0-1.7773.2506-2.5976.7519-.8204.5013-1.5723 1.1394-2.2559 1.9141-.638.7292-1.1849 1.5495-1.6406 2.4609-.4558.8659-.7975 1.6862-1.0254 2.461.0911.0455.1595.0683.2051.0683h.205c.6381 0 1.3672-.2734 2.1875-.8203.8204-.5469 1.5951-1.2077 2.3243-1.9824.7291-.8203 1.3444-1.6634 1.8457-2.5293s.7519-1.6406.7519-2.3242zm10.1008 12.5097c0-1.3216.2506-2.6432.752-3.9648.5013-1.3216 1.0937-2.6204 1.7773-3.8965.6836-1.3216 1.3672-2.6204 2.0508-3.8965.7291-1.276 1.276-2.5293 1.6406-3.7597-.8659.5013-1.6178.7975-2.2559.8886-.5924.0456-1.3216.0684-2.1875.0684-.0911 0-.3873 0-.8886 0-.4558-.0456-.752-.0684-.8887-.0684.2734-1.0026.7747-1.8912 1.5039-2.666.7292-.8203 1.5495-1.5039 2.4609-2.0508.9571-.5924 1.9369-1.0709 2.9395-1.4355 1.0482-.4102 1.9824-.7292 2.8027-.957 1.3672-2.142 2.4838-4.2839 3.3496-6.4258.8659-2.1875 1.7318-4.3067 2.5977-6.3574.9115-2.0964 1.9596-4.07882 3.1445-5.94731 1.2305-1.91406 2.8711-3.66862 4.9219-5.263671l.3418 2.597661-8.5449 20.02932c.5013-.1367 1.1165-.2735 1.8457-.4102.7291-.1367 1.4583-.2734 2.1875-.4101.7747-.1368 1.5039-.2507 2.1875-.3418.7291-.1368 1.3444-.2735 1.8457-.4102h.4101c.2279-.0456.4102-.0684.5469-.0684.638 0 1.1621.114 1.5723.3418.4101.2279.7519.7292 1.0254 1.504-3.099.9114-5.9017 1.8684-8.4082 2.871s-4.694 2.3243-6.5625 3.9649c-1.8229 1.595-3.3269 3.6458-4.5118 6.1523-1.1393 2.461-1.9368 5.6283-2.3925 9.502 0 .8203.0455 1.5722.1367 2.2558.0911.6836.6608 1.0938 1.709 1.2305 1.0482 0 2.028-.2051 2.9394-.6152.9115-.4102 1.8002-.8431 2.666-1.2989.8659-.5013 1.7318-.957 2.5977-1.3671.9115-.4102 1.8913-.6153 2.9395-.6153 0 1.0938-.4786 2.0964-1.4356 3.0078-.957.9115-2.1191 1.709-3.4863 2.3926-1.3216.6836-2.6888 1.2077-4.1016 1.5723-1.4127.3646-2.5749.5469-3.4863.5469-.9115 0-1.7318-.1823-2.461-.5469-.7291-.3646-1.3444-.8431-1.8457-1.4356-.4557-.638-.8203-1.3671-1.0937-2.1875-.2279-.8203-.3418-1.6634-.3418-2.5293zm51.5785 2.1875c0-.638.068-1.1849.205-1.6406.137-.5013.387-1.1393.752-1.914.319-.4558.889-1.3217 1.709-2.5977.866-1.276 1.755-2.6204 2.666-4.0332.957-1.4128 1.846-2.7344 2.666-3.9649.866-1.276 1.458-2.1647 1.777-2.666.411-.5924.73-.9114.957-.957.228-.0456.661-.0684 1.299-.0684.41 0 .843.0228 1.299.0684.501.0456.82.3646.957.957-.638 1.5495-1.504 3.0306-2.598 4.4434-1.048 1.3672-2.096 2.7344-3.144 4.1016-1.003 1.3671-1.891 2.7799-2.666 4.2382-.775 1.4128-1.162 2.9395-1.162 4.5801.182 0 .456.0228.82.0684.41.0455.843.0911 1.299.1367s.866.0911 1.23.1367c.411.0456.707.0456.889 0 .274-.0456.729-.1367 1.367-.2734.684-.1823 1.39-.3646 2.119-.5469.775-.1823 1.504-.3646 2.188-.5469s1.162-.319 1.435-.4101v.4785c.046.1823.069.319.069.4101 0 .9115-.433 1.6635-1.299 2.2559-.82.5924-1.8 1.071-2.939 1.4355-1.094.3191-2.234.5469-3.418.6836-1.14.0912-2.028.1368-2.666.1368-.684 0-1.39-.0684-2.12-.2051-.683-.1823-1.298-.4557-1.845-.8203s-1.003-.8203-1.367-1.3672c-.319-.5925-.479-1.2988-.479-2.1192zm19.893-40.05855c.592 0 1.139.02278 1.64.06836.502.04557.934.1595 1.299.34179s.661.45573.889.82032c.228.36458.342.86588.342 1.50388v.8887c0 .319-.046.638-.137.957-.046.2735-.16.5241-.342.752-.182.1823-.479.2734-.889.2734-.638 0-1.162-.2278-1.572-.6836-.365-.4557-.638-.9798-.82-1.5722-.183-.6381-.296-1.2761-.342-1.91411-.046-.63802-.068-1.11653-.068-1.43554zm-3.025 41.42575c0-.4101 0-.7291 0-.957s.023-.4329.069-.6152c.091-.2279.205-.4558.342-.6836.136-.2279.319-.5241.546-.8887.365-.638 1.049-1.7546 2.051-3.3496 1.003-1.5951 2.074-3.2813 3.213-5.0586s2.21-3.4635 3.213-5.0586c1.048-1.5951 1.777-2.7116 2.187-3.3496.046-.0456.16-.0684.342-.0684h.479.478c.228 0 .365.0228.41.0684.046.0456.137.1595.274.3418.182.1823.364.3874.547.6152.228.1823.41.3646.547.5469.182.1823.319.2734.41.2734.41 0 .843-.1367 1.299-.4101.455-.2735.911-.5697 1.367-.8887.501-.3646 1.002-.6836 1.504-.957.501-.2735 1.025-.4102 1.572-.4102.592 0 1.139.1367 1.641.4102.501.2734.934.6152 1.298 1.0254.365.4101.638.8659.821 1.3672.228.5013.342 1.0026.342 1.5039 0 1.0481-.16 2.0507-.479 3.0078-.273.957-.592 1.914-.957 2.8711-.365.9114-.706 1.8457-1.025 2.8027-.274.9115-.411 1.8685-.411 2.8711s.114 1.7318.342 2.1875c.228.4101.866.6152 1.914.6152 1.231 0 2.393-.1823 3.487-.5468 1.139-.3646 2.301-.5469 3.486-.5469 0 1.0937-.342 2.0052-1.025 2.7344-.638.7291-1.459 1.3216-2.461 1.7773-.957.4102-2.006.7064-3.145.8887-1.094.1367-2.096.205-3.008.205-1.731 0-3.008-.4785-3.828-1.4355-.775-1.0026-1.162-2.3242-1.162-3.9648 0-1.0938.182-2.1192.547-3.0762.41-.957.843-1.8913 1.299-2.8027.501-.9115.957-1.823 1.367-2.7344.41-.9115.615-1.8913.615-2.9395 0-.2734-.045-.638-.137-1.0937-.091-.4558-.387-.6836-.888-.6836-1.504 0-2.871.4785-4.102 1.4355-1.185.9571-2.278 2.1647-3.281 3.6231-.957 1.4583-1.846 3.0306-2.666 4.7168-.775 1.6862-1.527 3.2584-2.256 4.7168-.683 1.4583-1.344 2.666-1.982 3.623s-1.299 1.4356-1.983 1.4356c-.957 0-1.732-.2963-2.324-.8887-.592-.5925-.889-1.3444-.889-2.2559zm62.721-3.5547c0-1.3216.251-2.6432.752-3.9648.502-1.3216 1.094-2.6204 1.778-3.8965.683-1.3216 1.367-2.6204 2.051-3.8965.729-1.276 1.276-2.5293 1.64-3.7597-.866.5013-1.618.7975-2.256.8886-.592.0456-1.321.0684-2.187.0684-.091 0-.388 0-.889 0-.456-.0456-.752-.0684-.889-.0684.274-1.0026.775-1.8912 1.504-2.666.73-.8203 1.55-1.5039 2.461-2.0508.957-.5924 1.937-1.0709 2.94-1.4355 1.048-.4102 1.982-.7292 2.803-.957 1.367-2.142 2.483-4.2839 3.349-6.4258.866-2.1875 1.732-4.3067 2.598-6.3574.911-2.0964 1.959-4.07882 3.144-5.94731 1.231-1.91406 2.871-3.66862 4.922-5.263671l.342 2.597661-8.545 20.02932c.501-.1367 1.117-.2735 1.846-.4102l2.187-.4101c.775-.1368 1.504-.2507 2.188-.3418.729-.1368 1.344-.2735 1.845-.4102h.411c.227-.0456.41-.0684.546-.0684.639 0 1.163.114 1.573.3418.41.2279.752.7292 1.025 1.504-3.099.9114-5.902 1.8684-8.408 2.871-2.507 1.0026-4.694 2.3243-6.563 3.9649-1.822 1.595-3.326 3.6458-4.511 6.1523-1.14 2.461-1.937 5.6283-2.393 9.502 0 .8203.046 1.5722.137 2.2558s.661 1.0938 1.709 1.2305c1.048 0 2.028-.2051 2.939-.6152.912-.4102 1.8-.8431 2.666-1.2989.866-.5013 1.732-.957 2.598-1.3671.911-.4102 1.891-.6153 2.939-.6153 0 1.0938-.478 2.0964-1.435 3.0078-.957.9115-2.119 1.709-3.486 2.3926-1.322.6836-2.689 1.2077-4.102 1.5723s-2.575.5469-3.486.5469c-.912 0-1.732-.1823-2.461-.5469s-1.345-.8431-1.846-1.4356c-.456-.638-.82-1.3671-1.094-2.1875-.228-.8203-.342-1.6634-.342-2.5293zm18.168.8887c0-.1823 0-.5469 0-1.0937.045-.5925.068-.9799.068-1.1621 1.458-3.3269 3.327-6.403 5.605-9.2286 2.279-2.8255 4.854-5.332 7.725-7.5195.091 0 .228-.0228.41-.0684.228-.0911.388-.1367.479-.1367 1.23 0 2.233.2735 3.008.8203.82.5013 1.458 1.1849 1.914 2.0508.501.8203.843 1.7546 1.025 2.8028.182 1.0026.273 1.9824.273 2.9394 0 1.7774-.41 3.6458-1.23 5.6055-.82 1.914-1.937 3.6914-3.35 5.332-1.367 1.5951-2.939 2.9167-4.716 3.9649-1.778 1.0026-3.623 1.5039-5.538 1.5039-1.914 0-3.349-.5013-4.306-1.5039-.912-1.0482-1.367-2.4838-1.367-4.3067zm5.332-.8203c0 .5013.205.8431.615 1.0254s.82.2734 1.23.2734c1.14 0 2.233-.2962 3.282-.8886 1.093-.6381 2.05-1.4128 2.871-2.3243.866-.957 1.549-2.0052 2.051-3.1445.501-1.1393.751-2.2331.751-3.2812 0-.5013-.045-1.0482-.136-1.6407-.046-.638-.183-1.1849-.41-1.6406-.228-.5013-.593-.8887-1.094-1.1621-.456-.2734-1.117-.319-1.983-.1367-.638.1367-1.367.7291-2.187 1.7773s-1.618 2.2787-2.393 3.6914c-.729 1.3672-1.344 2.7572-1.845 4.1699-.502 1.3672-.752 2.461-.752 3.2813zm17.415 3.1445c0-.6836.205-1.6406.615-2.8711.41-1.276.934-2.6432 1.572-4.1015.684-1.4584 1.436-2.9395 2.256-4.4434.866-1.5039 1.732-2.8711 2.598-4.1015.866-1.2305 1.686-2.2331 2.461-3.0079.775-.7747 1.458-1.1621 2.051-1.1621 1.276 0 1.914.6153 1.914 1.8457 0 .5469-.114 1.0026-.342 1.3672-.182.3646-.41.7064-.684 1.0254-.273.319-.569.638-.888.957-.319.2735-.593.6153-.821 1.0254-.41.6836-.911 1.6179-1.504 2.8028-.592 1.1849-1.184 2.347-1.777 3.4863-.547 1.0937-1.025 2.0736-1.435 2.9395-.411.8658-.616 1.3444-.616 1.4355v.8887c1.778-.319 3.487-1.071 5.127-2.2559 1.641-1.2305 3.19-2.666 4.649-4.3066 1.504-1.6407 2.916-3.3496 4.238-5.127 1.367-1.8229 2.643-3.4863 3.828-4.9902 1.185-1.5495 2.302-2.8255 3.35-3.8281s2.028-1.504 2.939-1.504c0 1.6862-.342 3.2129-1.025 4.5801-.684 1.3672-1.436 2.7116-2.256 4.0332-.775 1.3216-1.504 2.6888-2.188 4.1016-.683 1.3672-1.025 2.9167-1.025 4.6484 0 .7292.433 1.39 1.299 1.9825.911.5468 1.937 1.0253 3.076 1.4355 1.185.3646 2.324.6608 3.418.8887 1.094.2278 1.846.3646 2.256.4101v1.7774c-1.048.0455-2.347.0683-3.897.0683-1.549-.0455-3.099-.2278-4.648-.5468-1.55-.3191-2.962-.8431-4.238-1.5723-1.231-.7747-2.051-1.8913-2.461-3.3496-1.185.7747-2.325 1.6862-3.418 2.7344-1.094 1.0481-2.233 2.028-3.418 2.9394-1.14.9115-2.347 1.6862-3.623 2.3242s-2.666.9571-4.17.9571c-.912 0-1.686-.3874-2.324-1.1622-.593-.7747-.889-1.5494-.889-2.3242zm48.587-21.3281c-1.048.1367-2.256.7975-3.623 1.9824-1.367 1.1394-2.689 2.5521-3.965 4.2383-1.23 1.6406-2.279 3.4408-3.144 5.4004-.866 1.9141-1.299 3.6914-1.299 5.332 0 1.3216.342 2.2559 1.025 2.8028.684.5013 1.664.7519 2.94.7519 1.367 0 2.688-.1595 3.964-.4785 1.322-.3646 2.621-.7292 3.897-1.0937 1.322-.4102 2.62-.7748 3.896-1.0938 1.322-.3646 2.666-.5469 4.034-.5469 0 .638-.092 1.1849-.274 1.6407-.182.4101-.456.8658-.82 1.3671-2.37 1.1394-4.808 2.1875-7.315 3.1446-2.506.9114-5.127 1.3672-7.861 1.3672-.82 0-1.686-.1368-2.598-.4102-.911-.319-1.754-.752-2.529-1.2988-.775-.5469-1.435-1.2077-1.982-1.9824-.502-.7748-.752-1.6407-.752-2.5977 0-2.0508.296-4.0332.888-5.9473.593-1.9596 1.413-3.8053 2.461-5.5371 1.049-1.7317 2.302-3.3268 3.76-4.7851 1.504-1.4584 3.122-2.7344 4.854-3.8282v-.0683c.683-.4102 1.458-.7975 2.324-1.1621.911-.4102 1.754-.638 2.529-.6836.775-.0912 1.413.0911 1.914.5469.547.4101.821 1.2076.821 2.3925 0 .5469-.046 1.2761-.137 2.1875-.091.8659-.342 1.4812-.752 1.8457-.365.2279-.843.433-1.436.6153-.273.0911-.547.1595-.82.205zm29.993 24.8145c-1.139.1823-2.187 0-3.144-.5469-.912-.5925-1.641-1.3444-2.188-2.2559-.547-.957-.866-1.9824-.957-3.0761-.091-1.1394.137-2.1648.684-3.0762 2.005-2.5977 3.372-4.6485 4.101-6.1524.73-1.5494.98-2.6204.752-3.2129-.182-.638-.752-.8886-1.709-.7519-.911.0911-2.028.5013-3.349 1.2305-1.322.6836-2.757 1.595-4.307 2.7343-1.504 1.1394-2.916 2.3926-4.238 3.7598s-2.484 2.8027-3.486 4.3066c-.957 1.4584-1.573 2.8939-1.846 4.3067-.456.2734-.843.5013-1.162.6836-.319.1367-.684.2051-1.094.2051-.684 0-1.094-.2279-1.23-.6836-.137-.4558-.206-.9343-.206-1.4356 0-1.1393.342-2.3014 1.026-3.4863.729-1.2305 1.549-2.3698 2.461-3.418.957-1.0937 1.868-2.0735 2.734-2.9394.866-.9115 1.481-1.6407 1.846-2.1875 1.139-1.8685 2.279-3.8737 3.418-6.0157 1.139-2.1875 2.278-4.3977 3.418-6.6308 1.139-2.2787 2.301-4.5117 3.486-6.6992 1.231-2.2331 2.507-4.3523 3.828-6.3575.228-.3645.41-.6152.547-.7519.182-.1367.433-.2051.752-.2051.365 0 .638.0684.82.2051.183.1367.365.3874.547.7519 0 .1823-.045.4786-.136.8887-.046.4102-.114.8659-.206 1.3672-.045.4557-.136.8887-.273 1.2988-.091.4102-.159.6836-.205.8203-.273.5469-.729 1.5039-1.367 2.8711s-1.345 2.8256-2.119 4.375c-.73 1.5495-1.436 3.0762-2.119 4.5801-.684 1.4583-1.185 2.5521-1.504 3.2813.683-.4558 1.298-.7976 1.845-1.0254.547-.2735 1.071-.4558 1.573-.5469.546-.1367 1.093-.2051 1.64-.2051.593-.0456 1.231-.0683 1.914-.0683 1.641.4101 2.712 1.0253 3.213 1.8457.547.8203.707 1.7773.479 2.8711-.183 1.0481-.616 2.2102-1.299 3.4863-.684 1.276-1.413 2.5749-2.188 3.8965-.729 1.276-1.39 2.5293-1.982 3.7597-.593 1.1849-.866 2.2787-.82 3.2813 0 .4101.091.7064.273.8887.182.1822.41.319.684.4101.273.0912.569.1367.888.1367h.889c.957 0 1.868-.1367 2.734-.4101.912-.319 1.8-.6608 2.666-1.0254s1.732-.6836 2.598-.957c.911-.3191 1.846-.4786 2.803-.4786 0 .8659-.433 1.6862-1.299 2.461-.866.7747-1.914 1.4583-3.145 2.0508-1.185.5468-2.438 1.0026-3.759 1.3671-1.322.3191-2.416.4786-3.282.4786z" fill="#fff"/></svg>