<svg fill="none" height="157" viewBox="0 0 175 157" width="175" xmlns="http://www.w3.org/2000/svg"><g fill="#9f4837"><path d="m60.2871 21.8177c-.8318.3418-1.6131.8078-2.3197 1.3478-2.2858 1.7459-3.5636 4.1454-2.7917 6.7592.4522 1.5286.8775 1.413 2.0407 2.2541.0751.0525-.0189.4839.2591.3234.1381-.0819-.3312-1.1936-.3048-1.4432.0217-.2022-.8178-1.0512-.9229-1.3549-.201-.5806-.1484-1.1095.0236-1.701.4108-1.4324 1.3623-2.4228 2.5823-3.3764.6837-.5354 1.3938-1.0583 2.2015-1.401.8084-.3453 1.7326-.4975 2.5541-.2666.5304.1476.9899.449 1.3924.7919 1.1395.9698 1.8689 2.3107 2.2292 3.7282.5563 2.1886.552 4.7755-1.0306 6.7097-2.0176 2.4688-3.4717 3.1165-6.3649 4.3565-2.1179.9075-3.8818 1.8747-5.927 2.9746-4.7854 2.5754-10.2868 3.5785-15.0999 6.5192-2.7934 1.7044-7.2767 4.9064-9.2642 7.3535-1.8343 2.2586-3.8649 5.048-5.9853 7.0435-.137.1281-2.1368 1.3509-2.2665 1.381-.1499.0354-.2689-.0046-.403-.0486.1756-.6553-.0882-1.3041.158-1.981 1.2277-3.372 3.2213-7.4951 5.4469-10.4376 1.0202-1.3475 2.4151-2.6216 3.3509-3.9565 1.0675-1.524 2.0301-3.5838 3.211-5.0071.9297-1.1205 2.5651-2.2735 3.5485-3.3931.9719-1.1065 2.8848-3.4871 3.4868-4.6955.5045-1.0156 1.4511-4.236 1.3225-5.3186-.3232-2.7259-3.8768-.9064-5.4349-.2838-.5473.218-1.2452.3525-1.7344.5753-1.4791.6707-3.621 2.9279-4.7696 4.1194-5.8632 6.0632-8.3956 13.0242-11.1877 20.4803-.5713 1.5272-.9049 3.1451-1.5778 4.618-.9141 2-1.78 4.0318-2.2788 6.1457-.5097 2.1542-.6098 4.4128.0901 6.4589.949 2.7693 4.0721 5.924 7.467 6.088.8374.0407 3.5979-1.2889 4.4041-1.7671 1.2582-.7435 2.289-1.8585 3.6471-2.4104 1.8527-.7543 2.2016-.9877 3.8915-1.9612 1.4662-.8444 3.054-1.3158 4.698-2.2693.2812-.1623.5844-.0135.6166-.3453-.7316-.7579-1.4621-.7133-2.511-.4081-1.9979.5804-4.2022 1.9915-6.0826 2.9302-1.5282.7629-2.9038 1.3803-4.4058 2.207-1.8349 1.0104-3.9134 1.9824-6.057 1.7862-2.1678-.1972-3.4783-2.1719-4.3031-3.822-.3025-.6051-.5845-1.2264-.7577-1.8806-.7441-2.7981.4993-5.866 1.8647-8.4312 1.4433-2.7145 2.6161-5.7608 3.8384-8.5885.3919-.9081.5171-1.8795.8613-2.7706 1.39-3.6148 3.2706-6.9334 5.3544-10.2138 1.8654-2.939 3.3061-4.525 5.9539-6.906.9435-.8493 2.0381-1.3556 3.0966-2.0392.9214-.5959 1.6232-1.1481 2.7896-1.2164.4967-.029 1.0509.0601 1.3149.4361.2881.4067.1135.9678-.0957 1.4358-.78 1.7414-2.1674 2.9473-3.4926 4.3643-1.4136 1.515-3.0031 2.9206-4.2798 4.5397-1.216 1.5436-2.2066 3.3555-3.3574 4.9382-1.3464 1.849-3.031 3.4885-4.2966 5.3889-2.1136 3.1697-3.3934 6.706-4.8691 10.1061-.0169 1.0814-.6159 3.1658.1689 3.9974.1113.119 1.2787 1.0045 1.3957 1.052.4514.1804 1.8781.0278 2.3016-.2018.5916-.3223 3.402-3.0784 3.8712-3.6902 2.7747-3.6004 4.8906-6.7182 8.8295-9.3907 3.6059-2.4484 6.5836-4.6086 10.8338-6.2549 2.1642-.8383 4.8181-1.2861 6.8024-2.2997 1.3675-.6979 2.8454-1.7877 4.2449-2.504 1.6555-.845 3.4813-1.4688 5.1271-2.2677 1.4008-.681 4.1786-2.9622 5.0556-4.1887 1.9233-2.6913.8209-6.4309-.1064-9.0999-.3858-1.111-.865-2.2362-1.7707-3.03-1.1046-.9686-2.7519-1.3236-4.3125-1.115-.6699.0906-1.3243.2746-1.9496.5312z"/><path d="m72.3502 50.9105c.5405.7553.913 2.5813.9444 2.7869.2472 1.5575.2824 3.1499.1444 4.7338-.272 3.1526-1.2107 6.2725-2.5654 9.2214-1.2852 2.8001-2.93 5.4605-4.7126 8.0301-2.1926 3.1621-4.4441 5.9491-7.7071 8.2165-3.6313 2.5226-8.9399 5.1956-13.4219 4.5214-5.7416-.8631-11.2682-1.6713-16.859-3.1478-3.3883-.8944-6.7409-1.8818-10.3529-1.5989-.822.0634-1.2972-.018-1.537.8767-.3242 1.2099.3639 1.586 1.4657 1.9299 3.3423 1.036 6.905 2.0258 10.454 2.4418 3.6089.424 7.2553.8392 10.883 1.2034 8.1831.815 15.4703-.2391 23.251-3.0141 1.6996-.6063 3.4365-1.5537 5.1701-2.3778 1.3342-.6339 3.7173-1.5028 4.8654-2.2487.5529-.3597.2596-.233.9416-.55 1.5546-.7207 3.4267-1.9507 4.7514-2.9627.2924-.2242.9414-.5392 1.1801-.8049.1774-.1983-.0276-.1694-.1241-.2223-.7971-.4432-1.8153-.4945-2.7286-1.058-1.6501-1.0202-2.7303-2.4632-2.2458-4.4026.5368-2.1443 3.1576-3.5573 5.3363-4.0162 1.9323-.4062 3.3937-.174 4.7073 1.2045.8446.8909.9848 1.8496 1.382 2.9178-.5675 1.0392-1.0267 2.1481-1.7336 3.1229-.2359.3258-1.6964 1.7336-1.5369 2.0357 1.804.4051 3.4191 1.1728 5.0759 1.8652.4783.2011.9822.2362 1.4538.5328.1597.0995.249-.0117.0977.2909l-2.5937-.3114-5.0289-1.5366c-1.8553 1.2075-3.4747 2.8456-5.3912 3.9691-2.0322 1.1925-4.8185 2.5071-6.9871 3.6036-10.0506 5.0762-18.9483 6.7469-30.1054 5.6592-6.445-.6275-12.9186-1.4706-19.1166-3.08-1.9549-.5077-4.5217-.4958-5.1604-2.6389-.0706-.2405-.3052-2.2484-.2464-2.3569.4863-.9178 2.516-1.2438 3.5051-1.3056 3.5545-.22 6.4071.2039 9.7523 1.1084 4.3576 1.1784 8.768 2.271 13.3055 2.8493 3.9335.5029 8.088 1.0785 11.9245-.5058 3.3073-1.3641 6.2635-3.5246 8.4871-6.1975.7972-.9588 1.4973-1.9788 2.1999-2.998 3.1643-4.6009 6.395-9.3488 7.5376-14.621.3046-1.3988.2801-2.7291.4135-4.1143.1354-1.4225.7845-2.5344.4193-4.0046-.1293-.5155-.3343-1.0107-.4464-1.5297-.1122-.519-.1223-1.0863.1291-1.5809.0302-.0621.0679-.1223.1231-.1669.2559-.1989.4942-.0702.7088.2277zm3.6875 21.0406c-.4142.8805-.2459 1.9359.3146 2.7074.5642.7779 1.363 1.1135 2.2347 1.52.5231.2455 1.2898.8724 1.9341.7667.3389-.055 1.8457-1.6963 2.1206-2.0467.2749-.3505.9028-1.2115 1.0946-1.5545.8106-1.4523-.2611-3.0685-1.5701-3.8191-.6748.1596-1.3537-.1196-2.0268-.0676s-1.221.3023-1.7909.5845c-.8463.4161-1.7179.9066-2.1892 1.6772-.0468.0739-.0867.1523-.1234.2289z"/><path d="m75.4489 15.0475c.6256.8916 1.0382 1.9125 1.0885 2.8742.0575 1.096-.2353 2.2089-.7122 3.2427-.8151 1.7617-2.1971 3.431-2.1894 5.3078.0028.5843.1426 1.1512.3106 1.7041.3718 1.2234.8903 2.424 1.6985 3.4402.853 1.0714 2.0882 1.6131 3.4755 2.001.9349.2613 1.109-.1162 1.9115.7904.5106.5745.9085 1.3781 1.3255 1.949.2153.2955.8435.6529 1.0247.9445.4486.7254 1.1989 1.2722.6561 2.31-.3721.7134-1.1208 1.1989-1.8538 1.6157-.7331.4168-1.5089.8222-2.021 1.463-.4144.5184-.6187 1.1498-.74 1.7737-.2134 1.099-.1887 2.2267.0623 3.2962.1966.8388.3071 1.9085.7841 2.6387 1.0391 1.5967 3.2349 2.7173 4.8922 3.68 1.8579 1.0813 4.1805 1.5173 4.9388 3.7384.4361 1.2758.0663 2.7165-.5506 3.9803-.6168 1.2637-1.477 2.4272-2.092 3.6941-1.0255 2.1133-1.6768 5.0481-.5534 7.0861.6382 1.1571 1.8955 1.5561 3.0011 2.3197.219.1505 1.0583.0728 1.3334.0844.8831.0313.844-.4681.1884-.9247-.3529-.2458-.7882-.3652-1.1918-.5328-1.1622-.4816-2.0959-1.3828-2.5628-2.4831-.4702-1.0985-.4695-2.3815-.0027-3.5288.7242-1.7753 2.445-3.0755 3.4188-4.7542.7888-1.3608 1.0568-2.9558.7383-4.4189-.2808-1.2908-1.0326-2.5783-2.1348-3.395-1.2172-.9015-2.8363-1.2003-4.1592-1.9492-1.311-.743-3.2349-1.588-4.0236-2.8286-.994-1.563-.945-3.6111-.3086-5.3613.2164-.5957.5042-1.1859.9616-1.663.3105-.322.6877-.5803 1.0393-.8642.9361-.7514 2.3642-2.149 2.3856-3.3481.0173-.8409-.9213-1.784-1.4126-2.4208-.9762-1.2665-2.6843-3.572-4.1691-4.221-.4405-.191-1.2092-.1349-1.5552-.2249-1.2503-.3242-2.5919-1.3159-2.867-2.5377-.2832-1.2618-.6399-2.5216-.2961-3.8451.1543-.5961.4159-1.169.661-1.7409.8251-1.94 1.4593-3.9339 2.0903-5.926.4365-1.3769-.5068-2.7967-1.3651-3.8479-1.2341-1.5139-2.951-2.6979-4.8874-3.3653-.791-.2741-1.8612-.6554-2.7187-.6312-.9061.0246-1.8473.6234-2.5414 1.137-.5089.3769-.9843.7898-1.4247 1.2337-.3258.3288-.6388.6906-.7505 1.1172.3444.1463.761.104 1.1284-.0272s.6926-.3466 1.0208-.5531c.6429-.4031 1.585-1.1367 2.3403-1.2936.449-.0931.9816.1171 1.4144.2358.983.2634 2.0468.5376 2.9391.9982.8566.443 1.6494 1.1741 2.2478 2.026z"/><path d="m65.0179 62.0315c2.896 5.0604-2.3643 11.3338-5.5367 15.4408-2.792 3.6147-4.7931 6.6768-9.8173 7.724-3.073.6408-7.4547-.1659-9.6753-2.0711-1.8101-1.5521-1.2499-2.6851-1.9465-4.6223-.0345-.093-.5196-.793-.3825-.8508.2561.0119.2535.203.3561.3547 1.3411 2.0018 2.4943 4.6341 5.2029 5.6759.2302.0887.4649.1705.7049.2429 2.4853.7659 5.1351.4548 7.5075-.7573 2.3731-1.2146 4.3282-3.0869 6.0236-5.0288.8564-.978 1.6558-1.9957 2.4278-3.0315.4015-.5407 2.012-3.4157 2.5028-4.2999.5211-.9464.9421-1.9331 1.2944-2.9354.4687-1.3359.1023-3.7492-.4073-5.023-.4677-1.1681-1.6208-2.0066-2.9156-2.3562-1.2948-.3497-2.7168-.2552-4.0583.0634-.1214.0296-.2403.0599-.3617.0895-1.9722.5251-3.8217 1.4288-5.6602 2.2815-2.1811 1.0121-4.352 2.4295-6.6411 3.129-.1883.0576-.3741.1158-.5669.1398-.1542.0208-.3155.0181-.4479-.0524-.1324-.0706-.2198-.2183-.1719-.3568.0513-.151.2317-.2296.3917-.2921.8917-.3338 1.6616-.6462 2.4532-1.1607.6015-.3899 1.1855-.8251 1.8135-1.1728.524-.2918 1.0795-.4698 1.591-.7353 4.5855-2.3939 13.1189-6.0019 16.3236-.3995z"/><path d="m89.6856 31.2887c-.1272.001-.2576.0039-.3849.0049-.5938.0084-1.187.0143-1.7809.0226-.1107.0001-.2343.0075-.3115.084-.2021.1998.1706.432.4517.4615.939.0949 1.9778.0896 2.8877.2928.6066.1356 1.1537.4227 1.7736.559.7214.1609 1.4571.3796 1.9102.9468.6608.8308.4292 2.0276.1194 3.063-.5613 1.8729-1.2846 3.7052-1.9996 5.5369-.6218 1.5948-1.5893 3.421-1.8797 5.0694-.4779 2.7111 2.5254 5.496 5.0257 6.166.2193.0587.5331.0672.615-.1378.0641-.1584-.0707-.3107-.2051-.4142-.5674-.433-1.2805-.6754-1.877-1.0703-1.1105-.7352-1.7461-1.9725-1.9113-3.2513-.2058-1.6112.3831-2.9824.8279-4.5111.4904-1.6893.9739-3.3724 1.6875-5.0074.5253-1.2045 1.1235-2.4085 1.2943-3.681s-.1648-2.6618-1.2262-3.419c-.9362-.6696-2.2334-.7281-3.4487-.7295-.5241 0-1.047.0058-1.5724.0109z"/><path d="m98.7688 67.3983c.9917.8763 4.5892 2.1697 6.0022 2.4296 4.311.7903 8.529 1.472 12.554 3.0962 1.282.5165 2.452 1.1812 3.699 1.7313 1.823.8048 3.486 1.1853 4.949 2.5581 3.901 3.6602 6.451 7.9958 2.85 13.1577-3.43 4.9186-7.758 8.6568-11.701 13.1918-2.936 3.376-4.1 5.22-7.964 7.964-.217.156-1.45.754-1.37.949.168-.02.309-.044.482-.003 6.081 1.413 11.894 3.562 17.429 6.163 2.771 1.302 5.475 2.713 8.134 4.193 1.168.65 2.49.959 3.611 1.688 1.173.763 2.12 1.787 2.984 2.834 1.975 2.399 3.722 5.136 4.189 8.222.327 2.157-.647 4.541-2.086 6.122-1.122 1.231-3.173 3.504-4.765 1.63-.653-.77-.818-1.827-.952-2.827-.26-1.964-.491-3.946-1.126-5.821s-1.717-3.661-3.357-4.771c-3.918-2.646-10.031-2.769-14.572-2.599-4.952.183-9.846.995-14.776 1.449-8.9015.818-19.6707 1.237-28.4292.2-10.0781-1.193-13.6788-8.312-8.7866-16.821 1.3953-2.424 3.9686-6.392 5.8789-8.43 1.5514-1.657 3.6662-2.754 5.5758-4.0334 5.8704-3.9325 8.1631-7.4784 15.677-9.0255.5233-.1083 1.2519-.448 1.6721-.2922-.3644.2509-.7566.4645-1.1247.709-1.7054 1.1423-3.6637 1.9683-5.3892 3.1754-3.4907 2.4414-8.0281 5.5128-11.6001 7.8247-3.4153 2.21-4.6579 2.634-6.9648 6.192-1.0533 1.622-2.3885 3.933-3.1629 5.644-4.4308 9.791.7704 13.165 10.7712 13.608 8.2097.363 18.1081.23 26.3665-.445 6.667-.545 13.448-1.818 20.096-1.072 5.372.602 10.951 1.686 13.175 6.624.521 1.16.901 2.424 1.427 3.648.663 1.547.263 2.891.29 4.413.058 3.512 3.175-.419 3.796-1.746.666-1.426.837-3.104.335-4.597-.281-.837-.759-1.595-1.232-2.34-1.135-1.793-2.137-4.023-3.468-5.649-1.258-1.536-3.979-2.249-5.718-3.169-3.357-1.775-6.655-3.715-10.151-5.184-3.52-1.481-8.334-3.195-12.186-3.63-.572-.064-1.336.047-1.837-.011-.676-.078-1.573-.451-2.283-.471-.11-.003-.158.206-.248.19-.091-.016-.195-.16-.318-.175-.42-.045-2.51 1.011-3.094 1.222-1.499.544-3.0553.989-4.5618 1.52-1.2167.427-1.9121.824-3.1878 1.069-2.0561.394-5.1155.712-6.4559-.99-.1934-.246-.0623-.624-.556-.738.08-.278.2897-.516.5276-.699 1.2922-1.001 4.2391-1.968 5.8466-2.331 3.8839-.875 6.8443-.733 10.6793-.961.565-.032 1.162.109 1.735.019 2.455-1.32 5.056-3.081 6.945-5.071 1.351-1.421 2.469-3.083 3.781-4.552 4.005-4.4725 8.846-8.5268 11.733-13.7343.978-1.7641 1.065-3.3507.029-5.0682-1.338-2.217-3.302-4.3939-5.797-5.527-3.533-1.6058-7.83-3.0895-11.651-4.0431-4.214-1.0507-11.774-2.0121-13.5407-6.1054-.0883-.2047-.3818-.3292-.3743-.5893.0142-.4662.4912-.8652.5956-1.3154.8362.1458.4144.9134.9689 1.405zm-4.2738 46.5887c-.7094.218-1.4117.459-2.1145.703-.1223.043-2.2911 1.15-1.809 1.388 2.0778 1.026 4.8393.58 6.8544-.568.625-.357 1.5063-.52 2.1856-.757 1.0725-.374 1.9625-.82 3.0845-1.086-1.685-.649-3.6196-.667-5.4648-.354-.9281.156-1.8353.397-2.7337.675z"/><path d="m71.9672 89.8839c-4.6956 2.1293-9.3437 4.7469-13.2452 8.0562-4.4364 3.7629-10.0323 10.2299-12.1152 15.4129-1.1673 2.904-1.4465 5.207-1.0321 8.187.4462 3.204 1.7109 5.793 4.2373 7.959 6.0823 5.217 13.0637 4.467 20.8436 3.399 2.886-.396 5.5541-.484 8.442-.917.2875-.045.5661.135.8362-.046-.3641-.365-1.0083-.411-1.5429-.462-5.6796-.561-12.8156 1.401-18.6047.766-7.3161-.804-12.4852-5.104-12.7051-12.127-.1037-3.313 2.8196-9.807 4.873-12.672 1.3281-1.851 2.8387-3.567 4.1817-5.403 2.4631-3.3654 6.0596-5.738 9.9261-7.6465 1.7494-.863 3.9642-1.7688 5.5304-2.916.7159-.5241 1.4061-1.1441 1.8245-1.8992-.0881-.1451-1.2582.2194-1.4489.306z"/><path d="m144.161 121.214c1.13.784 2.344 1.444 3.717 1.785 1.013.253 2.198.295 3.082-.301-1.01-.224-2.012-.476-3-.76-2.329-.665-3.093-2.914-4.886-4.278-7.166-5.448-16.785-7.075-26.058-6.847-.252.005-1.681.146-1.75.341.313.638 1.372.8 2.091.898 2.719.377 5.728.198 8.512.587 5.928.829 11.59 3.192 15.995 6.795.745.608 1.501 1.224 2.3 1.778z"/></g></svg>