<svg fill="none" height="90" viewBox="0 0 90 90" width="90" xmlns="http://www.w3.org/2000/svg" xmlns:xlink="http://www.w3.org/1999/xlink"><clipPath id="a"><path d="m0 0h90v90h-90z"/></clipPath><g clip-path="url(#a)"><path d="m90 0h-90v90h90z" fill="#9f4837"/><g fill="#fff"><path d="m53.7398 38.1997c-.216-.294-1.0838 1.3703-1.0838 1.3703-1.011 1.539-2.22 2.9857-3.3277 4.4527.4162-1.7962.5317-3.678 1.0185-5.4585.0915-.3352.3817-1.2877.6142-1.494.147-.1305 1.137-.483.6353-.873-.4913-.3825-1.1093.5205-1.38.8565-.6315.7845-1.0508 1.5315-1.8443 2.2185-5.5267 4.7843-15.3915 4.2218-13.3567-5.3062 1.2187-5.7075 6.8805-12.993 13.1212-13.3275 3.0885-.165 5.823 1.8075 5.5605 5.1-.048.6015-.603 1.9732.0578 2.3227.7462.3945 1.038-1.161 1.0837-1.641.2753-2.8845-1.5615-5.5972-4.3612-6.3532-5.6565-1.527-11.361 3.7942-13.8893 8.3422-1.671 3.0053-3.3855 8.1315-1.6867 11.3715 2.8402 5.415 11.2905 3.3045 14.5785-.588l-1.1303 6.3428c-3.627 5.3167-7.6635 11.469-9.4102 17.7277-.471 1.6883-1.2683 6.3045 1.125 6.9233 2.7637.7147 4.3177-3.4853 4.9305-5.4675 1.9522-6.3128 2.751-13.179 4.1235-19.6418 1.0867-1.761 2.4315-3.3502 3.621-5.0422.7237-.9975 1.2157-1.5435.9997-1.8375zm-7.899 20.313c-.585 2.6438-1.785 9.4478-4.155 10.8705-1.3515.8115-2.358.2355-2.748-1.2112-.8025-2.9798 1.1032-7.4183 2.3505-10.1483 1.8742-4.1017 4.215-8.0002 6.8887-11.6242-.6585 4.059-1.449 8.1-2.3362 12.1132z"/><path d="m55.1187 35.9731c1.0155.1867.9593-1.3403.0128-1.0568-.4493.135-.5303.9615-.0128 1.0568z"/></g></g></svg>