<svg fill="none" height="21" viewBox="0 0 66 21" width="66" xmlns="http://www.w3.org/2000/svg"><path d="m14.7035 20.0293c-.3711 0-.7129-.0684-1.0254-.2051-.2929-.1367-.5371-.332-.7324-.5859s-.332-.5371-.4102-.8496c-.0781-.3321-.0683-.6836.0293-1.0547 0-.625.1075-1.2012.3223-1.7285.2344-.5469.4883-1.0645.7617-1.5528.293-.5078.5469-1.0058.7617-1.4941.2344-.5078.3516-1.0449.3516-1.6113-.4297 0-.8887.1367-1.3769.4101-.4883.2735-.9864.6348-1.4942 1.084-.4883.4492-.9765.957-1.4648 1.5234-.46878.5469-.918 1.1036-1.34769 1.67-.41015.5468-.77148 1.0742-1.08398 1.582-.29297.5078-.51758.9277-.67383 1.2598-.03906.0195-.13672.039-.29297.0586-.15625 0-.2539 0-.29297 0-.3125.1562-.50781.1562-.58593 0-.0586-.1758-.0586-.4395 0-.7911.07812-.3515.19531-.7421.35156-1.1718.15625-.4493.30273-.8692.43945-1.2598.15625-.4102.27344-.7422.35156-.9961.07813-.2734.0879-.4102.0293-.4102.0586-.0781.12695-.205.20508-.3808.07812-.1758.15625-.3613.23437-.5566.07813-.1954.14649-.3711.20508-.5274.0586-.1758.08789-.3125.08789-.4102 0-.1757-.06836-.2832-.20507-.3222-.11719-.0586-.23438-.0879-.35157-.0879-.35156-.1953-.73242-.0781-1.14258.3516-.39062.4101-.82031 1.0058-1.28906 1.7871-.44922.7617-.94726 1.6406-1.49414 2.6367-.52734.9765-1.11328 1.9238-1.75781 2.8418-.44922 0-.79102-.0586-1.025392-.1758-.234375-.1172-.351562-.4102-.351562-.8789.15625-.2148.390625-.6152.703124-1.2012.3125-.6054.66406-1.2695 1.05469-1.9922.39062-.7226.80078-1.455 1.23047-2.1972.44922-.7422.86914-1.3672 1.25976-1.875.41016-.5274.77149-.8789 1.08399-1.05472.33203-.19531.5957-.10742.79101.26372.33203-.21489.69336-.40044 1.08399-.55669.41015-.15625.82031-.23437 1.23047-.23437.27343 0 .49804.08789.67382.26367.19532.15625.3418.36133.43946.61519.11718.2344.20508.4883.26368.7618.0586.2539.0879.4785.0879.6738.2148-.1367.5664-.3711 1.0547-.7031.5078-.3516 1.0449-.7032 1.6113-1.05472.5859-.35156 1.1523-.6543 1.6992-.9082.5664-.27344 1.0254-.41016 1.377-.41016.3125 0 .5761.11719.791.35156.2344.21484.3515.48828.3515.82031-.7031 1.71871-1.2597 3.09571-1.6699 4.13091-.3906 1.0351-.6543 1.8457-.791 2.4316-.1172.5664-.1172.9766 0 1.2305.1367.2343.3711.4199.7031.5566.5274 0 1.0352-.0879 1.5235-.2637s.9668-.3711 1.4355-.5859c.4883-.2149.9766-.4102 1.4649-.5859.4882-.1758 1.0058-.2637 1.5527-.2637 0 .2148-.0586.4199-.1758.6152-.0976.1758-.2539.3125-.4687.4102-.1563.0976-.4395.2539-.8496.4687-.3907.1953-.8204.4102-1.2891.6446-.4688.2148-.918.4296-1.3477.6445-.4101.2148-.7031.3613-.8789.4394-.3906.1758-.6933.293-.9082.3516-.1953.0391-.4687.0586-.8203.0586zm5.7938-1.9336c.1757-1.1133.5078-2.1387.9961-3.0762.4882-.9375 1.0449-1.748 1.6699-2.4316.6445-.7031 1.3379-1.2793 2.0801-1.7285.7421-.4492 1.4648-.7324 2.1679-.8496.7032-.13675 1.3477-.10746 1.9336.0879.6055.1953 1.0938.5859 1.4649 1.1718 0 .4493-.1075.8789-.3223 1.2891-.1953.4102-.4199.8203-.6738 1.2305-.2344.4101-.459.83-.6739 1.2597-.1953.4297-.2929.8887-.2929 1.377 0 .5078.1074.918.3222 1.2304.2344.293.6348.4395 1.2012.4395.4688 0 .918-.0684 1.3477-.2051.4492-.1367.8984-.2051 1.3476-.2051.0782 0 .2051.0098.3809.0293h.3808c-.2343.3321-.5371.6153-.9082.8497-.3711.2343-.7617.4394-1.1718.6152-.4102.1562-.8399.2734-1.2891.3515-.4297.0782-.8301.1172-1.2012.1172-.3515 0-.664-.0781-.9375-.2343-.2734-.1563-.5078-.3614-.7031-.6153s-.3516-.5371-.4687-.8496c-.0977-.332-.1465-.6543-.1465-.9668-.293.3321-.6153.6836-.9668 1.0547-.3321.3516-.6934.6738-1.084.9668-.3711.293-.7813.5371-1.2305.7324-.4297.1953-.8789.293-1.3476.293-.5078 0-.9473-.1855-1.3184-.5566-.3711-.3907-.5566-.8497-.5566-1.377zm1.9336-.9082v.5273c.0195.1954.1464.3223.3808.3809.4883-.1172 1.0449-.3711 1.6699-.7617.625-.4102 1.211-.8789 1.7579-1.4063.5468-.5468 1.0058-1.123 1.3769-1.7285.3711-.625.5566-1.2207.5566-1.7871 0-.0391-.0097-.0976-.0292-.1758 0-.0976 0-.166 0-.2051-.6641 0-1.3379.1368-2.0215.4102s-1.2989.6543-1.8457 1.1426c-.5469.4687-.9961 1.0156-1.3477 1.6406-.332.625-.498 1.2793-.498 1.9629zm10.0418.9082c0-.2734.0293-.5078.0878-.7031.0586-.2149.1661-.4883.3223-.8203.1367-.1953.3809-.5664.7324-1.1133.3711-.5469.752-1.1231 1.1426-1.7285.4102-.6055.791-1.1719 1.1426-1.6993.3711-.5468.625-.9277.7617-1.1425.1758-.2539.3125-.3907.4102-.4102.0976-.0195.2832-.0293.5566-.0293.1758 0 .3613.0098.5566.0293.2149.0195.3516.1563.4102.4102-.2734.664-.6445 1.2988-1.1133 1.9043-.4492.5859-.8984 1.1718-1.3476 1.7578-.4297.5859-.8106 1.1914-1.1426 1.8164-.332.6055-.4981 1.2598-.4981 1.9629.0782 0 .1954.0097.3516.0293.1758.0195.3613.039.5566.0586.1954.0195.3711.039.5274.0586.1758.0195.3027.0195.3808 0 .1172-.0196.3125-.0586.586-.1172.293-.0782.5957-.1563.9082-.2344.332-.0781.6445-.1562.9375-.2344.293-.0781.498-.1367.6152-.1758v.2051c.0196.0781.0293.1367.0293.1758 0 .3906-.1855.7129-.5566.9668-.3516.2539-.7715.459-1.2598.6152-.4687.1368-.957.2344-1.4648.293-.4883.0391-.8692.0586-1.1426.0586-.293 0-.5957-.0293-.9082-.0879-.293-.0781-.5567-.1953-.791-.3516-.2344-.1562-.4297-.3515-.586-.5859-.1367-.2539-.205-.5566-.205-.9082zm8.5253-17.167966c.254 0 .4883.009766.7032.029297.2148.019531.4004.068359.5566.146489.1563.07812.2832.19531.3809.35156.0976.15625.1465.37109.1465.64453v.38086c0 .13672-.0196.27344-.0586.41015-.0196.11719-.0684.22461-.1465.32227-.0781.07813-.2051.11719-.3809.11719-.2734 0-.498-.09766-.6738-.29297-.1563-.19531-.2734-.41992-.3516-.67383-.0781-.27344-.1269-.54687-.1465-.82031-.0195-.27344-.0293-.47852-.0293-.615236zm-1.296 17.753866c0-.1757 0-.3125 0-.4101 0-.0977.0097-.1856.0292-.2637.0391-.0976.0879-.1953.1465-.293.0586-.0976.1368-.2246.2344-.3808.1563-.2735.4492-.752.8789-1.4356s.8887-1.4062 1.377-2.1679c.4882-.7617.9472-1.4844 1.3769-2.168.4492-.6836.7617-1.1621.9375-1.4355.0196-.0196.0684-.0293.1465-.0293h.2051.2051c.0976 0 .1562.0097.1757.0293.0196.0195.0586.0683.1172.1464.0782.0782.1563.1661.2344.2637.0977.0781.1758.1563.2344.2344.0781.0781.1367.1172.1758.1172.1757 0 .3613-.0586.5566-.1758s.3906-.2441.5859-.3809c.2149-.1562.4297-.2929.6446-.41012.2148-.11719.4394-.17579.6738-.17579.2539 0 .4883.0586.7031.17579.2149.11722.4004.26362.5567.43942.1562.1758.2734.3711.3515.586.0977.2148.1465.4297.1465.6445 0 .4492-.0683.8789-.2051 1.2891-.1172.4101-.2539.8203-.4101 1.2304-.1563.3907-.3028.791-.4395 1.2012-.1172.3906-.1758.8008-.1758 1.2305s.0489.7422.1465.9375c.0977.1757.3711.2636.8203.2636.5274 0 1.0254-.0781 1.4942-.2343.4883-.1563.9863-.2344 1.4941-.2344 0 .4687-.1465.8594-.4394 1.1719-.2735.3125-.625.5664-1.0547.7617-.4102.1758-.8594.3027-1.3477.3808-.4687.0586-.8984.0879-1.289.0879-.7422 0-1.2891-.205-1.6407-.6152-.332-.4297-.498-.9961-.498-1.6992 0-.4688.0781-.9082.2344-1.3184.1757-.4101.3613-.8105.5566-1.2011.2148-.3907.4102-.7813.5859-1.1719.1758-.3907.2637-.8106.2637-1.2598 0-.1172-.0195-.2734-.0586-.4687-.039-.1954-.166-.293-.3808-.293-.6446 0-1.2305.2051-1.7579.6152-.5078.4102-.9765.9278-1.4062 1.5528-.4102.625-.791 1.2988-1.1426 2.0214-.332.7227-.6543 1.3965-.9668 2.0215-.2929.625-.5761 1.1426-.8496 1.5528-.2734.4101-.5566.6152-.8496.6152-.4102 0-.7422-.127-.9961-.3809s-.3808-.5761-.3808-.9668zm12.3562-1.9336c0-.371.0488-.6933.1465-.9668.1172-.2734.4004-.4101.8496-.4101.0391 0 .1269.0098.2637.0293.1562 0 .2636.0098.3222.0293-.0195.918.127 1.6113.4395 2.0801.3125.4492.8984.6738 1.7578.6738.7031 0 1.3965-.1074 2.0801-.3223.6836-.2148 1.2988-.5273 1.8457-.9375.5664-.4297 1.0156-.9472 1.3476-1.5527.3516-.6055.5274-1.2891.5274-2.0508 0-.4687-.166-.8008-.4981-.9961-.3125-.1953-.664-.3515-1.0547-.4687-.3906-.1172-.7519-.2442-1.0839-.3809-.3125-.1562-.4688-.4199-.4688-.791 0-.4492.2734-.87891.8203-1.28907.5469-.41015 1.1914-.77148 1.9336-1.08398.7422-.33203 1.4746-.58594 2.1973-.76172.7422-.19531 1.3086-.29297 1.6992-.29297 0 .56641-.127.9668-.3809 1.20117-.2343.23438-.5273.41992-.8789.55664-.3515.13672-.7129.27344-1.084.41016-.3515.11719-.6445.35156-.8789.70317.3125.2539.5664.4882.7618.7031.2148.1953.3808.4101.498.6445s.1953.4981.2344.791c.039.2735.0586.6055.0586.9961 0 1.0156-.2246 1.9434-.6739 2.7832-.4296.8203-.996 1.5332-1.6992 2.1387-.7031.5859-1.5039 1.0449-2.4023 1.3769-.8985.3125-1.8164.4688-2.7539.4688-.5078 0-1.0059-.0586-1.4942-.1758-.4687-.1367-.8886-.3418-1.2597-.6152-.3516-.2735-.6348-.6153-.8496-1.0254-.2149-.4102-.3223-.8984-.3223-1.4649z" fill="#e8d8b1"/></svg>