<svg fill="none" height="110" viewBox="0 0 115 110" width="115" xmlns="http://www.w3.org/2000/svg"><g fill="#c37e3f"><path d="m53.1228 71.1171c2.264 2.2346 6.6894 3.5388 9.73 3.0369 3.4912-.5751 11.7081-6.2534 13.0123-9.587.1978-.5056 1.5093-6.1985 1.524-6.5391.0146-.3407-2.1468-6.3999-2.363-6.7773-2.0698-3.5901-10.9021-8.5246-15.038-8.8177-10.3087-.7363-15.9651 14.855-11.3456 22.8081.3517.6045 4.0262 5.4255 4.4841 5.8797zm13.4667-.5459c-6.1728 3.0773-11.4077.392-15.8074-4.744-1.546-1.8061-2.2641-4.103-2.3594-6.3816-.1539-3.7183 1.2016-7.4403 3.374-10.382 1.0916-1.48 2.4216-2.7732 3.9858-3.7806.8939-.5751 1.4617-1.0953 2.5864-1.1943 1.2932-.1135 2.6155.099 3.8684.4909 1.773.5569 3.4179 1.469 5.0518 2.3702 1.5496.8609 3.2201 1.8061 4.2495 3.2861.9305 1.3371 1.6963 3.0955 2.2165 4.6158 1.0916 3.1908 1.3883 7.0923-.3957 9.979-.6484 1.0478-5.5208 5.1178-6.7663 5.7369z"/><path d="m92.7244 14.0746c1.6888 3.352.3883 9.0522-2.0368 11.503-2.5571 2.5863-10.2024 3.2897-13.8108 6.2497-1.7731 1.4544-2.8099 3.7183-3.1872 5.986-.2638 1.5935-.5056 5.7148 1.3077 6.638.2931.1502.6998.1245.8756-.1502.088-.1356.1062-.3077.1172-.4726.1099-1.7474-.3406-3.5498.0478-5.2533.326-1.4433 1.2235-2.6632 2.1613-3.7879.7034-.8426 1.4653-1.6778 2.4581-2.1357 1.6265-.7547 3.6194-.4616 5.3668-.8316 2.0478-.4323 4.0078-1.3335 5.6013-2.7146 3.8649-3.3483 4.3008-8.7078 2.9307-13.5691-.3773-1.3335-.2234-1.7474-1.8352-1.4617z"/><path d="m14.7858 35.4981c.0366.0806.0806.1538.1356.2125.1831.1978.5056.2417.6924.0732.1905-.1758.1831-.4872.1721-.7583-.022-.5605.011-1.121.0915-1.6705.0697-.4652.1868-.9451.4909-1.2822.6301-.696 1.9271-.5788 2.8099-.652 2.5388-.2089 4.8062 1.0074 6.6306 2.8904 1.9416 2.0002 3.385 4.4473 4.92 6.7552 1.403 2.1138 2.9343 4.407 5.092 5.7735.9818.6228 2.0846.9928 3.2165 1.0294.6375.022 1.2711-.0586 1.8829-.2088.348-.0843.6888-.1942 1.0258-.3187.1979-.0733.9561-.2638 1.0404-.4543.9488-2.1211-4.9566.414-7.9898-2.8098-.762-.8096-5.9309-7.9275-7.2094-9.5321-.1576-.1978-.3188-.392-.4873-.5825-2.0661-2.3482-5.1435-4.6671-8.239-4.8686-1.2895-.0842-2.5167.3334-3.2897 1.3884-.4543.6191-.718 1.3738-.8718 2.1431-.1246.6191-.4506 2.1431-.1172 2.8721z"/><path d="m45.0895 5.98604c-.0147.07693-.0001.19049.0585.35534.1429.40297.5971.70337.9012.96347.6007.52019 1.2053 1.04039 1.7805 1.59356 1.1356 1.0807 2.2968 2.13209 3.3482 3.31539 1.5313 1.7254 2.2529 4.1615 2.3738 6.4255.0477.8975.055 1.7951.022 2.6853-.022.6044-.0658 1.2199-.2783 1.773-.1905.4946-.502.9195-.7438 1.3848-.6008 1.1686-.7143 2.5497-.7033 3.8941.011 1.4251.1612 2.9014.8463 4.1653.6374 1.1759 1.0549 2.2859 2.132 3.1029.4029.304.806.5385 1.2786.6777.2271.0659 1.6302.403 1.1357-.1758-1.132-1.3225-2.3776-2.3263-3.0297-4.0114-.4872-1.2602-.5862-2.6084-.469-3.9272.2235-2.5387 1.1101-4.9419 1.502-7.4586.4323-2.7805.1503-5.5756-1.3297-8.0814-1.2016-2.0368-2.949-3.81721-4.8686-5.1287-.9892-.67772-2.0295-1.1796-3.1542-1.54227-.3443-.10991-.7547-.2711-.806-.00733z"/><path d="m89.1374 69.2083 5.6086 2.623c6.089 3.9125 2.7256 12.4737 7.587 17.2105 2.799 2.7219 5.77 3.2091 9.536 2.9527 1.586-1.2822-5.961-4.2276-6.452-4.5463-5.8134-3.7366-3.458-6.6893-5.092-11.8913-1.0694-3.4032-7.4032-7.7627-11.1838-6.3523z"/><path d="m52.4931 79.6489c.1209 1.5936 1.4434 2.4618 1.9013 4.114 2.0112 7.2938-4.3412 9.7446-4.6819 15.1993-.2308 3.6598.1576 8.2868 3.7916 10.5398.403-3.473-1.4067-6.895-.9854-10.3822.4616-3.7843 4.6634-7.5393 4.3667-12.1441-.0733-1.1576-3.0406-8.8104-4.3887-7.3268z"/><path d="m38.1794 64.8089c-.2418 8.7115-10.0815 5.4364-15.811 5.9713-3.3886.315-7.7738 5.7002-5.9165 9.4881 1.3994-1.5716 4.9456-6.704 6.8579-7.2571 4.1763-1.209 9.1219 2.2969 13.9868-2.0625 1.3188-1.1833 5.4657-6.8615.8828-6.1398z"/><path d="m73.8355 75.9232c.5678 1.6265 2.4508 1.1319 3.4802 2.557 1.5532 2.1431 2.6597 7.0813 2.3007 9.6346-.1832 1.2969-1.198 2.308-1.264 3.4766-.1868 3.3263 5.3083 10.5946 9.1658 10.7596 1.077-.964-5.5574-6.8142-6.0592-8.2905-.9415-2.7658.5531-4.9858.2014-7.8543-.37-3.0149-3.6633-11.3821-7.8249-10.283z"/><path d="m.00008774 53.0418c2.83911226-.1282 6.41448226-2.4874 9.16933226-2.4801 2.56438.0037 4.94568 2.6193 7.15468 3.7879 2.927 1.5496 6.6489 1.0551 9.4917-.0915.1795-.0733.37-.1612.447-.3407.1428-.3298-.2234-.7217-.5825-.7693-.359-.0477-.696.1245-1.0294.2381-5.169 1.806-8.869-4.6855-13.723-5.0811-2.63025-.2162-9.44057 2.2823-10.92423408 4.7367z"/><path d="m88.2218 54.7307c-.2089.1026-.4176.2052-.6265.3114-.7839.392-1.5679.7876-2.3518 1.1796-.1502.0769-.3077.1539-.3993.2784-.2198.2968.0623.7364.4909.8976.4286.1611.9195.0952 1.3115-.0586.392-.1539.7142-.392 1.0732-.5899 1.2126-.6667 2.777-.8425 4.3083-.74 1.6338.1063 2.4947.5825 3.8612 1.2969 2.6999 1.414 5.3847 3.3373 8.6457 3.7073 3.432.392 8.913-1.077 9.111-4.1396-5.14 3.0406-7.668 2.6413-13.606.2051-3.0517-1.2528-5.8322-4.0846-9.4553-3.242-.8499.1978-1.6193.5312-2.3629.8938z"/><path d="m38.0881 84.5837c-6.246 4.8247-11.5322 5.7259-7.8249 16.2693 4.1653-.821.6594-7.7409 1.8684-10.7119 1.0404-2.5497 7.7626-3.2311 8.1545-7.3084-1.6521-.4726-1.5238 1.2308-2.2016 1.7547z"/><path d="m70.4763.00366695 1.2199 4.08099305c.7877 4.88693-5.0518 6.96044-5.2276 11.57624-.0989 2.6523 1.0074 4.3887 2.8391 6.1948 1.3591.2344-.5752-4.9309-.6375-5.3229-.7583-4.6562 1.7988-4.7551 3.6745-7.90922 1.2272-2.06248.5568-7.27912-1.8684-8.62358z"/><path d="m97.373 41.4913c1.894-.3554 4.158-2.2603 6.001-2.5167 1.714-.2382 3.451 1.2748 4.993 1.8426 2.044.7547 4.506.0733 6.341-.9598.114-.0659.238-.1428.279-.2674.076-.2308-.191-.4579-.433-.4579s-.458.1465-.674.2564c-3.352 1.6888-6.191-2.2713-9.455-2.0771-1.769.1062-6.1911 2.4068-7.052 4.1799z"/></g></svg>