<svg fill="none" height="16" viewBox="0 0 151 16" width="151" xmlns="http://www.w3.org/2000/svg"><path d="m9.79805 15.0195c-.2474 0-.47526-.0455-.68359-.1367-.19532-.0911-.35808-.2213-.48829-.3906-.1302-.1693-.22135-.3581-.27343-.5664-.05209-.2214-.04558-.4557.01953-.7031 0-.4167.07161-.8008.21484-1.1524.15625-.3646.32552-.7096.50781-1.0351.19532-.3386.36459-.6706.50782-.9961.15625-.33858.23437-.69665.23437-1.07426-.28646 0-.59245.09115-.91797.27344s-.65755.42318-.99609.72266c-.32552.29946-.65104.63806-.97656 1.01566-.3125.3645-.61198.7356-.89844 1.1132-.27344.3646-.51432.7162-.72266 1.0547-.19531.3386-.34505.6185-.44922.8399-.02604.013-.09114.026-.19531.039-.10416 0-.16927 0-.19531 0-.20833.1042-.33854.1042-.39063 0-.03906-.1172-.03906-.2929 0-.5273.05209-.2344.13021-.4948.23438-.7813.10417-.2994.20182-.5794.29297-.8398.10417-.2734.18229-.4948.23437-.6641.05209-.1823.0586-.2734.01953-.2734.03907-.0521.08464-.1367.13672-.2539.05209-.1172.10417-.2409.15625-.3711.05209-.1302.09766-.2474.13672-.35156.03906-.11719.0586-.20834.0586-.27344 0-.11719-.04558-.1888-.13672-.21484-.07813-.03907-.15625-.0586-.23438-.0586-.23437-.13021-.48828-.05208-.76172.23438-.26041.27344-.54687.67056-.85937 1.19136-.29948.5079-.63151 1.0938-.9961 1.7579-.35156.651-.74218 1.2825-1.17187 1.8945-.299479 0-.527344-.0391-.683594-.1172s-.234375-.2734-.234375-.5859c.104167-.1433.260417-.4102.46875-.8008.208334-.4037.442709-.8464.703129-1.3281.26041-.4818.53385-.9701.82031-1.4649.29948-.49478.57943-.91145.83984-1.24999.27344-.35156.51433-.58593.72266-.70312.22135-.13021.39713-.07162.52734.17578.22136-.14323.46224-.26693.72266-.37109.27344-.10417.54687-.15626.82031-.15626.18229 0 .33203.0586.44922.17579.13021.10416.22786.24088.29297.41015.07812.15625.13672.32552.17578.50782.03906.16927.05859.31901.05859.44921.14323-.09114.37761-.24739.70313-.46875.33854-.23437.69661-.46875 1.07422-.70312.39062-.23438.76823-.4362 1.13281-.60547.37765-.18229.68355-.27344.91795-.27344.2084 0 .3841.07813.5274.23438.1562.14323.2343.32552.2343.54687-.4687 1.14584-.8398 2.06384-1.1132 2.75394-.2605.6901-.43624 1.2304-.52739 1.6211-.07812.3776-.07812.651 0 .8203.09115.1562.24739.2799.46879.3711.3515 0 .6901-.0586 1.0156-.1758s.6445-.2474.957-.3906c.3255-.1433.6511-.2735.9766-.3907s.6706-.1757 1.0351-.1757c0 .1432-.039.2799-.1172.4101-.0651.1172-.1692.2083-.3125.2734-.1041.0652-.2929.1693-.5664.3126-.2604.1302-.5468.2734-.8593.4296-.3125.1433-.612.2865-.8985.4297-.2734.1433-.4687.2409-.5859.293-.2604.1172-.4622.1953-.6055.2344-.1302.026-.3125.039-.54685.039zm3.86245-1.289c.1172-.7422.3386-1.4258.6641-2.0508s.6966-1.1654 1.1133-1.6211c.4297-.46876.8919-.85287 1.3867-1.15235s.9766-.48828 1.4453-.56641c.4688-.09114.8985-.07161 1.2891.0586.4036.13021.7292.39062.9765.78125 0 .29948-.0716.58593-.2148.85941-.1302.2734-.2799.5468-.4492.8203-.1563.2734-.306.5534-.4492.8398-.1302.2865-.1953.5925-.1953.918 0 .3385.0716.612.2148.8203.1562.1953.4232.293.8008.293.3125 0 .612-.0456.8984-.1367.2995-.0912.599-.1368.8985-.1368.052 0 .1367.0065.2539.0196h.2539c-.1563.2213-.3581.4101-.6055.5664-.2474.1562-.5078.2929-.7813.4101-.2734.1042-.5598.1823-.8593.2344-.2865.0521-.5534.0781-.8008.0781-.2344 0-.4427-.0521-.625-.1562-.1823-.1042-.3385-.2409-.4688-.4102-.1302-.1693-.2343-.3581-.3125-.5664-.0651-.2213-.0976-.4362-.0976-.6445-.1953.2213-.4102.4557-.6445.7031-.2214.2344-.4623.4492-.7227.6445-.2474.1953-.5208.3581-.8203.4883-.2865.1302-.586.1953-.8985.1953-.3385 0-.6315-.1237-.8789-.3711-.2474-.2604-.3711-.5664-.3711-.9179zm1.2891-.6055v.3516c.013.1302.0977.2148.2539.2539.3255-.0782.6966-.2474 1.1133-.5078.4167-.2735.8073-.586 1.1719-.9375.3646-.3646.6705-.7487.9179-1.1524.2474-.4167.3711-.8138.3711-1.19139 0-.02605-.0065-.06511-.0195-.11719 0-.06511 0-.11068 0-.13672-.4427 0-.8919.09115-1.3477.27344-.4557.18226-.8658.43616-1.2304.76176-.3646.3125-.6641.677-.8985 1.0937-.2213.4167-.332.8529-.332 1.3086zm9.5266-.8984c-.1563.2083-.2865.4427-.3906.7031-.1042.2604-.2214.5078-.3516.7422-.1302.2343-.2865.4297-.4688.5859-.1823.1563-.4231.2344-.7226.2344-.2474 0-.4167-.0391-.5078-.1172-.0912-.0911-.1367-.2669-.1367-.5273 0-.3125.0846-.6576.2539-1.0352.1822-.3776.3971-.7422.6445-1.0937.2474-.3646.5013-.7032.7617-1.0157s.4753-.5664.6445-.76169l3.6133-7.8125c.0912-.22136.2539-.42969.4883-.625.2474-.19532.5013-.29297.7617-.29297v.64453l-2.0703 4.78515v.46876c.2214 0 .4297-.03256.625-.09766.1953-.07813.3906-.16276.5859-.25391.1954-.09114.3972-.16927.6055-.23437.2214-.07813.4623-.11719.7227-.11719.2343.15625.358.35156.3711.58594.013.22135-.0456.46875-.1758.74219-.1302.26041-.3125.52734-.5469.80078-.2213.27343-.4557.54036-.7031.80078-.2474.24739-.4883.46875-.7227.66406-.2213.1953-.3906.3451-.5078.4492-.1953.1563-.3776.2669-.5469.332-.1562.0521-.2929.1042-.4101.1563s-.2084.1302-.2735.2344c-.052.1041-.0781.2799-.0781.5273 0 .3646.0977.6641.293.8985.1953.2213.4492.3971.7617.5273.3255.1302.6836.2214 1.0742.2734.4037.0391.8073.0586 1.211.0586.4036 0 .7877-.013 1.1523-.039.3646-.0391.6771-.0782.9375-.1172l.2344.2344c-.1432.1953-.3646.3841-.6641.5664-.2864.1692-.6054.3255-.957.4687-.3386.1302-.6771.2409-1.0156.332-.3386.0782-.6185.1172-.8399.1172-.4166 0-.8203-.0651-1.2109-.1953-.3906-.1432-.7487-.3385-1.0742-.5859-.3256-.2474-.612-.5404-.8594-.8789-.2344-.3516-.4037-.7292-.5078-1.1328zm3.8476-4.39457c-.1172 0-.2929.04557-.5273.13672s-.4688.20833-.7031.35156c-.2344.14323-.4362.29948-.6055.46875s-.2539.33854-.2539.50782v.13671c.0911-.03906.2474-.10416.4687-.19531.2344-.09114.4688-.20182.7032-.33203.2474-.14323.4622-.30599.6445-.48828s.2734-.37761.2734-.58594zm2.6907 6.15237c-.2214-.4948-.3191-.9766-.293-1.4453.026-.4818.1302-.931.3125-1.3477.1953-.4297.4427-.8138.7422-1.1523.3125-.3516.6445-.65108.9961-.89848.3515-.26041.7031-.45572 1.0547-.58593.3645-.13021.6836-.18229.957-.15625.2734.01302.4883.11067.6445.29297.1563.18229.2084.46224.1563.83984 0 .50785-.1628.95055-.4883 1.32815-.3125.3776-.6641.7161-1.0547 1.0156-.3776.2995-.7292.5729-1.0547.8203-.3125.2344-.4687.4557-.4687.6641 0 .1172.0651.2083.1953.2734.1432.0651.306.1172.4883.1563.1822.026.3645.0455.5468.0586.1823.013.3125.026.3907.039 1.2239-.2604 2.1419-.4166 2.7539-.4687.6119-.0651.9961-.0586 1.1523.0195.1563.0651.1237.1758-.0976.332-.2084.1433-.5339.2995-.9766.4688-.4427.1562-.957.2995-1.543.4297-.5859.1302-1.1653.2083-1.7383.2343-.5729.0131-1.1067-.0455-1.6015-.1757-.4818-.1302-.8399-.3776-1.0742-.7422zm3.4179-4.45315c-.2604 0-.5078.07161-.7422.21484-.2343.14323-.4492.32551-.6445.54691-.1823.2083-.3385.4427-.4687.7031-.1303.2474-.2279.4818-.293.7031.026.013.0456.0196.0586.0196h.0586c.1823 0 .3906-.0782.625-.2344.2344-.1563.4557-.3451.664-.5664.2084-.2344.3842-.4753.5274-.7227.1432-.24738.2148-.46874.2148-.66405zm12.9203 4.19925c.1172-.7422.3386-1.4258.6641-2.0508s.6966-1.1654 1.1133-1.6211c.4297-.46876.8919-.85287 1.3867-1.15235s.9766-.48828 1.4453-.56641c.4688-.09114.8984-.07161 1.2891.0586.4036.13021.7291.39062.9765.78125 0 .29948-.0716.58593-.2148.85941-.1302.2734-.28.5468-.4492.8203-.1563.2734-.306.5534-.4492.8398-.1303.2865-.1954.5925-.1954.918 0 .3385.0717.612.2149.8203.1562.1953.4232.293.8008.293.3125 0 .6119-.0456.8984-.1367.2995-.0912.599-.1368.8984-.1368.0521 0 .1368.0065.2539.0196h.254c-.1563.2213-.3581.4101-.6055.5664-.2474.1562-.5078.2929-.7813.4101-.2734.1042-.5599.1823-.8593.2344-.2865.0521-.5534.0781-.8008.0781-.2344 0-.4427-.0521-.625-.1562-.1823-.1042-.3386-.2409-.4688-.4102s-.2343-.3581-.3125-.5664c-.0651-.2213-.0976-.4362-.0976-.6445-.1953.2213-.4102.4557-.6446.7031-.2213.2344-.4622.4492-.7226.6445-.2474.1953-.5208.3581-.8203.4883-.2865.1302-.586.1953-.8985.1953-.3385 0-.6315-.1237-.8789-.3711-.2474-.2604-.3711-.5664-.3711-.9179zm1.2891-.6055v.3516c.013.1302.0977.2148.2539.2539.3255-.0782.6966-.2474 1.1133-.5078.4167-.2735.8073-.586 1.1719-.9375.3645-.3646.6705-.7487.9179-1.1524.2474-.4167.3711-.8138.3711-1.19139 0-.02605-.0065-.06511-.0195-.11719 0-.06511 0-.11068 0-.13672-.4427 0-.8919.09115-1.3477.27344-.4557.18226-.8658.43616-1.2304.76176-.3646.3125-.6641.677-.8985 1.0937-.2213.4167-.332.8529-.332 1.3086zm20.9281.3711c0-.3906.0781-.7487.2344-1.0742.1693-.3386.3516-.6576.5469-.9571.1953-.2994.3711-.5989.5273-.8984.1693-.2995.2539-.61848.2539-.95702 0-.07813-.0065-.16928-.0195-.27344 0-.11719-.013-.22787-.0391-.33203-.013-.10417-.0521-.18881-.1172-.25391-.052-.07812-.1237-.11719-.2148-.11719-.013 0-.0391.00651-.0781.01953-.0261 0-.0391.00651-.0391.01954-.1823.24739-.4036.52734-.6641.83984-.2473.29948-.5143.59898-.8007.89848-.2865.2994-.5664.5859-.8399.8593-.2734.2735-.5208.5013-.7422.6836-.1562.1433-.3711.3386-.6445.586-.2604.2474-.5273.4948-.8008.7421-.2604.2344-.4948.4428-.7031.625-.1953.1823-.306.2735-.332.2735l-.8985-.7617c.1172 0 .2344-.0261.3516-.0782.1042-.052.2083-.1106.3125-.1757.7812-.5209 1.4844-1.1198 2.1094-1.7969.638-.6771 1.263-1.40626 1.875-2.18751.026-.03907.0911-.14974.1953-.33203.1172-.19532.2409-.41016.3711-.64454.1302-.24739.2604-.48828.3906-.72265.1302-.2474.2279-.44271.293-.58594.0781-.16927.1237-.30599.1367-.41015.026-.10417.0456-.1823.0586-.23438.026-.0651.0651-.11068.1172-.13672s.1627-.03906.332-.03906c.026 0 .0846.00651.1758.01953.1041.01302.1693.02604.1953.03906.1693.35157.319.66407.4492.9375.1302.27344.2409.53386.332.78125.0912.23438.1563.47526.1954.72266.052.24739.0781.52083.0781.82031-.1693.42969-.3581.87237-.5664 1.32817-.2084.4427-.3841.8658-.5274 1.2695-.1432.4036-.2343.7682-.2734 1.0937-.026.3256.0456.586.2148.7813.1823.1823.4818.2799.8985.293.4297.013 1.0351-.0977 1.8164-.3321.2083.1042.2278.2344.0586.3907-.1693.1432-.4297.2799-.7813.4101-.3385.1302-.7161.2409-1.1328.332-.4036.0782-.7422.0977-1.0156.0586-.2474 0-.4557-.039-.625-.1172-.1563-.0911-.2865-.2083-.3906-.3515-.0912-.1432-.1628-.306-.2149-.4883-.039-.1823-.0586-.3711-.0586-.5664zm3.1789.4883c-.2213-.4948-.319-.9766-.2929-1.4453.026-.4818.1302-.931.3125-1.3477.1953-.4297.4427-.8138.7422-1.1523.3125-.3516.6445-.65108.996-.89848.3516-.26041.7032-.45572 1.0547-.58593.3646-.13021.6836-.18229.9571-.15625.2734.01302.4882.11067.6445.29297.1562.18229.2083.46224.1562.83984 0 .50785-.1627.95055-.4882 1.32815-.3125.3776-.6641.7161-1.0547 1.0156-.3776.2995-.7292.5729-1.0547.8203-.3125.2344-.4688.4557-.4688.6641 0 .1172.0651.2083.1954.2734.1432.0651.3059.1172.4882.1563.1823.026.3646.0455.5469.0586.1823.013.3125.026.3906.039 1.224-.2604 2.142-.4166 2.7539-.4687.612-.0651.9961-.0586 1.1524.0195.1562.0651.1237.1758-.0977.332-.2083.1433-.5338.2995-.9765.4688-.4427.1562-.9571.2995-1.543.4297s-1.1654.2083-1.7383.2343c-.5729.0131-1.1068-.0455-1.6015-.1757-.4818-.1302-.8399-.3776-1.0743-.7422zm3.418-4.45315c-.2604 0-.5078.07161-.7422.21484s-.4492.32551-.6445.54691c-.1823.2083-.3386.4427-.4688.7031-.1302.2474-.2278.4818-.2929.7031.026.013.0455.0196.0586.0196h.0586c.1822 0 .3906-.0782.625-.2344.2343-.1563.4557-.3451.664-.5664.2083-.2344.3841-.4753.5274-.7227.1432-.24738.2148-.46874.2148-.66405zm3.0031 3.30075c0-.2474.0326-.4622.0977-.6445.0781-.1823.2669-.2734.5664-.2734.026 0 .0846.0065.1758.0195.1041 0 .1757.0065.2148.0195-.013.612.0846 1.0742.293 1.3867.2083.2995.5989.4493 1.1719.4493.4687 0 .9309-.0717 1.3867-.2149.4557-.1432.8659-.3515 1.2304-.625.3776-.2864.6771-.6315.8985-1.0351.2344-.4037.3515-.8594.3515-1.3672 0-.3125-.1106-.5339-.332-.66409-.2083-.13021-.4427-.23437-.7031-.3125-.2604-.07812-.5013-.16276-.7227-.2539-.2083-.10417-.3125-.27995-.3125-.52735 0-.29948.1823-.58594.5469-.85937.3646-.27344.7943-.51433 1.2891-.72266.4948-.22135.983-.39062 1.4648-.50781.4948-.13021.8724-.19531 1.1328-.19531 0 .3776-.0846.64453-.2539.80078-.1562.15625-.3515.27995-.5859.37109-.2344.09115-.4753.18229-.7227.27344-.2344.07812-.4297.23437-.5859.46875.2083.16927.3776.32552.5078.46875.1432.13021.2539.27344.332.42969.0782.15625.1302.33203.1563.52734.026.18225.039.40365.039.66405 0 .6771-.1497 1.2956-.4492 1.8555-.2864.5469-.664 1.0221-1.1328 1.4258-.4687.3906-1.0026.6966-1.6016.9179-.5989.2084-1.2109.3125-1.8359.3125-.3385 0-.6706-.039-.9961-.1172-.3125-.0911-.5924-.2278-.8398-.4101-.2344-.1823-.4232-.4102-.5664-.6836-.1433-.2734-.2149-.599-.2149-.9766zm9.2336 1.1524c-.2213-.4948-.319-.9766-.293-1.4453.0261-.4818.1303-.931.3125-1.3477.1954-.4297.4428-.8138.7422-1.1523.3125-.3516.6446-.65108.9961-.89848.3516-.26041.7032-.45572 1.0547-.58593.3646-.13021.6836-.18229.957-.15625.2735.01302.4883.11067.6446.29297.1562.18229.2083.46224.1562.83984 0 .50785-.1627.95055-.4883 1.32815-.3125.3776-.664.7161-1.0546 1.0156-.3776.2995-.7292.5729-1.0547.8203-.3125.2344-.4688.4557-.4688.6641 0 .1172.0651.2083.1953.2734.1433.0651.306.1172.4883.1563.1823.026.3646.0455.5469.0586.1823.013.3125.026.3906.039 1.224-.2604 2.1419-.4166 2.7539-.4687.612-.0651.9961-.0586 1.1524.0195.1562.0651.1237.1758-.0977.332-.2083.1433-.5338.2995-.9766.4688-.4427.1562-.957.2995-1.5429.4297-.586.1302-1.1654.2083-1.7383.2343-.5729.0131-1.1068-.0455-1.6016-.1757-.4817-.1302-.8398-.3776-1.0742-.7422zm3.418-4.45315c-.2604 0-.5078.07161-.7422.21484s-.4492.32551-.6445.54691c-.1823.2083-.3386.4427-.4688.7031-.1302.2474-.2278.4818-.293.7031.0261.013.0456.0196.0586.0196h.0586c.1823 0 .3907-.0782.625-.2344.2344-.1563.4558-.3451.6641-.5664.2083-.2344.3841-.4753.5273-.7227.1433-.24738.2149-.46874.2149-.66405zm7.3 3.96485c0-.3906.0781-.7487.2344-1.0742.1692-.3386.3515-.6576.5468-.9571.1953-.2994.3713-.5989.5273-.8984.169-.2995.254-.61848.254-.95702 0-.07813-.007-.16928-.02-.27344 0-.11719-.013-.22787-.039-.33203-.013-.10417-.052-.18881-.117-.25391-.052-.07812-.123-.11719-.215-.11719-.013 0-.039.00651-.078.01953-.026 0-.039.00651-.039.01954-.1821.24739-.4035.52734-.6639.83984-.2474.29948-.5143.59898-.8008.89848-.2864.2994-.5664.5859-.8398.8593-.2734.2735-.5208.5013-.7422.6836-.1562.1433-.3711.3386-.6445.586-.2604.2474-.5274.4948-.8008.7421-.2604.2344-.4948.4428-.7031.625-.1953.1823-.306.2735-.3321.2735l-.8984-.7617c.1172 0 .2344-.0261.3516-.0782.1041-.052.2083-.1106.3125-.1757.7812-.5209 1.4843-1.1198 2.1093-1.7969.6381-.6771 1.2631-1.40626 1.875-2.18751.0261-.03907.0912-.14974.1953-.33203.1172-.19532.2409-.41016.3711-.64454.1302-.24739.2605-.48828.3907-.72265.1302-.2474.2278-.44271.2929-.58594.0782-.16927.1237-.30599.1368-.41015.026-.10417.0455-.1823.0585-.23438.0261-.0651.0652-.11068.1172-.13672.0517-.02604.1627-.03906.3317-.03906.026 0 .085.00651.176.01953.104.01302.169.02604.195.03906.17.35157.319.66407.45.9375.13.27344.241.53386.332.78125.091.23438.156.47526.195.72266.052.24739.078.52083.078.82031-.169.42969-.358.87237-.566 1.32817-.209.4427-.384.8658-.528 1.2695-.143.4036-.234.7682-.273 1.0937-.026.3256.046.586.215.7813.182.1823.482.2799.898.293.43.013 1.035-.0977 1.817-.3321.208.1042.228.2344.058.3907-.169.1432-.429.2799-.781.4101-.339.1302-.716.2409-1.133.332-.403.0782-.742.0977-1.015.0586-.248 0-.4562-.039-.6254-.1172-.1563-.0911-.2865-.2083-.3907-.3515-.0911-.1432-.1627-.306-.2148-.4883-.0391-.1823-.0586-.3711-.0586-.5664zm3.1005.2734c0-.039 0-.0911 0-.1562.013-.0781.02-.1237.02-.1367.039-.3907.084-.8855.137-1.4844.052-.612.104-1.1979.156-1.7578.065-.55992.117-1.04169.156-1.44534.039-.41666.059-.625.059-.625l.527-.50781c.221.0651.384.15625.488.27344.104.10416.176.22135.215.35156s.059.27344.059.42969v.46875c0 .54687-.052 1.08071-.157 1.60151-.091.5079-.136 1.0287-.136 1.5626v.1953c.013.0911.019.1497.019.1757l4.805-5.05855c.013-.01302.045-.01953.098-.01953h.136c.131 0 .254.02604.371.07812.118.05209.176.16276.176.33204 0 .01302-.006.02604-.019.03906v.01953.05859c-.065.10417-.183.27344-.352.50782-.156.23437-.332.48828-.527.76171-.183.27344-.358.53386-.528.78121-.169.2344-.286.3972-.351.4883-.222.2735-.482.599-.781.9766-.287.3776-.599.7617-.938 1.1523-.325.3776-.67.7422-1.035 1.0938-.352.3385-.703.612-1.055.8203-.065.0391-.163.0911-.293.1562-.117.0651-.182.0977-.195.0977-.143 0-.28-.0391-.41-.1172-.117-.0911-.228-.2018-.332-.332-.091-.1302-.17-.2604-.235-.3906-.052-.1433-.078-.2735-.078-.3907zm7.749-.039c.118-.7422.339-1.4258.665-2.0508.325-.625.696-1.1654 1.113-1.6211.43-.46876.892-.85287 1.387-1.15235.494-.29948.976-.48828 1.445-.56641.469-.09114.898-.07161 1.289.0586.404.13021.729.39062.976.78125 0 .29948-.071.58593-.214.85941-.131.2734-.28.5468-.45.8203-.156.2734-.306.5534-.449.8398-.13.2865-.195.5925-.195.918 0 .3385.072.612.215.8203.156.1953.423.293.801.293.312 0 .611-.0456.898-.1367.299-.0912.599-.1368.898-.1368.052 0 .137.0065.254.0196h.254c-.156.2213-.358.4101-.605.5664-.248.1562-.508.2929-.782.4101-.273.1042-.559.1823-.859.2344-.286.0521-.553.0781-.801.0781-.234 0-.442-.0521-.625-.1562-.182-.1042-.338-.2409-.468-.4102-.131-.1693-.235-.3581-.313-.5664-.065-.2213-.098-.4362-.098-.6445-.195.2213-.41.4557-.644.7031-.221.2344-.462.4492-.723.6445-.247.1953-.521.3581-.82.4883-.287.1302-.586.1953-.899.1953-.338 0-.631-.1237-.878-.3711-.248-.2604-.372-.5664-.372-.9179zm1.29-.6055v.3516c.013.1302.097.2148.253.2539.326-.0782.697-.2474 1.114-.5078.416-.2735.807-.586 1.172-.9375.364-.3646.67-.7487.918-1.1524.247-.4167.371-.8138.371-1.19139 0-.02605-.007-.06511-.02-.11719 0-.06511 0-.11068 0-.13672-.443 0-.892.09115-1.348.27344-.455.18226-.865.43616-1.23.76176-.365.3125-.664.677-.898 1.0937-.222.4167-.332.8529-.332 1.3086zm6.714-.0195c0-.3776.071-.7552.214-1.1328.144-.3776.313-.7487.508-1.1133.196-.3776.391-.7487.586-1.11331.209-.36458.365-.72265.469-1.07421-.247.14322-.462.22786-.645.2539-.169.01302-.377.01953-.625.01953-.026 0-.11 0-.253 0-.131-.01302-.215-.01953-.254-.01953.078-.28646.221-.54036.429-.76172.209-.23437.443-.42968.703-.58594.274-.16927.554-.30598.84-.41015.3-.11719.567-.20833.801-.27344.391-.61198.71-1.22396.957-1.83594.247-.625.495-1.23047.742-1.8164.261-.59896.56-1.16537.899-1.69922.351-.546876.82-1.048178 1.406-1.5039075l.098.7421875-2.442 5.72266c.143-.03907.319-.07813.528-.11719.208-.03906.416-.07813.625-.11719.221-.03906.429-.07161.625-.09765.208-.03907.384-.07813.527-.11719h.117c.065-.01302.117-.01953.156-.01953.183 0 .332.03255.45.09765.117.06511.214.20834.293.42969-.886.26042-1.687.53385-2.403.82031s-1.341.66407-1.875 1.13281c-.521.45573-.95 1.04167-1.289 1.75778-.325.7032-.553 1.6081-.683 2.7149 0 .2344.013.4492.039.6445s.188.3125.488.3516c.299 0 .579-.0586.84-.1758.26-.1172.514-.2409.761-.3711.248-.1432.495-.2734.743-.3906.26-.1172.54-.1758.839-.1758 0 .3125-.136.599-.41.8594-.273.2604-.605.4883-.996.6836-.377.1953-.768.345-1.172.4492-.403.1041-.735.1562-.996.1562-.26 0-.495-.0521-.703-.1562-.208-.1042-.384-.2409-.527-.4102-.13-.1823-.235-.3906-.313-.625-.065-.2343-.097-.4752-.097-.7226zm9.37.3906c0-.3906.078-.7487.234-1.0742.17-.3386.352-.6576.547-.9571.195-.2994.371-.5989.528-.8984.169-.2995.253-.61848.253-.95702 0-.07813-.006-.16928-.019-.27344 0-.11719-.013-.22787-.039-.33203-.013-.10417-.052-.18881-.117-.25391-.052-.07812-.124-.11719-.215-.11719-.013 0-.039.00651-.078.01953-.026 0-.039.00651-.039.01954-.183.24739-.404.52734-.664.83984-.248.29948-.515.59898-.801.89848-.287.2994-.567.5859-.84.8593-.274.2735-.521.5013-.742.6836-.157.1433-.371.3386-.645.586-.26.2474-.527.4948-.801.7421-.26.2344-.494.4428-.703.625-.195.1823-.306.2735-.332.2735l-.898-.7617c.117 0 .234-.0261.351-.0782.105-.052.209-.1106.313-.1757.781-.5209 1.484-1.1198 2.109-1.7969.638-.6771 1.263-1.40626 1.875-2.18751.026-.03907.091-.14974.196-.33203.117-.19532.24-.41016.371-.64454.13-.24739.26-.48828.39-.72265.131-.2474.228-.44271.293-.58594.078-.16927.124-.30599.137-.41015.026-.10417.046-.1823.059-.23438.026-.0651.065-.11068.117-.13672s.163-.03906.332-.03906c.026 0 .084.00651.176.01953.104.01302.169.02604.195.03906.169.35157.319.66407.449.9375.13.27344.241.53386.332.78125.091.23438.156.47526.195.72266.053.24739.079.52083.079.82031-.17.42969-.358.87237-.567 1.32817-.208.4427-.384.8658-.527 1.2695-.143.4036-.235.7682-.274 1.0937-.026.3256.046.586.215.7813.183.1823.482.2799.899.293.429.013 1.035-.0977 1.816-.3321.208.1042.228.2344.059.3907-.17.1432-.43.2799-.782.4101-.338.1302-.716.2409-1.132.332-.404.0782-.743.0977-1.016.0586-.247 0-.456-.039-.625-.1172-.156-.0911-.286-.2083-.391-.3515-.091-.1432-.162-.306-.214-.4883-.04-.1823-.059-.3711-.059-.5664zm2.964.2344c0-.1823.02-.3386.059-.4688.039-.1432.11-.3255.214-.5469.092-.1302.254-.3776.489-.7421.247-.3646.501-.7487.761-1.1524.274-.4036.528-.7812.762-1.1328.248-.36458.417-.61849.508-.76172.117-.16927.208-.26042.273-.27344.066-.01302.189-.01953.371-.01953.118 0 .241.00651.372.01953.143.01302.234.10417.273.27344-.182.44271-.43.86589-.742 1.26952-.3.3906-.599.7813-.899 1.1719-.286.3906-.54.7943-.761 1.2109-.222.4037-.332.8399-.332 1.3086.052 0 .13.0065.234.0195.117.0131.241.0261.371.0391s.248.0261.352.0391c.117.013.202.013.254 0 .078-.013.208-.0391.39-.0782.196-.052.397-.1041.606-.1562.221-.0521.429-.1042.625-.1562.195-.0521.332-.0912.41-.1172v.1367c.013.0521.019.0911.019.1172 0 .2604-.123.4752-.371.6445-.234.1693-.514.306-.84.4102-.312.0911-.638.1562-.976.1953-.326.026-.58.039-.762.039-.195 0-.397-.0195-.605-.0586-.196-.052-.371-.1302-.528-.2343-.156-.1042-.286-.2344-.39-.3907-.091-.1692-.137-.3711-.137-.6054zm5.684-11.44534c.169 0 .325.00651.468.01953.144.01302.267.04557.371.09765.105.05209.189.13021.254.23438s.098.24739.098.42969v.2539c0 .09115-.013.18229-.039.27344-.013.07813-.046.14974-.098.21484-.052.05209-.136.07813-.254.07813-.182 0-.332-.06511-.449-.19531-.104-.13021-.182-.27995-.234-.44922-.052-.18229-.085-.36459-.098-.54688s-.019-.31901-.019-.41015zm-1.001 11.07424c0-.0521 0-.1563 0-.3125.013-.1693.019-.28.019-.3321.417-.9505.951-1.8294 1.602-2.6367.651-.80727 1.387-1.52341 2.207-2.14841.026 0 .065-.00651.117-.01953.065-.02605.111-.03907.137-.03907.351 0 .638.07813.859.23438.235.14323.417.33854.547.58594.143.23437.241.5013.293.80078.052.28646.078.56641.078.83981 0 .5078-.117 1.0417-.351 1.6016-.235.5469-.554 1.0547-.957 1.5234-.391.4558-.84.8334-1.348 1.1328-.508.2865-1.035.4297-1.582.4297s-.957-.1432-1.231-.4297c-.26-.2994-.39-.7096-.39-1.2304zm1.523-.2344c0 .1432.059.2409.176.293s.234.0781.352.0781c.325 0 .638-.0846.937-.2539.313-.1823.586-.4037.82-.6641.248-.2734.443-.5729.586-.8984.144-.3255.215-.638.215-.9375 0-.1432-.013-.2995-.039-.4688-.013-.1823-.052-.3385-.117-.46871-.065-.14323-.169-.25391-.313-.33203-.13-.07813-.319-.09115-.566-.03907-.182.03907-.391.20834-.625.50782-.234.29949-.462.65099-.684 1.05469-.208.3906-.384.7878-.527 1.1914-.143.3906-.215.7031-.215.9375zm5.113.9961c0-.1172 0-.2083 0-.2734s.006-.1237.019-.1758c.026-.0651.059-.1302.098-.1953s.091-.1498.156-.2539c.104-.1823.3-.5013.586-.9571.287-.4557.593-.9375.918-1.4453.326-.5078.632-.98957.918-1.4453.3-.45573.508-.77474.625-.95703.013-.01302.046-.01953.098-.01953h.136.137c.065 0 .104.00651.117.01953s.039.04557.078.09765c.053.05209.105.11068.157.17579.065.05208.117.10416.156.15625.052.05208.091.07812.117.07812.117 0 .241-.03906.371-.11719.13-.07812.261-.16276.391-.2539.143-.10417.286-.19531.43-.27344.143-.07813.293-.11719.449-.11719.169 0 .325.03906.469.11719.143.07813.266.17578.371.29297.104.11719.182.24739.234.39062.065.14323.098.28646.098.42969 0 .29948-.046.58594-.137.85937-.078.2734-.169.5469-.274.8203-.104.2604-.201.5274-.292.8008-.079.2604-.118.5339-.118.8203 0 .2865.033.4948.098.625.065.1172.247.1758.547.1758.351 0 .683-.0521.996-.1563.325-.1041.658-.1562.996-.1562 0 .3125-.098.5729-.293.7812-.182.2084-.417.3776-.703.5079-.273.1171-.573.2018-.898.2539-.313.039-.599.0586-.86.0586-.495 0-.859-.1368-1.094-.4102-.221-.2865-.332-.6641-.332-1.1328 0-.3125.052-.6055.157-.8789.117-.2735.24-.5404.371-.8008.143-.2604.273-.5208.39-.7813.118-.2604.176-.5403.176-.83979 0-.07813-.013-.1823-.039-.3125-.026-.13021-.111-.19532-.254-.19532-.43 0-.82.13672-1.172.41016-.338.27345-.651.61845-.937 1.03515-.274.4167-.528.8659-.762 1.3477-.221.4817-.436.931-.644 1.3476-.196.4167-.385.7617-.567 1.0352-.182.2734-.371.4101-.566.4101-.274 0-.495-.0846-.664-.2539-.17-.1692-.254-.3841-.254-.6445z" fill="#9f4837"/></svg>