<svg fill="none" height="24" viewBox="0 0 87 24" width="87" xmlns="http://www.w3.org/2000/svg"><path d="m.88496 19.748c0-.371.048828-.6933.14648-.9668.11719-.2734.4004-.4101.84961-.4101.03907 0 .12696.0098.26368.0293.15625 0 .26367.0098.32226.0293-.01953.918.12695 1.6113.43945 2.0801.3125.4492.89844.6738 1.75782.6738.70312 0 1.39648-.1074 2.08008-.3223.68359-.2148 1.29882-.5273 1.8457-.9375.5664-.4297 1.01562-.9472 1.34765-1.5527.35161-.6055.52731-1.2891.52731-2.0508 0-.4687-.166-.8008-.49801-.9961-.3125-.1953-.66406-.3515-1.05469-.4687-.39062-.1172-.75195-.2442-1.08398-.3809-.3125-.1562-.46875-.4199-.46875-.791 0-.4492.27344-.8789.82031-1.2891.54688-.4101 1.19141-.7715 1.93362-1.084.7422-.332 1.4746-.5859 2.1972-.7617.7422-.1953 1.3086-.2929 1.6993-.2929 0 .5664-.127.9668-.3809 1.2011-.2344.2344-.5273.42-.8789.5567s-.7129.2734-1.084.4101c-.3516.1172-.6445.3516-.8789.7032.3125.2539.5664.4882.7617.7031.2149.1953.3809.4101.4981.6445s.1953.4981.2343.791c.0391.2735.0586.6055.0586.9961 0 1.0156-.2246 1.9434-.6738 2.7832-.4297.8203-.9961 1.5332-1.69921 2.1387-.70312.5859-1.5039 1.0449-2.40234 1.3769-.89844.3125-1.81641.4688-2.75391.4688-.50781 0-1.00586-.0586-1.49414-.1758-.46875-.1367-.88867-.3418-1.25976-.6152-.35157-.2735-.63477-.6153-.84961-1.0254-.214848-.4102-.32227-.8984-.32227-1.4649zm13.55744.4102c0-.5664.1074-1.1328.3222-1.6992.2149-.5664.4688-1.1231.7618-1.6699.2929-.5664.5859-1.1231.8789-1.67.3125-.5468.5468-1.0839.7031-1.6113-.3711.2149-.6934.3418-.9668.3809-.2539.0195-.5664.0293-.9375.0293-.0391 0-.166 0-.3809 0-.1953-.0196-.3222-.0293-.3808-.0293.1172-.4297.332-.8106.6445-1.1426.3125-.3516.6641-.6445 1.0547-.8789.4102-.2539.8301-.459 1.2598-.6152.4492-.1758.8496-.3125 1.2011-.4102.586-.91797 1.0645-1.83594 1.4356-2.75391.3711-.9375.7422-1.8457 1.1133-2.72461.3906-.89844.8398-1.74805 1.3476-2.54883.5274-.82031 1.2305-1.57226 2.1094-2.255856l.1465 1.113286-3.6621 8.58402c.2148-.0586.4785-.1172.791-.1758s.625-.11721.9375-.1758c.332-.0586.6445-.10742.9375-.14649.3125-.05859.5762-.11719.791-.17578h.1758c.0976-.01953.1758-.0293.2344-.0293.2734 0 .498.04883.6738.14649s.3223.31248.4394.64458c-1.3281.3906-2.5293.8007-3.6035 1.2304s-2.0117.9961-2.8125 1.6992c-.7812.6836-1.4258 1.5625-1.9336 2.6368-.4882 1.0546-.83 2.4121-1.0254 4.0722 0 .3516.0196.6738.0586.9668.0391.293.2832.4688.7325.5274.4492 0 .8691-.0879 1.2597-.2637s.7715-.3613 1.1426-.5567c.3711-.2148.7422-.4101 1.1133-.5859.3906-.1758.8105-.2637 1.2597-.2637 0 .4688-.205.8985-.6152 1.2891-.4101.3906-.9082.7324-1.4941 1.0254-.5664.293-1.1524.5176-1.7578.6738-.6055.1563-1.1036.2344-1.4942.2344s-.7422-.0781-1.0547-.2344c-.3125-.1562-.5761-.3613-.791-.6152-.1953-.2735-.3515-.5859-.4687-.9375-.0977-.3516-.1465-.7129-.1465-1.084zm7.7859.9375c.1758-1.1133.5078-2.1387.9961-3.0762s1.0449-1.748 1.6699-2.4316c.6446-.7031 1.3379-1.2793 2.0801-1.7285s1.4649-.7324 2.168-.8496c.7031-.1368 1.3476-.1075 1.9336.0879.6054.1953 1.0937.5859 1.4648 1.1718 0 .4493-.1074.8789-.3222 1.2891-.1954.4102-.42.8203-.6739 1.2305-.2344.4101-.459.83-.6738 1.2597-.1953.4297-.293.8887-.293 1.377 0 .5078.1074.918.3223 1.2304.2344.293.6348.4395 1.2012.4395.4687 0 .9179-.0684 1.3476-.2051.4492-.1367.8985-.2051 1.3477-.2051.0781 0 .2051.0098.3808.0293h.3809c-.2344.3321-.5371.6153-.9082.8497-.3711.2343-.7617.4394-1.1719.6152-.4101.1562-.8398.2734-1.289.3515-.4297.0782-.8301.1172-1.2012.1172-.3516 0-.6641-.0781-.9375-.2343-.2735-.1563-.5078-.3614-.7031-.6153-.1954-.2539-.3516-.5371-.4688-.8496-.0976-.332-.1465-.6543-.1465-.9668-.2929.3321-.6152.6836-.9668 1.0547-.332.3516-.6933.6738-1.084.9668-.3711.293-.7812.5371-1.2304.7324-.4297.1953-.8789.293-1.3477.293-.5078 0-.9472-.1855-1.3183-.5566-.3711-.3907-.5567-.8497-.5567-1.377zm1.9336-.9082v.5273c.0195.1954.1465.3223.3809.3809.4883-.1172 1.0449-.3711 1.6699-.7617.625-.4102 1.2109-.8789 1.7578-1.4063.5469-.5468 1.0059-1.123 1.377-1.7285.3711-.625.5566-1.2207.5566-1.7871 0-.0391-.0098-.0976-.0293-.1758 0-.0976 0-.166 0-.2051-.6641 0-1.3379.1368-2.0215.4102s-1.2988.6543-1.8457 1.1426c-.5469.4687-.9961 1.0156-1.3476 1.6406-.3321.625-.4981 1.2793-.4981 1.9629zm16.6922.5566c0-.5859.1172-1.123.3516-1.6113.2539-.5078.5273-.9863.8203-1.4355.2929-.4493.5566-.8985.791-1.3477.2539-.4492.3808-.9277.3808-1.4355 0-.1172-.0097-.2539-.0293-.4102 0-.1758-.0195-.3418-.0585-.498-.0196-.1563-.0782-.2832-.1758-.3809-.0782-.1172-.1856-.1758-.3223-.1758-.0195 0-.0586.0098-.1172.0293-.039 0-.0586.0098-.0586.0293-.2734.3711-.6054.791-.9961 1.2598-.3711.4492-.7715.8984-1.2011 1.3476-.4297.4493-.8496.8789-1.2598 1.2891s-.7813.7519-1.1133 1.0254c-.2344.2148-.5566.5078-.9668.8789-.3906.3711-.791.7422-1.2012 1.1133-.3906.3515-.7421.664-1.0546.9375-.293.2734-.459.4101-.4981.4101l-1.3476-1.1425c.1757 0 .3515-.0391.5273-.1172.1562-.0782.3125-.166.4687-.2637 1.1719-.7813 2.2266-1.6797 3.1641-2.6953.957-1.0156 1.8945-2.1094 2.8125-3.2813.0391-.0586.1367-.2246.293-.498.1758-.293.3613-.6153.5566-.9668.1953-.3711.3906-.7324.586-1.084.1953-.3711.3418-.6641.4394-.8789.1172-.2539.1856-.459.2051-.6152.0391-.1563.0683-.27348.0879-.3516.039-.09766.0976-.16602.1758-.20508.0781-.03906.2441-.05859.498-.05859.0391 0 .127.00976.2637.02929.1562.01954.2539.03907.2929.0586.254.52738.4786.99608.6739 1.40628.1953.4101.3613.8007.498 1.1718.1367.3516.2344.7129.293 1.084.0781.3711.1172.7813.1172 1.2305-.2539.6445-.5371 1.3086-.8496 1.9922-.3125.664-.5762 1.2988-.791 1.9043-.2149.6055-.3516 1.1523-.4102 1.6406-.0391.4883.0684.8789.3223 1.1719.2734.2734.7226.4199 1.3476.4394.6446.0196 1.5528-.1464 2.7246-.498.3125.1562.3418.3516.0879.5859-.2539.2149-.6445.4199-1.1719.6153-.5078.1953-1.0742.3613-1.6992.498-.6054.1172-1.1133.1465-1.5234.0879-.3711 0-.6836-.0586-.9375-.1758-.2344-.1367-.4297-.3125-.5859-.5273-.1368-.2149-.2442-.459-.3223-.7324-.0586-.2735-.0879-.5567-.0879-.8497zm4.4754-.5859c0-.5664.1074-1.1328.3223-1.6992.2148-.5664.4687-1.1231.7617-1.6699.2929-.5664.5859-1.1231.8789-1.67.3125-.5468.5469-1.0839.7031-1.6113-.3711.2149-.6934.3418-.9668.3809-.2539.0195-.5664.0293-.9375.0293-.0391 0-.166 0-.3808 0-.1954-.0196-.3223-.0293-.3809-.0293.1172-.4297.332-.8106.6445-1.1426.3125-.3516.6641-.6445 1.0547-.8789.4102-.2539.8301-.459 1.2598-.6152.4492-.1758.8496-.3125 1.2011-.4102.586-.91797 1.0645-1.83594 1.4356-2.75391.3711-.9375.7422-1.8457 1.1133-2.72461.3906-.89844.8398-1.74805 1.3476-2.54883.5274-.82031 1.2305-1.57226 2.1094-2.255856l.1465 1.113286-3.6621 8.58402c.2148-.0586.4785-.1172.791-.1758s.625-.11721.9375-.1758c.332-.0586.6445-.10742.9375-.14649.3125-.05859.5762-.11719.791-.17578h.1758c.0977-.01953.1758-.0293.2344-.0293.2734 0 .498.04883.6738.14649s.3223.31248.4395.64458c-1.3282.3906-2.5293.8007-3.6036 1.2304-1.0742.4297-2.0117.9961-2.8125 1.6992-.7812.6836-1.4257 1.5625-1.9336 2.6368-.4882 1.0546-.83 2.4121-1.0253 4.0722 0 .3516.0195.6738.0585.9668.0391.293.2832.4688.7325.5274.4492 0 .8691-.0879 1.2597-.2637.3907-.1758.7715-.3613 1.1426-.5567.3711-.2148.7422-.4101 1.1133-.5859.3906-.1758.8105-.2637 1.2598-.2637 0 .4688-.2051.8985-.6153 1.2891-.4101.3906-.9082.7324-1.4941 1.0254-.5664.293-1.1524.5176-1.7578.6738-.6055.1563-1.1035.2344-1.4942.2344-.3906 0-.7422-.0781-1.0547-.2344-.3125-.1562-.5761-.3613-.791-.6152-.1953-.2735-.3515-.5859-.4687-.9375-.0977-.3516-.1465-.7129-.1465-1.084zm7.7273 1.3184c-.332-.7422-.4785-1.4649-.4394-2.168.039-.7227.1953-1.3965.4687-2.0215.293-.6445.6641-1.2207 1.1133-1.7285.4688-.5274.9668-.9766 1.4942-1.3477.5273-.3906 1.0546-.6836 1.582-.8789.5469-.1953 1.0254-.2734 1.4355-.2343.4102.0195.7325.166.9668.4394.2344.2734.3125.6934.2344 1.2598 0 .7617-.2441 1.4258-.7324 1.9922-.4688.5664-.9961 1.0742-1.582 1.5234-.5665.4492-1.0938.8594-1.5821 1.2305-.4687.3515-.7031.6836-.7031.9961 0 .1757.0977.3125.293.4101.2148.0977.459.1758.7324.2344.2734.0391.5469.0684.8203.0879s.4688.039.5859.0586c1.836-.3906 3.2129-.625 4.1309-.7031.918-.0977 1.4941-.0879 1.7285.0292.2344.0977.1856.2637-.1465.4981-.3125.2148-.8008.4492-1.4648.7031-.6641.2344-1.4356.4492-2.3145.6446-.8789.1953-1.748.3125-2.6074.3515-.8594.0195-1.6601-.0683-2.4023-.2637-.7227-.1953-1.2598-.5664-1.6114-1.1132zm5.127-6.6797c-.3906 0-.7617.1074-1.1133.3222-.3516.2149-.6738.4883-.9668.8204-.2734.3125-.5078.664-.7031 1.0546-.1953.3711-.3418.7227-.4395 1.0547.0391.0196.0684.0293.0879.0293h.0879c.2735 0 .586-.1172.9375-.3515.3516-.2344.6836-.5176.9961-.8496.3125-.3516.5762-.7129.791-1.084.2149-.3711.3223-.7032.3223-.9961zm10.95 5.9472c0-.5859.1172-1.123.3516-1.6113.2539-.5078.5273-.9863.8203-1.4355.2929-.4493.5566-.8985.791-1.3477.2539-.4492.3808-.9277.3808-1.4355 0-.1172-.0097-.2539-.0293-.4102 0-.1758-.0195-.3418-.0586-.498-.0195-.1563-.0781-.2832-.1757-.3809-.0782-.1172-.1856-.1758-.3223-.1758-.0195 0-.0586.0098-.1172.0293-.039 0-.0586.0098-.0586.0293-.2734.3711-.6054.791-.9961 1.2598-.3711.4492-.7715.8984-1.2011 1.3476-.4297.4493-.8497.8789-1.2598 1.2891-.4102.4102-.7813.7519-1.1133 1.0254-.2344.2148-.5566.5078-.9668.8789-.3906.3711-.791.7422-1.2012 1.1133-.3906.3515-.7421.664-1.0546.9375-.293.2734-.459.4101-.4981.4101l-1.3477-1.1425c.1758 0 .3516-.0391.5274-.1172.1562-.0782.3125-.166.4687-.2637 1.1719-.7813 2.2266-1.6797 3.1641-2.6953.957-1.0156 1.8945-2.1094 2.8125-3.2813.0391-.0586.1367-.2246.293-.498.1758-.293.3613-.6153.5566-.9668.1953-.3711.3906-.7324.586-1.084.1953-.3711.3417-.6641.4394-.8789.1172-.2539.1856-.459.2051-.6152.039-.1563.0683-.27348.0879-.3516.039-.09766.0976-.16602.1758-.20508.0781-.03906.2441-.05859.498-.05859.0391 0 .127.00976.2637.02929.1562.01954.2539.03907.2929.0586.2539.52738.4786.99608.6739 1.40628.1953.4101.3613.8007.498 1.1718.1367.3516.2344.7129.293 1.084.0781.3711.1172.7813.1172 1.2305-.2539.6445-.5371 1.3086-.8496 1.9922-.3125.664-.5762 1.2988-.7911 1.9043-.2148.6055-.3515 1.1523-.4101 1.6406-.0391.4883.0684.8789.3223 1.1719.2734.2734.7226.4199 1.3476.4394.6445.0196 1.5527-.1464 2.7246-.498.3125.1562.3418.3516.0879.5859-.2539.2149-.6445.4199-1.1719.6153-.5078.1953-1.0742.3613-1.6992.498-.6054.1172-1.1133.1465-1.5234.0879-.3711 0-.6836-.0586-.9375-.1758-.2344-.1367-.4297-.3125-.586-.5273-.1367-.2149-.2441-.459-.3222-.7324-.0586-.2735-.0879-.5567-.0879-.8497zm4.6512-.9961c0-.371.0488-.6933.1464-.9668.1172-.2734.4004-.4101.8497-.4101.039 0 .1269.0098.2636.0293.1563 0 .2637.0098.3223.0293-.0195.918.1269 1.6113.4394 2.0801.3125.4492.8985.6738 1.7579.6738.7031 0 1.3964-.1074 2.08-.3223.6836-.2148 1.2989-.5273 1.8457-.9375.5664-.4297 1.0157-.9472 1.3477-1.5527.3516-.6055.5273-1.2891.5273-2.0508 0-.4687-.166-.8008-.498-.9961-.3125-.1953-.6641-.3515-1.0547-.4687s-.752-.2442-1.084-.3809c-.3125-.1562-.4687-.4199-.4687-.791 0-.4492.2734-.8789.8203-1.2891.5469-.4101 1.1914-.7715 1.9336-1.084.7422-.332 1.4746-.5859 2.1972-.7617.7422-.1953 1.3086-.2929 1.6993-.2929 0 .5664-.127.9668-.3809 1.2011-.2344.2344-.5273.42-.8789.5567s-.7129.2734-1.084.4101c-.3516.1172-.6445.3516-.8789.7032.3125.2539.5664.4882.7617.7031.2149.1953.3809.4101.4981.6445s.1953.4981.2343.791c.0391.2735.0586.6055.0586.9961 0 1.0156-.2246 1.9434-.6738 2.7832-.4297.8203-.9961 1.5332-1.6992 2.1387-.7031.5859-1.5039 1.0449-2.4024 1.3769-.8984.3125-1.8164.4688-2.7539.4688-.5078 0-1.0058-.0586-1.4941-.1758-.4688-.1367-.8887-.3418-1.2598-.6152-.3515-.2735-.6347-.6153-.8496-1.0254-.2148-.4102-.3222-.8984-.3222-1.4649z" fill="#e8d8b1"/></svg>