<svg fill="none" height="46" viewBox="0 0 144 46" width="144" xmlns="http://www.w3.org/2000/svg"><path d="m.764847 38.4961c0-.7422.097656-1.3867.292973-1.9336.23437-.5469.80078-.8203 1.69921-.8203.07813 0 .25391.0195.52735.0586.3125 0 .52734.0195.64453.0586-.03906 1.8359.25391 3.2226.87891 4.1601.625.8985 1.79687 1.3477 3.51562 1.3477 1.40625 0 2.79296-.2149 4.16016-.6445 1.3672-.4297 2.5977-1.0547 3.6914-1.875 1.1328-.8594 2.0313-1.8946 2.6953-3.1055.7031-1.211 1.0547-2.5781 1.0547-4.1016 0-.9375-.332-1.6015-.9961-1.9922-.625-.3906-1.3281-.7031-2.1094-.9375-.7812-.2343-1.5039-.4882-2.1679-.7617-.625-.3125-.9375-.8398-.9375-1.582 0-.8984.5468-1.7578 1.6406-2.5781 1.0937-.8203 2.3828-1.543 3.8672-2.168 1.4844-.6641 2.9492-1.1719 4.3945-1.5234 1.4844-.3907 2.6172-.586 3.3984-.586 0 1.1328-.2539 1.9336-.7617 2.4024-.4687.4687-1.0547.8398-1.7578 1.1132-.7031.2735-1.4258.5469-2.168.8204-.7031.2343-1.289.7031-1.7578 1.4062.625.5078 1.1328.9766 1.5235 1.4063.4297.3906.7617.8203.9961 1.289.2343.4688.3906.9961.4687 1.582.0781.5469.1172 1.211.1172 1.9922 0 2.0313-.4492 3.8868-1.3477 5.5664-.8593 1.6407-1.9921 3.0664-3.3984 4.2774-1.4062 1.1719-3.0078 2.0898-4.8047 2.7539-1.7969.625-3.6328.9375-5.50779.9375-1.01563 0-2.01172-.1172-2.98828-.3516-.9375-.2734-1.77735-.6836-2.51953-1.2304-.70313-.5469-1.26953-1.2305-1.69922-2.0508-.429689-.8203-.644533-1.7969-.644533-2.9297zm27.114853.8203c0-1.1328.2148-2.2656.6445-3.3984s.9375-2.2461 1.5235-3.3399c.5859-1.1328 1.1718-2.2461 1.7578-3.3398.625-1.0938 1.0937-2.168 1.4062-3.2227-.7422.4297-1.3867.6836-1.9336.7617-.5078.0391-1.1328.0586-1.875.0586-.0781 0-.332 0-.7617 0-.3906-.039-.6445-.0586-.7617-.0586.2344-.8593.664-1.6211 1.289-2.2851.625-.7031 1.3282-1.2891 2.1094-1.7578.8203-.5078 1.6602-.918 2.5196-1.2305.8984-.3516 1.6992-.625 2.4023-.8203 1.1719-1.8359 2.1289-3.6719 2.8711-5.5078.7422-1.875 1.4844-3.6914 2.2266-5.44924.7812-1.79687 1.6796-3.49609 2.6953-5.09765 1.0547-1.64063 2.4609-3.14453 4.2187-4.511722l.293 2.226562-7.3242 17.16795c.4297-.1172.957-.2344 1.582-.3515.625-.1172 1.25-.2344 1.875-.3516.6641-.1172 1.2891-.2148 1.875-.293.625-.1172 1.1523-.2344 1.582-.3515h.3516c.1953-.0391.3516-.0586.4687-.0586.5469 0 .9961.0976 1.3477.2929.3516.1954.6445.625.8789 1.2891-2.6562.7813-5.0586 1.6016-7.207 2.4609-2.1485.8594-4.0235 1.9922-5.625 3.3985-1.5625 1.3672-2.8516 3.125-3.8672 5.2734-.9766 2.1094-1.6602 4.8242-2.0508 8.1445 0 .7032.0391 1.3477.1172 1.9336.0781.586.5664.9375 1.4648 1.0547.8985 0 1.7383-.1758 2.5196-.5273.7812-.3516 1.5429-.7227 2.2851-1.1133.7422-.4297 1.4844-.8203 2.2266-1.1719.7812-.3515 1.6211-.5273 2.5195-.5273 0 .9375-.4101 1.7969-1.2305 2.5781-.8203.7813-1.8164 1.4648-2.9882 2.0508-1.1328.5859-2.3047 1.0351-3.5157 1.3476-1.2109.3125-2.207.4688-2.9882.4688-.7813 0-1.4844-.1563-2.1094-.4688s-1.1524-.7226-1.582-1.2304c-.3907-.5469-.7032-1.1719-.9375-1.875-.1954-.7032-.293-1.4258-.293-2.168zm15.5719.7617c0-.1562 0-.4687 0-.9375.039-.5078.0586-.8398.0586-.9961 1.25-2.8515 2.8515-5.4883 4.8046-7.9101 1.9532-2.4219 4.1602-4.5703 6.6211-6.4453.0782 0 .1954-.0196.3516-.0586.1953-.0782.332-.1172.4102-.1172 1.0546 0 1.914.2344 2.5781.7031.7031.4297 1.25 1.0156 1.6406 1.7578.4297.7031.7227 1.5039.8789 2.4024.1563.8593.2344 1.6992.2344 2.5195 0 1.5234-.3516 3.125-1.0547 4.8047-.7031 1.6406-1.6602 3.164-2.8711 4.5703-1.1719 1.3672-2.5195 2.5-4.043 3.3984-1.5234.8594-3.1054 1.2891-4.7461 1.2891-1.6406 0-2.871-.4297-3.6914-1.2891-.7812-.8984-1.1718-2.1289-1.1718-3.6914zm4.5703-.7031c0 .4297.1758.7227.5273.8789.3516.1563.7031.2344 1.0547.2344.9766 0 1.9141-.2539 2.8125-.7617.9375-.5469 1.7578-1.211 2.4609-1.9922.7422-.8203 1.3282-1.7188 1.7579-2.6953.4296-.9766.6445-1.9141.6445-2.8125 0-.4297-.0391-.8985-.1172-1.4063-.0391-.5469-.1562-1.0156-.3516-1.4062-.1953-.4297-.5078-.7618-.9375-.9961-.3906-.2344-.957-.2735-1.6992-.1172-.5469.1172-1.1719.625-1.875 1.5234-.7031.8985-1.3867 1.9531-2.0508 3.1641-.625 1.1719-1.1523 2.3633-1.582 3.5742-.4297 1.1719-.6445 2.1094-.6445 2.8125zm27.4664 1.1133c0-1.1719.2344-2.2461.7031-3.2227.5078-1.0156 1.0547-1.9726 1.6406-2.8711.586-.8984 1.1133-1.7968 1.5821-2.6953.5078-.8984.7617-1.8554.7617-2.8711 0-.2343-.0196-.5078-.0586-.8203 0-.3516-.0391-.6836-.1172-.9961-.0391-.3125-.1562-.5664-.3516-.7617-.1562-.2344-.3711-.3516-.6445-.3516-.0391 0-.1172.0196-.2344.0586-.0781 0-.1172.0196-.1172.0586-.5468.7422-1.2109 1.5821-1.9921 2.5196-.7422.8984-1.543 1.7968-2.4024 2.6953-.8594.8984-1.6992 1.7578-2.5195 2.5781s-1.5625 1.5039-2.2266 2.0508c-.4687.4297-1.1133 1.0156-1.9336 1.7578-.7812.7422-1.582 1.4844-2.4023 2.2266-.7813.7031-1.4844 1.3281-2.1094 1.875-.5859.5468-.918.8203-.9961.8203l-2.6953-2.2852c.3516 0 .7031-.0781 1.0547-.2344.3125-.1562.625-.332.9375-.5273 2.3437-1.5625 4.4531-3.3594 6.3281-5.3906 1.9141-2.0313 3.7891-4.2188 5.625-6.5625.0781-.1172.2735-.4493.5859-.9961.3516-.586.7227-1.2305 1.1133-1.9336.3907-.7422.7813-1.4649 1.1719-2.168.3906-.7422.6836-1.3281.8789-1.7578.2344-.5078.3711-.918.4102-1.2305.0781-.3125.1367-.5469.1757-.7031.0782-.1953.1954-.332.3516-.4102.1563-.0781.4883-.1171.9961-.1171.0781 0 .2539.0195.5273.0585.3126.0391.5079.0782.586.1172.5078 1.0547.957 1.9922 1.3476 2.8125.3907.8203.7227 1.6016.9961 2.3438.2735.7031.4688 1.4258.586 2.168.1562.7421.2343 1.5625.2343 2.4609-.5078 1.2891-1.0742 2.6172-1.6992 3.9844-.625 1.3281-1.1523 2.5976-1.582 3.8086-.4297 1.2109-.7031 2.3046-.8203 3.2812-.0781.9766.1367 1.7578.6445 2.3438.5469.5468 1.4453.8398 2.6953.8789 1.2891.039 3.1055-.293 5.4493-.9961.625.3125.6835.7031.1757 1.1718-.5078.4297-1.289.8399-2.3437 1.2305-1.0156.3906-2.1485.7227-3.3985.9961-1.2109.2344-2.2265.293-3.0468.1758-.7422 0-1.3672-.1172-1.875-.3516-.4688-.2734-.8594-.625-1.1719-1.0547-.2734-.4296-.4883-.9179-.6445-1.4648-.1172-.5469-.1758-1.1133-.1758-1.6992zm8.8922.7031c0-.5469.0586-1.0156.1757-1.4062.1172-.4297.3321-.9766.6446-1.6407.2734-.3906.7617-1.1328 1.4648-2.2265.7422-1.0938 1.5039-2.2461 2.2852-3.4571.8203-1.2109 1.582-2.3437 2.2851-3.3984.7422-1.0937 1.25-1.8555 1.5235-2.2852.3515-.5078.625-.7812.8203-.8203.1953-.039.5664-.0586 1.1133-.0586.3515 0 .7226.0196 1.1132.0586.4297.0391.7032.3125.8204.8203-.5469 1.3282-1.2891 2.5977-2.2266 3.8086-.8984 1.1719-1.7969 2.3438-2.6953 3.5157-.8594 1.1718-1.6211 2.3828-2.2852 3.6328-.664 1.2109-.9961 2.5195-.9961 3.9258.1563 0 .3907.0195.7032.0586.3515.039.7226.0781 1.1132.1171.3907.0391.7422.0782 1.0547.1172.3516.0391.6055.0391.7617 0 .2344-.039.625-.1172 1.1719-.2343.586-.1563 1.1914-.3126 1.8164-.4688.6641-.1562 1.2891-.3125 1.875-.4688.586-.1562.9961-.2734 1.2305-.3515v.4101c.0391.1563.0586.2735.0586.3516 0 .7813-.3711 1.4258-1.1133 1.9336-.7031.5078-1.543.918-2.5195 1.2305-.9375.2734-1.9141.4687-2.9297.5859-.9766.0781-1.7383.1172-2.2852.1172-.5859 0-1.1914-.0586-1.8164-.1758-.5859-.1562-1.1133-.3906-1.582-.7031-.4688-.3125-.8594-.7031-1.1719-1.1719-.2734-.5078-.4101-1.1133-.4101-1.8164zm17.0505-34.33593c.508 0 .977.01953 1.406.05859.43.03906.801.13672 1.114.29297.312.15625.566.39063.761.70313.196.3125.293.74218.293 1.28906v.76172c0 .27346-.039.54686-.117.82026-.039.2344-.136.4493-.293.6446-.156.1562-.41.2344-.761.2344-.547 0-.997-.1954-1.348-.586-.313-.3906-.547-.8398-.703-1.34764-.156-.54687-.254-1.09375-.293-1.64062-.039-.54688-.059-.95703-.059-1.23047zm-3.1193 35.09763c-.664-1.4843-.957-2.9297-.8789-4.3359.0781-1.4453.3906-2.793.9375-4.043.586-1.289 1.3281-2.4414 2.2267-3.457.937-1.0547 1.933-1.9531 2.988-2.6953 1.055-.7813 2.11-1.3672 3.164-1.7578 1.094-.3907 2.051-.5469 2.871-.4688.821.0391 1.465.332 1.934.8789s.625 1.3867.469 2.5196c0 1.5234-.489 2.8515-1.465 3.9843-.938 1.1328-1.992 2.1485-3.164 3.0469-1.133.8984-2.188 1.7188-3.164 2.4609-.938.7032-1.407 1.3672-1.407 1.9922 0 .3516.196.625.586.8203.43.1954.918.3516 1.465.4688.547.0781 1.094.1367 1.641.1758.547.039.937.0781 1.172.1172 3.672-.7813 6.426-1.25 8.261-1.4063 1.836-.1953 2.989-.1758 3.457.0586.469.1953.372.5273-.292.9961-.625.4297-1.602.8984-2.93 1.4062-1.328.4688-2.871.8985-4.629 1.2891s-3.496.625-5.215.7031c-1.719.0391-3.32-.1367-4.805-.5273-1.445-.3906-2.5192-1.1328-3.2223-2.2266zm10.2543-13.3593c-.782 0-1.524.2148-2.227.6445s-1.348.9765-1.934 1.6406c-.546.625-1.015 1.3281-1.406 2.1094-.39.7422-.683 1.4453-.879 2.1094.078.039.137.0585.176.0585h.176c.547 0 1.172-.2343 1.875-.7031.703-.4687 1.367-1.0351 1.992-1.6992.625-.7031 1.152-1.4258 1.582-2.168.43-.7421.645-1.4062.645-1.9921zm9.009 9.9023c0-.7422.098-1.3867.293-1.9336.234-.5469.801-.8203 1.699-.8203.078 0 .254.0195.528.0586.312 0 .527.0195.644.0586-.039 1.8359.254 3.2226.879 4.1601.625.8985 1.797 1.3477 3.516 1.3477 1.406 0 2.793-.2149 4.16-.6445 1.367-.4297 2.597-1.0547 3.691-1.875 1.133-.8594 2.031-1.8946 2.695-3.1055.704-1.211 1.055-2.5781 1.055-4.1016 0-.9375-.332-1.6015-.996-1.9922-.625-.3906-1.328-.7031-2.109-.9375-.782-.2343-1.504-.4882-2.168-.7617-.625-.3125-.938-.8398-.938-1.582 0-.8984.547-1.7578 1.641-2.5781s2.383-1.543 3.867-2.168c1.484-.6641 2.949-1.1719 4.395-1.5234 1.484-.3907 2.617-.586 3.398-.586 0 1.1328-.254 1.9336-.762 2.4024-.468.4687-1.054.8398-1.758 1.1132-.703.2735-1.425.5469-2.167.8204-.704.2343-1.29.7031-1.758 1.4062.625.5078 1.133.9766 1.523 1.4063.43.3906.762.8203.996 1.289.235.4688.391.9961.469 1.582.078.5469.117 1.211.117 1.9922 0 2.0313-.449 3.8868-1.347 5.5664-.86 1.6407-1.993 3.0664-3.399 4.2774-1.406 1.1719-3.008 2.0898-4.805 2.7539-1.796.625-3.632.9375-5.507.9375-1.016 0-2.012-.1172-2.989-.3516-.937-.2734-1.777-.6836-2.519-1.2304-.703-.5469-1.27-1.2305-1.699-2.0508-.43-.8203-.645-1.7969-.645-2.9297z" fill="#fff"/></svg>