<svg fill="none" height="173" viewBox="0 0 802 173" width="802" xmlns="http://www.w3.org/2000/svg"><path d="m360.154 65.5021c-.63-.22-1.13-.39-1.38-.51-3.92-1.94-8.13-3.6901-12.66-2.0301-.94.34-1.81.9001-2.65 1.4401-.64.41-1.3.8299-2 1.1699-1.27.61-2.02.7701-2.58.5601-.64-.24-.93-.94-1.33-1.9-.09-.21-.18-.4301-.29-.6701-.21-.47-.48-.9499-.81-1.4199-.96-1.37-2.64-2.95-4.48-3.24-.25-.04-.5-.0601-.76-.0601-1.19 0-2.48.37-3.75.73-1.1.31-2.24.6401-3.31.7201-.78.01-1.29.18-1.59.5-.27.29-.39.75-.36 1.38-.07 1.35.61 1.48 1.63 1.68.38.07.77.15 1.15.3.78.34.95 1.16 1.01 1.84.15 1.52.63 3.0699 1.09 4.5799.33 1.07.67 2.19.88 3.25.46 3.39-.12 6.8301-.69 10.1601-.29 1.73-.6 3.5099-.74 5.2399l-.06.7001c-.18 2-.41 4.49.4 6.23 1.01 2.18 2.54 2.4999 4.66 2.9299.54.11 1.09.22 1.68.38.34.09.72.1801 1.05.0901.53-.15.83-.7801 1-1.2401 1.24-3.16 1.22-6.7299 1.21-10.1899-.01-4.23-.03-8.6001 2.27-12.1801 4.43-6.9 12.44-6.65 19.59-5.88.69.08 1.41.15 2.09 0 .85-.19 2.54-1.2799 3.04-2.2599.16-.31.18-.58.08-.8-.17-.4-2.38-1.16-3.44-1.52zm-262.5498-43.32c-.96-1.77-3.5599-2.64-7.92-2.68 0 0-.0398 0-.0498 0-.63 0-.9802.39-1.0302 1.15-.35 5.13-4.35 9.34-8.21 13.4-3.46 3.64-6.7201 7.0699-7.4101 11.0099-.44 2.34.2702 4.9001 1.7202 6.2301 1.02.93 2.3498 1.2099 3.8398.7899 4.07-1.06 7.49-5.6099 9.71-8.9299 1.16-1.74 2.2304-3.53 3.1704-5.11.59-.99 1.1399-1.9101 1.6499-2.7201 3.77-5.97 5.99-10.4899 4.54-13.1499zm704.0098 80.3899c-.21-.21-.52-.34-.85-.32-.5.03-.96.3-1.44.59l-.2.11c-2.75 1.6-6.99 2.53-10.8 2.35-4.55-.21-7.99-1.88-9.7-4.68-.49-.7999-.33-1.5799.46-2.3299 5.33-5.03 11.36-10.73 12.49-18.92.5-3.63-.17-7.34-1.93-10.75-2.2-4.25-4.829-5.9601-9.699-6.3101-1.81-.13-3.74.5601-5.771 2.0401-4.51 3.29-7.56 8.9299-8.16 15.0899-.25 2.51-.11 5.1501.41 7.8401.141.71.41 1.51.7 2.35.62 1.78 1.26 3.6199.81 5.2099-.73 2.6-4.34 4.27-7.52 5.74-1.27.59-2.47 1.14-3.29 1.68-1.66.8-3.59 2.34-5.46 3.82-3.14 2.5-6.11 4.87-7.9 3.98-1.05-.52-1.53-2.08-1.48-4.77.19-4.49.73-8.9699 1.24-13.2899.32-2.7.661-5.5001.9-8.2801.141-2.08.61-3.9499 1.11-5.9299.29-1.18.6-2.4.83-3.67.6-2.62.38-5.08-.58-6.59-.58-.92-1.44-1.5-2.55-1.74-4.7-.79-15.63-.62-20.039.08-1.521.39-2.631 1.1899-4.031 2.1899-.23.17-.469.34-.719.51-2.74 2.1-6.201 4.8801-8.561 7.7101-8.61 10.12-3.39 16.18 4.5 25.3499.96 1.21.96 2.43 0 3.45-5.39 5.97-12.96 6.01-18.96 5.38-.919-.1-2.41-1.23-4.55-3.46-1.62-1.68-2.74-3.74-3.24-5.96-1.06-4.6299.55-9.2699 2.11-13.7599.44-1.27.89-2.57 1.27-3.85 1.06-3.54 1.66-7.27 2.23-10.88.2-1.26.021-2.03-.549-2.31-.62-.31-1.341.17-2.031.64-.15.1-.3.2-.45.3-1.62 1.01-2.89.64-4.37.21l-.36-.1c-1.32-.38-2.76-.6001-4.15-.8201-.74-.12-1.47-.2299-2.19-.3699-4.63-.86-9.12-1.3901-13.25 1.6199-8.86 7.33-11.32 19.7701-5.71 28.93.4.66.5 1.18.32 1.56-.18.37-.609.6-1.309.69-.88.12-1.881.41-2.931.72-2.44.71-5.2 1.51-7.2.25-3.09-1.95-4.09-7.3399-4.01-10.4899.08-2.96.85-5.7801 1.52-7.9101.34-1.08.7-2.1199 1.13-3.3599l3.91-11.26c.45-1.3001 1.03-2.5701 1.59-3.7901.66-1.45 1.35-2.9399 1.8-4.4599 2.09-7.0401 3.47-14.9501 3.9-22.2901.16-2.15-.79-4.2299-2.43-5.2999-1.36-.89-2.96-.92-4.52-.1-1.53 1.03-2.41 3.18-3.11 5.12-1.44 4.27-2.24 9.21-3.02 13.98-.87 5.32-1.76 10.8199-3.54 15.3099-.27.78-.43 1.5901-.47 2.4701-.19 3.66-.7 7.0199-1.2 10.2699-1.39 9.18-2.59 17.1 4.4 26.64 2.41 2.35 17.76 1.71 23.07 1.2 2.93-.51 5.44-2.29 7.87-4.01 1.44-1.02 2.92-2.07 4.48-2.85.6-.3 1.1-.41 1.5-.33.61.06 1.2.72 1.79 2 3.02 6.53 7.79 10.78 13.8 12.29 7.31 1.85 16-.46 23.84-6.33.8-.55 1.56-1.42 2.37-2.34 1.36-1.54 2.85-3.23 4.57-3.23.64 0 1.32.23 2.04.8.81.73 1.12 1.43 1.04 2.33-.32 2.57-1.6 9.06-2.81 11.79l-.04.06c-1.32 1.59-3.51 2.61-5.62 3.6-1.8.84-3.65 1.7-4.95 2.91-4 3.53-10.83 10.19-11.67 15.13-.73 8.18 1.33 21.93 5.07 27.36 1.51 1.77 3.74 2.85 6.26 3.02 2.74.19 5.45-.72 7.43-2.49 1.69-1.57 2.77-3.48 4.01-5.68.62-1.09 1.25-2.22 2.03-3.44 4.61-7.46 6.24-17 7.81-26.24.58-3.42 1.13-6.64 1.82-9.75.23-.97.7-1.86 1.4-2.66 4.85-5.46 11.77-8.72 18.47-11.88 3.11-1.47 6.33-2.98 9.27-4.69.95-.53 1.84-.62 2.72-.27 1.66.65 3.27 1.4 4.84 2.14 5.91 2.77 11.49 5.39 18.36 1.63 2.19-1.2 3.91-3.08 5.57-4.89.25-.27.45-.51.47-.79.01-.21-.1-.38-.2-.48zm-120.23-16.01c-.46.74-.89 1.4501-1.26 2.1201-1.52 2.41-3.94 6.08-5.42 8.17-.13.1699-.23.3199-.33.4599-.38.53-.66.92-1.12 1.13l-.08.0401c-.809.22-1.84.3499-2.91.3499-1.39 0-2.84-.2099-3.94-.7099-1.02-.51-1.6-1.3801-1.79-2.6701-1-7.89 3.02-14.4499 12.31-20.0599 1.41-.99 3.711-1.3301 5.33-.0501 4.201 3.17 1.441 7.64-.77 11.23zm48.38 40.19c-.74 7.52-1.66 16.88-5.78 24.02-1.4 2.42-5.529 8.3-8.81 8.3-.219 0-.43-.03-.64-.08-.11-.03-.22-.07-.33-.11-.97-.41-1.65-1.18-2.02-2.29-1.26-3.76 1.37-10.67 2.68-12.92 1.28-2.2 2.86-4.25 4.39-6.24 1.47-1.9 2.99-3.87 4.23-5.97 1.7-2.87 3.47-4.07 5.92-5.73l.34-.23.05.41c.04.28.03.56-.03.84zm5.49-40.05c-.13.41-.25.78-.36 1.11-1.33 4.23-3.09 8.3101-6.88 9.4801-.78.24-2.13.37-3.65.37-3.04 0-6.79-.5201-8.15-1.7101-1.88-1.65-1.7-4.97-1.55-7.64.04-.77.08-1.49.07-2.09-.04-1.56-.03-3.2099.56-4.7199.49-1.26 1.39-2.46 2.84-3.76 2.97-2.68 12.421-8.3301 17.061-5.7801 1.2.66 1.919 1.88 2.149 3.62.44 3.42-1.14 8.25-2.08 11.13zm39.07 1.5401s-.05 0-.08 0c-.61 0-1.35-.3001-1.64-1.6601-1.18-5.59 2.8-12.46 7.16-15.62.72-.52 1.44-.9799 2.27-.9199.52.04.92.32 1.19.81 1.33 2.5-1.22 10.29-1.94 11.56-.36.63-4.46 5.72-6.96 5.83zm-227.85 12.9399c-.99-.6-1.93-1.17-2.57-1.71-3.33-2.78-4.6-7.3499-3.78-13.5799.03-.25.13-.7501.25-1.4401.71-3.81 2.87-15.3999-.03-17.3199-.78-.52-1.92-.2801-3.399.6999-.26.18-.5.39-.75.62-.29.26-.591.53-.941.74-.7.42-1.75.5101-2.3-.1499-.23-.27-.31-.59-.4-.9-.04-.13-.07-.26-.12-.38-.48-1.29-2.12-1.7101-3.41-1.6901-8.33.16-15.79 2.1101-22.8 5.9601l-.06.0399c-1.5.86-2.68 1.5501-3.43 2.9501-4.79 8.73-5.46 17.12-1.94 24.24.7 1.4199 1.53 2.8399 2.82 3.6599 1.63 1.03 3.65.98 5.93.82l.64-.05-.43.47c-2.94 3.18-7.52 7.58-13.4 9.14-3.11.83-5.67.67-7.62-.47-.12-.07-.23-.14-.34-.22-2.75-1.85-6.62-6.4-6.43-9.78.3-5.38 1.88-10.4899 3.39-15.4399.49-1.58.99-3.22 1.44-4.85 1.49-6.27 2.11-12.8501 2.71-19.2201.59-6.29 1.21-12.8 2.66-19.11.2-1.56.92-3.3999 1.68-5.3499 1.69-4.34 3.44-8.83.14-11.58-1.16-.82-2.39-1.23-3.6-1.23-1.43 0-2.84.56-4.12 1.69-.73.62-1.36 1.48-1.92 2.62-.67 1.4-1.2 3.04-1.71 4.63-.22.68-.43 1.35-.66 2-2.14 6.18-2.8 12.8799-3.44 19.3499-.27 2.75-.55 5.5901-.94 8.3301-1.33 9.32-1.71 18.99-2.08 28.35l-.11 2.6699c-.05 1.21-.11 2.42-.17 3.63-.2 4.13-.4 8.4-.24 12.55.1 2.59 2.85 5.32 8.17 8.11 4.94 2.59 11.43 2.6 18.76.02 5.74-2.02 11.91-5.59 16.91-9.81 4.42-3.73 8.48-8.1 11.43-12.3099.25-.38.64-.9101 1.17-.9201h.02c.4 0 .77.28 1.19.88 3.91 5.11 9.27 11.08 16.04 11.79 1.15-.02 2.23-1.54 2.53-2.01 1.55-2.67-1.79-4.69-4.73-6.46zm-19.75-26.6499c-.19 5.02-2 10.04-5.08 14.13-.47.62-.95 1.35-1.46 2.12-1.96 2.98-4.379 6.65-8.01 6.65-.26 0-.52-.02-.79-.06-.7-.1-1.42-.3301-2.15-.6801-.62-.3-1.17-.8599-1.63-1.6499-1.17-1.98-1.4-4.64-.63-7.29.7-2.43 2.08-4.56 3.46-6.5 3.98-5.58 9.43-8.35 15.32-7.82.19.02.55.05.78.31.19.23.2.52.19.78zm-119.51-37.16.05.25-.02-.25c.43-.03.85-.0501 1.27-.0501 1.71 0 3.24.2601 4.57.7901.78.31 1.52.7099 2.23 1.1099.58.32 1.18.6501 1.8.9201 3.01 1.33 6.36 1.24 9.54 1.04.14 0 .38-.02.7-.03 4.95-.16 6.13-.57 6.26-.89.01-.03-.02-.0901-.09-.1701-1.6-.9-6.9-3.2499-9.59-4.3499-2.05-.79-3.9-1.5201-5.81-2.4001l-.06-.02c-2.46-1-6.09-1.48-8.46-1.12-1.37.21-4.85 1.53-5.36 3.11-.18.54 0 1.0701.55 1.6201.57.57 1.56.5 2.42.44zm35.03 63.2399c-.77.07-1.44.2-2.08.33-1.5.3-2.8.56-4.55-.22-.39-.17-.78-.39-1.16-.65-1.51-1.02-2.75-2.5899-3.34-4.1999-.92-2.54-1.41-5.49-1.87-8.34-.09-.57-.18-1.13-.28-1.67v-.0401-.0399c.24-1.87.67-3.8 1.16-6.04.28-1.26.57-2.6.86-4.06.19-1.07.41-2.19.63-3.33.98-4.9701 1.99-10.12.48-12.61-.99-1.32-3.11-2.19-6.1-2.49-5.86-.59-13.06 1.11-15.1 2.91-3.28 2.1-8.27 5.8599-10.1 7.7799-1.05 1.11-1.53 2.4101-2.08 3.9101l-.06.15c-2 5.97-3.42 14.7899-2.32 19.1899.54 1.45 1.62 2.6001 2.76 3.8101.58.61 1.17 1.2499 1.71 1.9399.4.4.74.9201 1.06 1.4301.66 1.03 1.23 1.9099 2.39 1.9099.71 0 1.47.02 2.2.05 1.96.08 4 .15 5.85-.49 1.1-.37 2.1-1.46 3.06-2.52 1.3-1.43 2.63-2.8899 4.36-2.8899.42 0 .87.0899 1.34.2799.48.34.66.8601.77 1.2201.88 3.34 4.3 6.5999 8.71 8.2999 4.07 1.57 8.05 1.5 10.65-.19.83-.62 1.31-1.37 1.4-2.22.05-.74 0-1.11-.36-1.2zm-33.33-8.4599c-.54.47-1.04.7-1.47.7-.21 0-.4-.0501-.58-.1601l-.11-.0699c-.51-.34-.98-1.1501-1.46-2.5601-4.35-11.46-.92-18.5799 12.27-25.3799 1.24-.52 2.48-.94 3.19.1 2.66 4.96-5.38 21.94-11.83 27.36zm222.281-33.74c-1.61-.77-3.561-1.07-5.941-.92-2.12.16-4.1.8999-5.87 2.2099-1.5 1.1-2.65 2.43-3.57 3.49s-1.58 1.83-2.25 2.02h-.04-.04c-1.13-.07-2.54-.79-4.18-1.62-2.21-1.13-4.9-2.4899-7.58-2.4899-.4 0-.8.0299-1.2.0999-.57.09-1.04.32-1.26.63l-.04.0601c-.22.34-.29.81-.34 1.27-.15 1.39-.59 2.69-1.02 3.95-.49 1.46-.96 2.8299-1.02 4.3399-.5 5.15-.589 10.3201-.67 15.3101-.15 9.02-.31 18.3499-2.94 27.5099-1.35 5.14-2.65 10.38-3.92 15.45-.42 1.68-.83 3.35-1.25 5.03-.27 1.08-.52 2.18-.77 3.29-.54 2.4-1.11 4.89-1.91 7.21-.28.81-.6 1.5-.91 2.17-.67 1.43-1.24 2.66-1.21 4.56l.13 9.09c0 .69-.03 1.45-.07 2.25-.1 1.9-.21 4.06.39 5.63.72 1.9 1.76 3.1 3.11 3.58 1.75.63 4.06.09 7.06-1.64 7.64-4.4 13.99-13.39 16.18-22.88 1.89-8.73 1.94-17.98 1.98-26.92.02-3.38.041-6.87.151-10.25.05-1.07.519-2.02 1.369-2.77 1.25-1.14 2.58-2.14 3.87-3.11 1.48-1.11 3.01-2.26 4.45-3.64.71-.72 1.49-1.4799 2.3-2.2699 3.3-3.21 7.04-6.8501 8.82-10.45.76-1.5401 1.12-3.2401 1.45-4.8801.29-1.42.59-2.89 1.16-4.26l.13-.3199c1.04-2.51 2.03-4.89 1.77-7.74-.38-4.21-2.79-11.06-6.33-13zm-26.75 64.2399c-.12.79-.221 1.47-.261 1.92-.38 4.42-.8 8.07-1.33 11.48-1.35 8.56-3.46 15.73-6.45 21.92-.92 1.92-2.45 4.51-4.99 4.94-.15.03-.32.04-.5.04-.4 0-.83-.09-1.16-.4-.58-.53-.55-1.45-.53-1.94.35-8.15 1.76-16.28 4.19-24.15 2.39-7.74 5.5-16.47 10.39-22.49l.16-.2.2.16c1.29 1.07.87 4.73.27 8.71zm21.229-39.7499c-1.659 2.25-3.57 4.44-5.7 6.5-2.11 2.05-5.05 4.58-9.07 5.96-.659.23-1.56.49-2.5.49-.289 0-.59-.03-.88-.09-1.68-.35-2.68-1.66-2.88-3.78-.62-6.44.97-12.65 4.58-17.97 2.34-3.44 10.5-8.17 15.96-5.86.97.41 1.811 1.07 2.49 1.97 2.5 3.27 1.821 7.57-2 12.78zm-385.25 34.0599c-.09-.42-.36-1.38-.99-1.73-.26-.15-.55-.17-.89-.05h-.02c-1.5.36-2.67 1.56-3.8 2.73-1.06 1.09-2.15 2.23-3.55 2.7-3.1.61-5.59.07-7.42-1.61-3.91-3.58-3.58-11.12-3.25-14.19-.03-3.91 1.25-8.69 2.61-13.75 2.39-8.91 4.86-18.1299.16-23.2699-2.42-1.74-6.489-3.14-10.329-3.53-.05 0-.101 0-.161 0-3.14 0-5.94 2.04-8.64 4.02-1.79 1.31-3.64 2.66-5.56 3.36-.46.15-.74.03-.9-.1-.24-.19-.35-.5301-.31-.9601.76-5.96-.35-9.9699-3.22-11.5999-3.84-2.18-10.76.0099-18.07 5.7299-.65.51-1.32.99-1.82.74-.44-.22-.48-.88-.46-1.36 0-.95-.04-1.91-.07-2.87-.13-3.71-.26-7.5599 1.17-11.0499.28-.58.35-1.0301.21-1.3301-.11-.23-.36-.3899-.74-.4699-.62-.17-1.24-.3501-1.88-.5401-2.94-.87-6.27-1.8599-9.08-.8299-2.14.79-3.61 4.79-4.49 7.18-.14.39-.27.75-.39 1.05-1.67 4.26-2.99 8.74-4.26 13.07l-.62 2.12c-3.03 10.29-6.17 20.9399-10.8 30.7999-.74 1.58-1.59 3.21-3.05 4.16-1.49.98-3.87.97-4.9-.6-.62-.95-.57-2.18-.54-3.08.05-1.41.17-2.8899.29-4.3099.27-3.34.55-6.79.06-9.96-.85-5.54-1.48-10.9601.25-16.2401.17-.53.37-1.07.57-1.6.53-1.43 1.08-2.8999 1.13-4.4099.06-1.99-1.17-4.25-3.1-4.44-.92-.09-1.79.27-2.71.66-.66.27-1.33.5599-2.05.6699-.93.15-1.91.0001-2.75-.4099-.55-.27-1.03-.64-1.5-1-.28-.21-.55-.43-.84-.62-2.98-1.98-7.85-1.4401-10.53.2999-2.3 1.57-4.1 4.14-5.84 6.63-.68.97-1.32 1.88-1.99 2.74-5.13 7.24-5.99 14.9401-6.89 23.0901-.14 1.29-.2897 2.5999-.4497 3.9099-.22.97-.52 1.9001-.81 2.8001-1.11 3.4999-2.0801 6.5199 1.6499 9.1199 1.9398 1.35 4.0598 1.86 5.7998 1.38 1.16-.32 2.17-1.04 3.14-1.74 2.84-2.04 5.77-4.16 8.55-6.44 1.62-1.34 3.09-2.8599 4.52-4.3399 1.13-1.17 2.3-2.39 3.54-3.5l.16-.14.17.13c.78.6.83 2.72.8 5.64 0 1.1099-.02 2.1599.08 2.7099.57 3.26 1.65 5.93 3.2 7.93 2.49 3.58 6.28 5.13 10.66 4.37 6.26-1.08 12.43-6.56 14.04-12.48.38-1.4.75-2.8 1.13-4.2 1.34-5.01 2.72-10.1999 4.45-15.1899.27-.79.57-1.57.86-2.34.78-2.07 1.51-4.03 1.92-6.17.14-.73.21-1.5501.29-2.4101.19-2.13.41-4.5499 1.77-6.1699.51-.6 1.43-1.02 2.23-.65l.14.0699v.1601c.12 5.99-1.51 11.7499-3.1 17.3299-1.31 4.62-2.67 9.3901-3.03 14.2901-.25 3.3999-.6 8.0699 1.51 10.8899.97 1.3 2.94 2.28 4.89 2.44 1.54.13 2.87-.28 3.77-1.13.32-.31.48-.8.48-1.55.18-9.9599 2.44-20.3799 4.31-27.3799 1.36-5.11 5.6-9.06 10.29-9.61.58-.07 1.17-.08 1.76-.04.4.03.81.0799 1.14.3299.47.35.6.9501.68 1.4801.72 4.52.55 9.27-.49 13.72-.37 1.59-.86 3.18-1.33 4.72-.49 1.61-1.01 3.27-1.38 4.93-.53 2.36-.71 4.4099-.55 6.2499.06.64.18 1.17.3 1.69.27 1.19.5 2.22-.38 3.59-1.56 2.18-.25 4.34 1.5 5.64 2.31 1.72 5.82 2.26 7.46.13 1.81-2.74 3-8.94 4.25-15.52 1.47-7.68 2.99-15.6299 5.74-19.7099 1.76-2.34 7.06-8.31 10.78-8.31h.11c1.05.04 1.9.54 2.52 1.5.59.91.71 2.0299.75 3.0099.2 5.26-1.49 10.3801-3.12 15.3201-.4 1.21-.79 2.41-1.17 3.61-1.3 4.23-2.29 8.5899-2.94 12.9599-.39 2.59-.72 5.59.26 8.31 1.34 3.72 4.89 7.65 9.04 9.99 2.04 1.15 9.02 4.8 13.53 3.38 2.64-.83 7.14-3.38 7.97-6.67.15-.84-.22-1.52-.65-2.3-.26-.48-.53-.98-.73-1.57zm-117.62-43.99c-.66 1.65-1.3 3.5601-1.98 5.5701-2.89 8.56-6.48 19.21-14.87 21.9399l-.259.08-.071-.26c-1.53-5.9799-.67-13.5799 2.19-19.3699 2.72-5.5 7.56-9.69 12.94-11.2.52-.15 1.07-.2501 1.56-.0301 1.11.5.97 2.01.48 3.25zm-65.0597-66.45992c-.25-.3-.5002-.59-.7602-.88-2.74-3.06-5.82-4.75001-8.67-4.76001h-.02c-2.24 0-4.2999 1.02004-6.1299 3.04004-1.98 2.18-2.6301 5.35991-3.1601 7.90989-.8 3.92-1.6398 7.98-1.9898 12.12-.05.64-.0598 1.3201-.0698 1.9801-.01 1.93-.0302 3.93-1.2402 5.57-2.58 3.49-8.0299 5.83-12.8399 7.9-1.93.83-3.75 1.61-5.23 2.4l-2.7202 1.45c-1.18.63-2.06 1.0999-2.5 1.3299.01.15.5701.57.8101.75.16.12.3001.2301.4101.3201 5.49 4.96 13.8099.6 19.3199-2.28l.31-.1601.1201.2001c.96 1.55.95 4.1299.94 6.4199 0 .77-.0002 1.51.0298 2.12.26 4.29.3799 7.6001.3799 10.7301 0 7.89-.8198 14.6099-2.4698 20.5299-.59 2.12-1.3202 4.23-2.0302 6.27-.25.71-.4898 1.4301-.7398 2.1401-.25.73-.4501 1.72-.6601 2.76-.4 1.95-.86 4.1599-1.75 5.3199-1.82 2.37-5.2601 2.06-8.2901 1.79-.94-.08-1.8399-.16-2.6499-.16-.34 0-.6599.01-.96.05-4.04.45-8.08005 2.48-11.35005 5.72-2.849998 2.8-4.149666 5.93-3.659666 8.81.47 2.74 2.509906 5.02 5.899906 6.6 3.58 1.96 9.28981 4.14 12.83981 4.33 9.41-.11 13.4401-6.25 17.3301-12.18.95-1.45 1.9398-2.96 2.9898-4.34 1.13-1.77 4.1603-.45 7.6503 1.08 3.19 1.4 6.8099 2.98 9.8799 2.71 1.38-.14 2.18-.46 2.25-.91.33-1.96-10.07-6.78-13.98-8.59-1.28-.59-2.2102-1.02-2.5502-1.23-1.62-1.2-1.54-2.96-1.46-4.8299l.02-.51c.27-2.86 1.1901-6.06 2.0801-9.16.51-1.8.9999-3.49 1.3599-5.1 1.4-9.3 1.7901-19.5 2.1601-29.36.18-4.64.3399-9.02.6099-13.18l.2202-1.6401c.62-4.55 1.2501-9.2599 2.8501-13.5699.79-2.12 2.4896-3.63 4.1396-5.1 1.75-1.56 3.5605-3.17 4.2105-5.49.41-1.47.4397-3.04.4697-4.44.02-.94.0399-2.00008-.3701-2.92008-.25-.56-.6601-1.07994-1.0601-1.55994zm-34.2803 100.57992c-.46.76-.8895 1.58-1.3095 2.38-1.74 3.33-3.5304 6.77-8.4004 6.77-.04 0-.0699 0-.1099 0-.47 0-1.1298-.08-1.5898-.41-.58-.39-.72-1.1-.75-1.5-.19-2.07.31-3.81 1.5-5.19 1.74-2.01 4.96-3.18 9.31-3.39.8-.04 1.23.02 1.44.21l.0498.05c.3.33.0201.8-.1499 1.08zm26.4702-89.77v.0501l-.1401.11-2.4497.9799 2.04-1.3499s.0699-.05.1099-.08c.11-.55.0598-1.1101.0098-1.7101-.04-.49-.0798-1-.0298-1.51.08-.81.5998-1.63 1.2598-1.99.44-.25.9203-.2699 1.3403-.0599l.1201.0599.0195.13c.26 2-.6495 4.14-2.2695 5.37zm268.3698 43.6701c-.4-.32-1.06-.8501-1.96-2.6701v-.0199c-.05-.11-.09-.2201-.13-.3401-.14-.4-.28-.7999-.52-1.0899l-.04-.0501c-.23-.24-.59-.3699-1.14-.4099-2.16-.29-3.99.54-4.91 2.2-2 3.43-3.33 7.96-4.75 12.76-2.38 8.09-4.84 16.46-10.8 19.63-1.07.63-2.04.75-2.87.35-1.42-.6901-2.35-2.84-2.86-6.58-.52-3.75-.96-7.4001-.69-10.8001.03-3.17.81-4.9 1.72-6.9.48-1.06.97-2.1499 1.4-3.5599.3-1.06.23-1.98-.2-2.59-.36-.5-.95-.7901-1.77-.8401-8.08-.89-11.75 3.0701-16.81 8.5601-.68.76-1.33 1.2-1.99 1.35-1.45.36-2.36-.97-3.03-1.94-5.54-7.9-11.75-11.0001-18.5-9.2101-3.44.82-3.56 1.97-3.86 4.74-.06.54-.12 1.1401-.22 1.8001-.13.62-.3 1.17-.52 1.67-.44 1.02-1.16 1.89-1.85 2.73-.55.67-1.13 1.36-1.55 2.12-5.9 12.92-4.47 22.42-1.44 26.63 2.68 3.7299 7.29 5.2799 13.69 4.6099 1.29-.13 2.29-.26 3.3-.7.4-.18.81-.35 1.21-.52 2.01-.85 4.09-1.73 5.84-3.0499 1.17-.89 1.36-2.02 1.58-3.32.1-.57.2-1.17.39-1.78.24-.78.52-1.5601.79-2.3201.5-1.4 1.01-2.8499 1.32-4.3299.16-.75.16-1.66.16-2.62 0-2.04.02-4.35 1.63-5.51l3.43-2.07c3.05-1.85 6.98-4.2201 8.21-4.9501.11-.05.37-.1799.59-.0399.25.16.25.4999.24 1.0199v.36c-.58 11.86 1.79 19.8201 6.68 22.4401 3.97 2.13 9.41.6799 16.15-4.3101.1-.04.18-.0599.26-.0599.07 0 .13.02.18.05.09.05.21.1699.25.4099.05.34.11.9401.2 1.7101.05.48.11 1.03.18 1.62.19 1.7.42 3.7799.65 5.7999.37 3.27.71 6.39.84 7.45.12.44.89.49 1.5.53.16 0 .3.02.43.03 2.07.09 2.66-2.24 3.23-4.49.13-.51.26-1.02.4-1.47 1.19-4.2299.97-8.78.76-13.18-.14-2.89-.28-5.8699-.02-8.7399.37-3.5101 1.56-7.0001 2.7-10.3801.66-1.95 1.35-3.9599 1.85-5.9199.18-.64.33-1.1601.46-1.6001.367-1.2733.43-2.0066.19-2.1999zm-58.62 21.05c-.53 2.97-1.12 4.9699-2.18 7.4099-2.5 5.67-6.05 7.9801-9.01 7.9801-.64 0-1.25-.11-1.82-.31-4.6-1.65-5.1-8.07-3.62-13.35.29-1.02.55-1.82.92-2.76.19-.33.3-.66.42-1.01.28-.81.59-1.7301 1.72-2.3001l.13-.0499c.63-.23 1.5-.3001 2.12-.3201 4.64-.12 7.5.4701 9.85 2.0401 1.09.72 1.63 1.69 1.46 2.68zm.18-14.8501v1.89 2.1701c0 1.04 0 1.85-.02 2.25l-.02.0799c-.15.34-.52.4601-.97.4601-.74 0-1.69-.33-2.2-.54-4.84-2.23-4.72-5.7101-4.22-8.8001.13-.56.66-.86 1.56-.89h.63c1.45-.03 3.65-.06 4.75.03l.1.0201c.2.06.32.1799.36.3599.04.75.03 1.88.03 2.97z" fill="#000"/></svg>