<svg fill="none" height="133" viewBox="0 0 657 133" width="657" xmlns="http://www.w3.org/2000/svg"><path d="m337.208 108.752c-.59.14-1.18.34-1.75.54-.81.27-1.64.56-2.52.7-1.79.29-3.6-.06-4.97-.98-1.22-.81-5.96-9.9897-6.12-12.9397-.03-.5299.08-.8899.34-1.0999l.09-.07.11-.02c10.93-1.95 19.57-13.31 18.49-24.3-.5-5.12-1.54-8.52-3.07-10.1-3.41-3.5-7.78-1.6199-12.01.2001-1.57.68-3.06 1.3199-4.48 1.6799-5.88 10.17-10.6 19.6101-8.99 31.9401.43 3.3 1.63 6.6395 2.8 9.8595.29.79.57 1.57.83 2.35 1.85 5.33 4.12 9.12 9.25 10.28.86.19 1.73.26 2.79.29 2.11.07 4.24.02 6.34-.16 2.21-.18 4.68-.57 6.34-2.09.9-.82 1.45-2.15 1.41-3.38-.02-.65-.21-1.56-1.01-2.2-1.19-.95-2.93-.72-3.86-.49zm-17.15-23.0595c-2.93-3.44 2.35-11.2301 4.76-14.4201 1.61-2.13 4.1-4.9399 7.42-4.7099 1.1.08 2.02.5398 2.52 1.2598.45.6601.53 1.4501.55 2.2201.13 4.82-1.65 9.47-4.76 12.46-1.29 1.24-5.31 4.14-8.23 4.14-.52 0-1-.09-1.43-.3-.32-.16-.6-.3799-.83-.6499zm47.97-28.6901c-4.9 1.11-13.25 7.87-14.76 13.02-1.51 5.14-.18 9.48 4.45 14.51 1.95 2.12 7.9 9.49 2.48 15.36-2.33 2.5296-6.4 2.4596-9.39 1.2696l-.33-.13c-.56-.23-1.08-.44-1.63-.48-.04 0-.08 0-.12 0-.5 0-1.09.2-1.29.68-.25.57.1 1.31 1.05 2.21 1.85 1.76 3.8 3.45 5.8 5.04.92.73 1.83 1.41 2.87 1.73.3.09.63.16.96.19.87.09 1.85-.01 3-.31 5.24-1.34 8.91-4.38 10.07-8.33 1.46-4.9796.64-10.6095-2.19-15.0695-.97-1.52-2.61-2.49-4.34-3.51-2.96-1.75-6.02-3.5501-5.54-8.2901.72-7.19 7.66-7.7699 12.73-8.1999l1.09-.0901c3.07-.28 5.1-1.26 5.71-2.75.46-1.13.09-2.54-1.03-3.86-1.76-2.08-5.52-3.91-9.6-2.98zm-148.73-7.71c1.88.49 3.29.28 4.18-.64 2.62-2.71.59-10.78-.41-14.13-.36-1.22-.82-1.86-1.43-2.01-.91-.24-1.8.74-2.11 1.77-.12.42-.2.85-.27 1.31-.13.79-.27 1.6001-.68 2.3401-.49.88-1.3 1.4999-2.07 2.0899-.61.47-1.18.91-1.58 1.44-.18.24-.31.4801-.4.7301-.26.73-.19 1.6399.21 2.6999.83 2.19 2.58 3.88 4.56 4.39zm287.83 23.5c-1.05-3.44-1.88-6.15-6.07-6.29s-8.38 1.12-11.79 3.54c-.4.29-.9.64-1.52.59-.72-.06-.88-1.0899-.94-2.1999-.27-4.66 1.37-16.8301 1.74-19.0801 1.15-6.98 2.17-14.5 1.92-22.15-.05-1.64-.27-3.44-1.47-4.38-.43-.34-.99-.57-1.72-.71-.43-.08-.86-.12-1.29-.12-1.93 0-3.89.79-5.23 2.17-3.15 3.24-2.45 9.54-1.83 15.11.29 2.62.57 5.09.43 7.07l-.35 5.12c-.53 7.56-1.08 15.37-1.35 23.07-.1 2.74-.13 5.5501-.17 8.2701-.08 6.46-.16 13.1299-1.11 19.5895l-.09.6c-.38 2.51-.76 5.1.12 7.38.42 1.09 1.1 2.05 1.88 3.1 1.44 1.94 3.07 3.77 5.2 3.95 1.68.15 3.17-.73 4.76-1.66.57-.33 1.16-.68 1.76-.97 6.18-3.01 9.21-6.89 12.82-12.04.56-.8 1.24-1.68 1.96-2.61 2.26-2.9196 5.08-6.5596 5.56-9.6796.84-5.35-.86-10.85-2.52-15.59-.25-.71-.46-1.41-.67-2.09zm-6.99 16.33c-.6 5.4-3.48 10.19-7.9 13.1396-1.59 1.06-2.91 1.59-3.98 1.59-.52 0-.99-.12-1.4-.38-2.52-1.54-1.88-7.3095-1.41-11.5295.13-1.21.25-2.25.25-2.89v-.5201c0-3.11-.01-6.33 1.21-9.29 1.23-2.98 4.21-6.01 8.1-6.03.38 0 .98.02 1.5.28.34.17.64.42.89.74.42.56.63 1.2601.79 1.9501.17.72.36 1.43.54 2.13.94 3.63 1.83 7.0499 1.41 10.8199zm-75.48 28.3996c-2.12.03-4.17.261-6.15.481-3.16.35-6.43.71-9.92.25-.79-.11-1.61-.161-2.4-.211-3.14-.2-6.39-.41-8.24-4-1.16-2.24-1.14-4.68-1.04-6.79.19-3.75.71-7.5796 1.21-11.2896.78-5.74 1.59-11.67 1.24-17.73l-.03-.46h.46c3.32.07 7.6.07 11.18-.51 3.7-.59 7.69-3.77 9.84-5.48 1.05-.83 1.47-1.54 1.3-2.17-.49-1.81-7.17-2.32-9.49-1.87-1.22.24-2.46.67-3.78 1.13-2.58.91-5.25 1.84-7.95 1.28l-.4-.0801.07-.3999c.53-3.26.62-6.95.7-10.52.07-2.96.14-6.02.47-8.77.18-1.53.99-2.91 1.77-4.24 1.01-1.72 1.96-3.35 1.4-5.04-.83-2.51-6.49-3.98-8.9-4.6l-.36-.09c-.6-.16-1.24-.24-1.89-.24-2.09 0-4.25.88-5.24 3.09-.69 1.54.02 3.09.78 4.74.46 1.01.94 2.06 1.07 3.11 1.42 11.19-.28 22.24-1.92 32.93-1.01 6.55-1.96 12.73-2.18 18.74l-.07 1.6496c-.25 6.02-.51 12.25 2.43 17.41 4.87 8.56 15.87 9.42 20.33 9.38 1.46 0 2.9-.39 4.49-.84 3.95-1.13 8.49-2.55 12.37-5.01.76-.49 2-1.46 1.73-2.54-.25-.99-1.68-1.34-2.88-1.31zm231.25-11.91c-.93-1.06-2.69-.97-4.02-.4-.65.28-1.26.64-1.9 1.02-.76.46-1.55.93-2.42 1.24-2.62.94-5.86.28-8.45-1.7s-4.2-4.92-5.19-6.9595c-.17-.36-.54-1.1001-.21-1.7801.22-.46.67-.69 1.03-.88 2.38-1.24 3.52-3.04 4.84-5.11.28-.44.57-.8899.87-1.3499.4-.6.83-1.18 1.24-1.75 1.43-1.96 2.77-3.8101 3.15-6.3501.62-4.15.22-8.24-1.26-12.88-.11-.35-.21-.7-.31-1.04-.44-1.55-.82-2.8899-2.22-3.6199-2.01-1.06-5.01-.8301-6.97-.3201-4 1.04-7.18 4.09-9.99 6.78-1.05 1.01-2.13 2.05-2.82 3.32-.79 1.45-1.02 3.18-1.13 4.52-.28 3.39-.09 6.78.57 9.8.64 2.95 1.41 5.8301 2.33 8.7801l.14.4499-.46.09c-3.05.61-7.82-.6-10.19-2.07-.53-.33-6.18-7.9-6.37-8.53-.94-3.11-.74-19.1199.05-22.6899.51-2.3 1.82-5.2701 3.21-8.4201 1.24-2.81 2.51-5.7101 3.23-8.1901.18-.61.47-1.6099.82-2.7899 1.09-3.68 2.92-9.84 3.09-10.94.67-4.35.3-9-.05-13.49l-.15-1.94c-.29-3.93-1.56-5.18-5.65-5.54-2.75-.24-4.88.61-6.72 2.7-5.53 6.27-5.7 13.26-5.87 20.65-.05 2.12-.1 4.3101-.29 6.4701l-.26 3c-1.76 20.57-2.93 34.1599-14.19 53.61l-9.23 12.7395-3.06-30.4895.05-.1001c8.14-18.08 12.46-34.31 13.59-51.08.42-6.23.54-15.16-3.26-20.80005-1.02-1.51-6.43.2601-9.6 1.73015-3.09 1.44-5.32 3.9299-6.82 7.6199-1.62 3.97-2.63 8.4601-3.19 14.1401-.17 1.71-.46 3.4299-.73 5.0999-.37 2.21-.75 4.5-.84 6.73-.24 5.68-.1 11.49.04 17.11.12 4.97.25 10.11.11 15.16-.15 5.31-3.96 11.36-6.81 15.45-2.04 2.93-6.61 7.8696-9.91 9.1896-4.35 1.74-7.26-3.3295-8.51-5.4995-1.95-3.39.46-5.7801 2.59-7.8901l.14-.13c3.17-3.16 5.29-5.5299 5.7-9.5999.05-.5.08-1.0201.11-1.5601.08-1.37.17-2.78.57-4.01.27-.83.72-1.57 1.16-2.2901.56-.93 1.1-1.8099 1.24-2.8299.14-.98-.11-1.9699-.38-2.8099-.6-1.89-1.41-3.2301-2.47-4.0901-3.39-2.75-17.15-2.18-20.16.83-1.89 1.89-4.05 17.79-3.78 21.57.66 9.15 5.42 20.9796 14.29 25.3096 10.77 5.26 22.55-7.36 26.46-15.2896.98-1.99 1.74-4.06 2.27-6.16l.49-1.95.34 1.98c.53 3.07.46 6.22.4 9.26-.03 1.27-.06 2.54-.04 3.8096.04 3.72.69 8.89 3.56 12.44 1.15 1.43 2.52 2.19 4.07 2.28 3.23.18 6.51-2.56 8.18-4.22 2.02-2 3.68-4.39 5.29-6.71l1.11-1.61c8.78-12.8496 10.27-13.5296 11.06-13.1196.55.29.77 1.37 1.12 3.59.13.84.27 1.71.4 2.01.75 1.67 1.95 3.2099 3.47 4.4599 6.42 5.2697 16.54 5.0297 23.22 2.0597l.56-.25.04.61c.36 6.08 5.79 10.46 10.34 12.37 5.06 2.12 10.15 1.28 16.48-2.72 1.06-.67 2.24-1.48 2.92-2.62.58-.99.75-2.47-.05-3.4zm-124.42-19.0096s-.03 0-.05 0c-.72 0-1.28-.53-1.68-1.57-1.78-4.68-2.26-9.76-1.38-14.69.25-1.43.7-3.24 1.88-4.6 1.05-1.21 3-2.16 4.8-1.38 1.8.77 2.7 2.88 2.66 6.26-.03 2.73-.18 5.9399-1.1 8.9499-.22.71-2.78 6.9601-5.13 7.0301zm37.12-18.19-.37.2801-.25-.4001c-1.12-1.82-1.15-5.09-1.18-7.7201 0-.7999-.02-1.5399-.05-2.1699-.19-3.26-.26-6.58-.21-9.87.1-6.58.69-13.19 1.76-19.65.32-1.96.71-3.85 1.83-5.41s3.32-2.7599 5.32-2.0299c2.09.76 3.14 3.0599 3.23 7.0199.16 7.18.2 14.21-1.12 21.16-1.22 6.4-3.76 14.86-8.95 18.79zm34.21-10.39-.85-.04c.08-2.07.15-4.12.21-6.15.29-9.21.56-17.9099 2.69-27.0199.31-1.31.66-2.5601 1.58-3.4601.58-.57 1.45-.9 2.26-.86.64.03 1.2.3 1.58.75.26.32.43.71.54 1.22.05.25.08.51.1.76.4 4.59-.85 9.33-2.05 13.91-.37 1.41-.72 2.7401-1.02 4.0601-.52 2.28-1.42 4.5599-2.29 6.7699-1.28 3.26-2.6 6.63-2.74 10.03zm28.96 32.35c-1.29-.02-2.3-.92-2.99-2.67-1.35-3.42-1.96-6.46-1.87-9.31.11-3.49 1.32-6.64 3.4-8.86 1.68-1.79 4.58-3.16 6.98-1.94 1.73.88 2.82 2.91 3.13 5.87.38 3.55-.09 6.97-1.36 9.88-1.04 2.38-4.33 7.03-7.25 7.03-.02 0-.03 0-.05 0zm-518.44 25.4696c-.17-.06-.4-.04-.58.05-.27.14-.49.39-.72.65-.1.11-.2.22-.3.32-1.44 1.47-2.89 1.97-4.32 1.5-4.69-1.56-7.26-13.71-7.5799-16.04-.61-4.5196-.1304-8.9695.3299-13.2595.21-2.01.44-4.0901.54-6.1501.1-1.94-.04-4-.17-5.99-.3-4.48-.6101-9.11 1.64-13.22.1-.18.21-.37.31-.55.38-.66.74-1.2699.86-1.9599.07-.4.01-.8401-.16-1.2001-.12-.25-.34-.5799-.74-.6799-.67-.17-1.32.3399-2 .8899-.25.2-.5003.39-.7403.56-2.24 1.5-5.1999.77-7.3599.23-6.32-1.56-14.7999 2.4299-20.1499 6.3299-7.21 5.25-12.2099 20.0401-9.7299 28.7701 1.21 4.2596 2.96 6.8596 5.33 7.9596 2.78 1.28 6.5599.65 12.6299-2.13 5.91-6.5696 6.8798-7.6496 7.0498-7.8296 0 0 .01-.0201.02-.0201 0 0 .0103-.0098.0103-.0198l.6196.5899c-.6.67-.7897 3.0001 1.7403 10.2896l.0898.27c1.48 4.29 3.5 8.03 6 11.11 2.92 3.6 9.0703 6.87 13.2003 5.79 2.34-.61 3.8-2.51 4.35-5.65.03-.17.05-.349 0-.459-.03-.07-.09-.121-.18-.151zm-22.2104-45.8796c-.41 2.31-1.1899 4.65-1.9399 6.91-.29.88-.5796 1.75-.8496 2.61-.81 2.63-1.7404 5.6201-3.4004 8.2001-1.54 2.39-3.6697 4.3799-6.1597 5.7399-.68.37-1.5803.81-2.5903.93-.32.04-.6299.06-.9199.06-1.42 0-2.4398-.47-3.0498-1.41-2.18-3.35 1.9797-11.8 3.7597-14.78 1.97-3.29 6.6801-8.94 11.7901-9.26 1.08-.07 2.1201.11 3.1001.52l.31.13-.06.34zm104.7504-8.0299c-5.62 2.13-9.69 11.28-12.13 16.75l-.59 1.3199c-1.85 4.09-3.53 8.55-5.28 14.02-.7 2.2-1.42 4.57-2.25 7.4696-.13.44-.36 1.04-.62 1.73-.59 1.53-1.41 3.63-1.19 4.55l-.41.1-.41.1c-3.12-12.8996-6.35-26.2495-6.74-39.7996-.03-1.15-.07-2.34-.68-3.21-.59-.84-1.59-1.26-3-1.26-.94 0-2.06.19-3.36.57-.47.14-.88.28-1.09.57-.22.3-.21.7601-.18 1.2101.22 3.75 1.41 7.2699 2.56 10.6799.97 2.86 1.97 5.83 2.4 8.92.75 5.51 1.39 11.03 2 16.3796.51 4.45 1.03 9.05 1.63 13.64.56 4.35 1.51 11.63 5.32 14.14 1.51.99 3.3 1.17 5.49.54 1.95-.56 3.25-7.02 4.1-11.3.35-1.77.66-3.289.96-4.309 3.47-11.53 7.94-22.9106 12.27-33.9207.67-1.7099 1.34-3.4099 2-5.0899.55-1.41 1.26-2.72 1.95-3.98 1.63-3 3.18-5.85 2.44-9.65-1.75-.75-3.49-.7999-5.18-.1599zm-136.8803 52.5895c-.8.23-1.5896.94-2.4296 1.68-.84.75-1.71 1.53-2.73 1.95-.46.19-1.1002.47-1.8902.81-9.71 4.21-18.9903 7.821-21.0903 5.791l-.1597-.161.0401-.22c.72-3.91 1.4697-7.81 2.2197-11.72 2.61-13.5396 5.3002-27.5396 6.4702-41.4996.34-4.11.2502-8.38.1602-12.51-.11-4.87-.2204-9.8999.3896-14.6999.4-3.13 1.8101-4.4701 3.6001-6.1501.5-.47 1.0401-.98 1.6001-1.57 2.6-2.73 4.6498-5.38 6.2398-8.1 2.19-3.73 3.4503-7.46 3.8603-11.38 1.22-11.73-1.5403-15.01999-4.0703-15.72999-2.14-.589995-7.4599.70997-11.3799 3.33997-1.65 1.1-3.6601 2.86008-3.9101 4.96008l-8.8296 30.41994-14.9702 8.23c-1.95 1.07-3.89014 2.15-5.85014 3.21-.53.29-1.26975.5301-1.98975.7601-.84.27-1.71012.55-2.12012.87-.29.22-1.46982 1.8799-1.31982 2.5599.01.06.039551.17.28955.22 3.53.7 7.34027-.73 11.03028-2.11 1.14-.43 2.23-.8299 3.29-1.1699.23-.07.6901-.2502 1.2901-.4802 3.8-1.4599 6.6397-2.3999 8.2197-2.3999.55 0 .9499.11 1.1899.36l.1304.14v.19c-.29 4.34-.1199 8.96.0401 13.43.19 5.24.3896 10.67-.1304 15.73l-.0401.34c-1.63 15.97-3.31 32.4796-8.25 47.9396-.14.45-.2897.92-.2597 1.36.12 1.44 4.1 2.94 7.73 3.73 2.15.46 13.7101-1.54 16.3701-2.31 3.72-1.08 16.1698-7.31 21.6098-10.15 4.09-2.13 5.11-3.96 4.71-4.96-.58-1.44-4.2098-2.12-9.0698-.7zm-14.1699-101.6196c.5-.41 1.1701-.52 1.8501-.31.87.27 1.5999 1.02 1.8399 1.86.38 1.36-.1498 2.75-.7798 4.05-.12.24-.2502.55-.4102.91-.97 2.19-2.4299 5.47-4.3799 5.47-.03 0-.0701 0-.1001 0l-.3901-.02v-.39c-.04-1.46.2501-9.8 2.3701-11.56zm219.0202 95.9996c-1.32 1.28-2.69 2.61-4.76 2.91-2.82.41-13.14.1-15.2-2.18-.19-.21-1.77-4.12-1.76-4.51.02-.47.83-1.76 3.83-6.2596 2.21-3.33 4.72-7.1 5.58-8.91 3.85-8.18 7.17-15.2 4.62-19.93-1.59-2.96-5.43-4.84-11.76-5.75-1.06-.15-2.38.36-3.94 1.52-5.43 4.06-11.46 14.33-12.01 18.21-.71 4.97.73 9.84 2.12 14.54.44 1.4996.9 3.0496 1.28 4.5796l.06.24-.18.17c-3.94 3.74-9.28 7.2-12.46 5.68-1.93-.92-2.74-3.5-2.4-7.67l5.34-33.3296-.17-.22c-1.14-1.46-1.85-2.34-3.8-2.29-.68.08-6.78 3.32-7.31 3.79-2.82 3.53-4.34 30.11-3.71 35.6096.52 4.5 7.14 10.61 11.07 11.2 5.62.84 11.08-1.83 14.7-3.59 1.94-.95 3.3-1.61 4.25-1.61.13 0 .25.01.36.04.7.16 1.56.87 2.65 1.76 1.17.96 2.5 2.061 3.8 2.581 7.03 2.84 17.82 3.419 22.97-.591 2.49-1.94 3.54-4.79 3.1-8.47-2.98-.68-4.58.87-6.26 2.5zm-23.09-14.7796c-.35.14-.69.21-1.01.21-.27 0-.52-.0499-.76-.1399-1.05-.41-1.98-2.3301-2.93-4.4301-.18-.39-.33-.74-.46-.99-1.49-2.95-.21-6.32.68-8.07 1.24-2.41 2.82-4.17 4.71-5.22 2.17-1.21 4.4-1.4 5.96-.49.91.53 2.01 1.6601 2.05 4.0701.08 5.05-3.01 9.77-4.86 12.13-.83 1.06-2.09 2.4299-3.39 2.9499z" fill="#000"/></svg>